<svg version="1.1" id="Layer_1" xmlns="http://www.w3.org/2000/svg" xmlns:xlink="http://www.w3.org/1999/xlink" x="0px" y="0px"
	 width="100%" viewBox="0 0 303 130" enable-background="new 0 0 303 130" xml:space="preserve">
<path fill="#FCFCFC" opacity="1.000000" stroke="none" 
	d="
M40.000000,131.000000 
	C27.013206,131.000000 14.026412,131.000000 1.019809,131.000000 
	C1.019809,87.723900 1.019809,44.447788 1.019809,1.000000 
	C88.020821,1.000000 175.041748,1.000000 262.508179,1.356014 
	C256.684601,5.421193 254.451660,13.510626 258.330811,18.459518 
	C261.643341,22.685526 267.921112,23.780636 272.180298,20.875462 
	C276.951263,17.621214 278.555969,11.170053 275.403442,6.371498 
	C274.038757,4.294245 271.826996,2.773523 270.000000,0.999999 
	C281.321533,1.000000 292.643036,1.000000 303.982300,1.000000 
	C303.982300,44.276356 303.982300,87.552719 303.982300,131.000000 
	C218.979187,131.000000 133.958252,131.000000 48.605415,130.687653 
	C49.880383,129.309845 51.487244,128.244354 53.363708,126.949318 
	C53.793633,125.811218 53.953949,124.902679 54.264095,123.609818 
	C54.427071,116.511139 54.440220,109.796783 54.566120,102.785614 
	C54.100025,102.097473 53.521179,101.706161 52.665192,101.296219 
	C51.955051,101.595139 51.522045,101.912666 50.731003,102.417145 
	C48.907768,102.146439 47.442574,101.688797 45.602516,101.121399 
	C38.608608,102.046486 36.494480,105.397766 37.009922,114.038239 
	C37.496273,122.191063 41.226475,124.658188 49.046429,122.066116 
	C49.567680,121.893341 50.256767,122.226921 50.768635,122.504311 
	C50.568802,122.969940 50.617599,123.227982 50.633942,123.667793 
	C50.396626,124.240036 50.341240,124.602249 50.027378,125.253387 
	C45.958214,126.647789 42.147526,127.753273 38.307121,128.867371 
	C38.808029,129.498398 39.404018,130.249191 40.000000,131.000000 
M214.412888,36.345829 
	C214.412888,36.345829 214.493607,36.339809 214.926697,36.016567 
	C214.993713,35.675968 215.060730,35.335373 215.308380,34.801521 
	C215.308380,34.801521 215.202133,34.559273 215.601898,33.809994 
	C215.050446,31.323057 214.498993,28.836121 213.031464,26.180437 
	C204.042618,26.169821 195.048248,25.987608 186.069092,26.277313 
	C183.997574,26.344149 181.978210,28.027290 179.542206,29.665939 
	C179.541718,32.163937 179.541214,34.661938 179.265732,38.033318 
	C179.358322,44.629971 179.450928,51.226620 179.310989,58.707134 
	C179.388779,60.524357 179.466568,62.341576 179.266617,65.026398 
	C179.373062,69.620110 179.479507,74.213829 179.407059,79.445015 
	C179.879959,80.372765 180.352875,81.300507 180.916519,82.117790 
	C180.916519,82.117790 180.782822,82.168404 181.204742,82.838486 
	C191.572601,83.055840 201.940079,83.308334 212.309082,83.420975 
	C213.101471,83.429573 213.904617,82.449074 215.346146,81.389755 
	C215.613312,78.327721 215.880478,75.265678 216.216171,71.418274 
	C213.026276,71.876099 210.616348,72.061287 208.281937,72.583824 
	C195.761871,75.386330 192.881195,73.206879 193.763214,61.434441 
	C193.784607,61.148872 194.064285,60.882656 194.564575,60.017754 
	C200.264069,60.017754 206.307861,60.017754 212.326996,60.017754 
	C212.326996,55.980724 212.326996,52.546982 212.326996,48.519356 
	C206.020508,48.519356 199.966965,48.519356 193.810486,48.519356 
	C193.810486,44.810738 193.810486,41.701611 193.810486,38.415276 
	C200.428482,38.108204 206.836182,37.810890 213.775833,37.320343 
	C213.991089,37.022331 214.206345,36.724319 214.412888,36.345829 
M231.696259,67.854065 
	C231.837326,70.224709 231.978409,72.595360 232.097153,75.675812 
	C233.453995,79.492493 235.823532,82.190788 240.930252,83.130356 
	C258.274261,83.040520 275.618286,82.950684 293.672943,82.885796 
	C297.470978,81.518745 300.319366,79.281189 301.189911,74.079514 
	C301.189911,65.511269 301.189911,56.943031 301.189911,47.986385 
	C283.686432,47.986385 266.344299,47.986385 249.078415,48.009548 
	C249.078415,48.009548 249.112869,47.937675 248.526779,47.142967 
	C247.748520,44.330307 249.126678,43.594280 251.666245,43.687885 
	C255.162018,43.816742 258.664032,43.799492 262.163422,43.802429 
	C275.121307,43.813301 288.079224,43.806759 300.958252,43.806759 
	C303.194153,32.920967 299.057190,26.274702 289.793365,26.149038 
	C274.296356,25.938822 258.793945,26.024565 243.294846,26.133751 
	C238.937790,26.164444 235.112396,27.614645 232.728424,32.524372 
	C232.522110,33.357788 232.315781,34.191208 231.807800,35.916691 
	C231.807800,44.491863 231.807800,53.067039 231.807800,61.889172 
	C249.462021,61.889172 266.717377,61.889172 284.571045,62.274956 
	C284.375549,63.577412 284.180023,64.879868 283.060028,66.030891 
	C266.369995,66.093086 249.679947,66.155273 232.416763,66.055199 
	C232.266968,66.369743 232.117157,66.684288 231.696259,67.854065 
M4.588578,123.680305 
	C7.882531,123.793839 11.194474,124.178352 14.466469,123.961113 
	C20.220209,123.579132 23.606014,119.399727 24.044619,112.672684 
	C24.721638,102.288971 22.244087,96.871109 16.167789,95.447487 
	C16.006525,95.409706 15.844550,95.331985 15.684843,95.336823 
	C12.095483,95.445595 8.506395,95.563332 4.134680,96.153976 
	C4.152586,105.085114 4.170491,114.016251 4.588578,123.680305 
M17.816599,47.968281 
	C17.816599,44.736172 17.816599,41.504066 17.816599,38.095608 
	C23.566008,38.095608 28.706804,37.952576 33.835426,38.140945 
	C37.924152,38.291119 39.643082,36.381954 39.659782,32.518642 
	C39.668732,30.447777 39.661373,28.376839 39.661373,26.150675 
	C29.003010,26.150675 19.200006,26.216646 9.398622,26.119444 
	C5.256633,26.078365 3.279984,27.793427 3.277244,32.026619 
	C3.267345,47.319450 3.064392,62.613106 3.212249,77.903763 
	C3.228637,79.598579 5.028320,81.276161 6.901714,83.247810 
	C16.275709,83.314819 25.649908,83.429153 35.023434,83.388275 
	C36.180271,83.383240 37.333504,82.550751 39.113995,81.659256 
	C39.471497,78.839676 39.828999,76.020103 40.250942,72.692261 
	C32.421200,72.692261 25.412579,72.692261 18.017902,72.692261 
	C18.017902,68.193123 18.017902,64.137497 18.952160,60.107098 
	C24.689854,60.107098 30.427547,60.107098 36.054604,60.107098 
	C36.054604,56.028454 36.054604,52.607006 36.054604,48.861790 
	C29.884169,48.861790 23.954226,48.861790 17.816599,47.968281 
M115.130936,71.761887 
	C108.403000,71.761887 101.675064,71.761887 94.754807,71.761887 
	C94.885620,74.351990 94.977386,76.168991 95.012192,78.705559 
	C97.161201,80.120499 99.214081,82.543785 101.477425,82.759575 
	C108.027458,83.384102 114.746857,83.818214 121.241974,83.028755 
	C129.256805,82.054573 133.478027,77.211205 134.743042,69.763153 
	C135.958786,62.605370 132.916702,55.627003 126.516953,51.908939 
	C122.799713,49.749329 118.588936,48.423248 114.934166,46.178448 
	C112.955826,44.963326 111.678581,42.606754 110.085060,40.765102 
	C112.216354,39.869259 114.301643,38.365326 116.488197,38.199905 
	C121.566269,37.815735 126.693199,38.077568 131.755280,38.077568 
	C132.210297,30.120796 131.502975,27.651073 127.050705,27.147665 
	C120.361519,26.391336 113.475655,26.108843 106.803909,26.830807 
	C100.524368,27.510328 96.306442,31.734249 95.267395,38.271740 
	C94.134514,45.399540 95.999985,51.689846 102.163544,55.796284 
	C106.414154,58.628231 111.253510,60.565140 115.770149,63.012058 
	C121.168091,65.936417 121.230843,68.636292 115.130936,71.761887 
M74.470413,26.579369 
	C73.623360,26.559769 72.776314,26.540169 71.038040,26.250767 
	C64.047035,26.315994 57.056026,26.381222 49.409840,26.340527 
	C48.433247,27.154207 47.456654,27.967888 46.160976,29.119823 
	C45.998161,29.417147 45.993698,29.716829 45.986378,30.941446 
	C45.986378,48.340263 45.986378,65.739075 45.986378,83.315956 
	C50.881039,83.315956 55.404289,83.315956 60.440086,83.315956 
	C60.440086,75.351524 60.440086,67.730484 61.191891,60.126369 
	C63.938370,59.574600 65.430038,60.775959 66.491325,63.324394 
	C68.086014,67.153664 70.514130,70.680595 71.764343,74.598846 
	C74.054024,81.774803 78.458221,84.387894 85.899498,83.504509 
	C91.445351,82.846123 91.930809,82.609238 89.314880,77.336105 
	C86.371414,71.402740 83.389198,65.488602 80.441223,59.600803 
	C89.196922,53.180599 91.775978,47.336926 89.696777,38.899967 
	C87.919228,31.687096 83.532433,28.095829 74.470413,26.579369 
M141.939301,26.134151 
	C135.683517,27.105415 134.600021,29.569046 136.898132,38.417648 
	C140.496475,38.417648 144.228729,38.417648 148.374802,38.417648 
	C148.374802,53.686134 148.374802,68.443260 148.374802,83.409866 
	C153.212341,83.409866 157.613724,83.409866 162.571121,83.409866 
	C162.571121,68.257469 162.571121,53.370537 162.571121,38.563850 
	C175.333771,37.042717 175.883316,36.452244 174.135727,26.129051 
	C163.763916,26.129051 153.307983,26.129051 141.939301,26.134151 
M82.007835,119.263962 
	C82.839493,122.970795 85.256119,124.467476 88.911293,124.127213 
	C92.007668,123.838974 95.096230,123.466911 98.703133,123.076172 
	C98.703133,119.023842 99.119919,114.353615 98.543533,109.809349 
	C98.209045,107.172188 96.820419,103.196915 94.951050,102.539467 
	C91.308777,101.258476 86.886787,101.000626 83.102882,103.882904 
	C85.413574,104.768204 87.741699,105.064873 90.061806,105.011711 
	C94.026375,104.920876 95.379341,106.608063 94.476410,110.265541 
	C89.312691,111.919846 82.452774,110.403297 82.007835,119.263962 
M74.796043,116.216293 
	C75.623161,111.546043 72.048019,105.720932 78.007278,103.124672 
	C76.375542,100.952240 74.925430,99.021614 73.269318,96.816727 
	C71.930023,99.100563 70.491890,101.552925 69.725471,102.859863 
	C70.342743,104.944763 70.832909,105.862183 70.851433,106.789032 
	C70.937576,111.098839 70.555618,115.452126 71.070190,119.701576 
	C71.262100,121.286354 73.191147,123.246872 74.789185,123.889542 
	C76.063866,124.402176 78.038322,123.174797 78.819633,122.961128 
	C77.080635,120.442978 75.938889,118.789680 74.796043,116.216293 
M108.215256,113.478584 
	C108.215256,107.235825 108.215256,100.993057 108.215256,94.750298 
	C107.672447,94.501236 107.129631,94.252174 106.586823,94.003113 
	C105.790253,95.230408 104.338264,96.439774 104.304108,97.687935 
	C104.091499,105.456268 104.252747,113.233917 104.168510,121.007156 
	C104.134796,124.117798 105.344383,124.744064 108.215195,123.454399 
	C108.215195,120.395775 108.215195,117.431190 108.215256,113.478584 
M64.437386,109.701279 
	C64.434990,108.045227 64.821709,106.256516 64.315674,104.772163 
	C63.852737,103.414238 62.424591,102.385368 61.421783,101.211494 
	C60.278042,108.504280 60.365936,114.775688 60.241875,121.042900 
	C60.177479,124.296051 61.608398,124.629311 64.437080,123.532448 
	C64.437080,119.231430 64.437080,114.939117 64.437386,109.701279 
M31.997910,113.480522 
	C31.997910,109.712288 31.997910,105.944054 31.997910,102.188393 
	C29.038162,101.052185 27.863142,101.831444 27.977156,104.895599 
	C28.203260,110.972321 28.230064,117.056389 28.359154,123.137001 
	C28.364195,123.374397 28.574585,123.607437 28.770716,124.009369 
	C29.768166,123.953613 30.812323,123.895256 31.997910,123.828987 
	C31.997910,120.406487 31.997910,117.433235 31.997910,113.480522 
z"/>
<path fill="#E30C17" opacity="1.000000" stroke="none" 
	d="
M269.562500,0.999999 
	C271.826996,2.773523 274.038757,4.294245 275.403442,6.371498 
	C278.555969,11.170053 276.951263,17.621214 272.180298,20.875462 
	C267.921112,23.780636 261.643341,22.685526 258.330811,18.459518 
	C254.451660,13.510626 256.684601,5.421193 262.976837,1.356014 
	C265.041656,1.000000 267.083344,1.000000 269.562500,0.999999 
z"/>
<path fill="#094A7C" opacity="1.000000" stroke="none" 
	d="
M51.089043,102.230202 
	C51.522045,101.912666 51.955051,101.595139 52.708679,101.542664 
	C53.503994,102.232628 53.978680,102.657524 54.453365,103.082428 
	C54.440220,109.796783 54.427071,116.511139 54.005558,123.846405 
	C53.429501,125.371170 53.261803,126.275024 53.094105,127.178886 
	C51.487244,128.244354 49.880383,129.309845 48.136757,130.687653 
	C45.629444,131.000000 43.258884,131.000000 40.444168,131.000000 
	C39.404018,130.249191 38.808029,129.498398 38.307121,128.867371 
	C42.147526,127.753273 45.958214,126.647789 50.231804,125.056610 
	C50.735100,124.199860 50.775486,123.828812 50.815872,123.457756 
	C50.617599,123.227982 50.568802,122.969940 50.819595,122.022415 
	C50.872063,120.401398 50.774410,119.441605 50.678333,118.057472 
	C50.383278,113.543549 50.086647,109.453964 49.918465,105.044540 
	C50.394283,103.893204 50.741665,103.061699 51.089043,102.230202 
z"/>
<path fill="#E30915" opacity="1.000000" stroke="none" 
	d="
M232.109467,35.024624 
	C232.315781,34.191208 232.522110,33.357788 233.287582,32.221478 
	C236.610992,30.592106 239.350922,28.180471 242.143478,28.117924 
	C258.427002,27.753218 274.723022,27.899914 291.014465,27.964981 
	C295.601166,27.983301 298.469727,30.723822 299.782501,34.838024 
	C301.511780,40.257687 300.036774,42.055641 294.363983,42.059608 
	C280.067200,42.069607 265.769897,42.012188 251.474365,42.146168 
	C250.075104,42.159283 248.686523,43.311459 247.292999,43.934921 
	C247.899628,45.269176 248.506256,46.603424 249.112869,47.937675 
	C249.112869,47.937675 249.078415,48.009548 249.331238,48.298470 
	C264.348328,48.725636 279.117828,49.137177 293.874115,48.856129 
	C299.145782,48.755726 300.286652,50.427654 300.126404,55.319927 
	C299.912262,61.858200 300.611481,68.426384 300.918457,74.981728 
	C300.319366,79.281189 297.470978,81.518745 293.004822,82.605431 
	C275.482605,82.229195 258.628571,82.125046 241.774368,82.072510 
	C241.193985,82.070702 240.612000,82.585533 240.030762,82.859558 
	C235.823532,82.190788 233.453995,79.492493 232.373245,75.029099 
	C232.903595,72.446869 233.157852,70.511368 233.487473,68.002136 
	C235.430283,68.002136 237.215240,68.002136 239.000214,68.002129 
	C252.488022,68.002106 265.976410,68.059433 279.462799,67.922096 
	C280.975800,67.906693 282.477570,66.788902 283.984528,66.182327 
	C284.180023,64.879868 284.375549,63.577412 283.962708,61.807755 
	C268.769501,61.226322 254.184677,61.098003 239.599640,61.004223 
	C233.005722,60.961823 233.120163,60.990425 232.968719,54.181423 
	C232.826660,47.792614 232.406982,41.409977 232.109467,35.024624 
z"/>
<path fill="#024A7C" opacity="1.000000" stroke="none" 
	d="
M50.065018,26.446451 
	C57.056026,26.381222 64.047035,26.315994 71.582199,26.664751 
	C73.096786,27.018917 74.067230,26.959097 75.037666,26.899279 
	C83.532433,28.095829 87.919228,31.687096 89.696777,38.899967 
	C91.775978,47.336926 89.196922,53.180599 80.441223,59.600803 
	C83.389198,65.488602 86.371414,71.402740 89.314880,77.336105 
	C91.930809,82.609238 91.445351,82.846123 85.899498,83.504509 
	C78.458221,84.387894 74.054024,81.774803 71.764343,74.598846 
	C70.514130,70.680595 68.086014,67.153664 66.491325,63.324394 
	C65.430038,60.775959 63.938370,59.574600 60.433815,60.311562 
	C59.451263,66.104813 58.806396,71.736572 59.120857,77.314247 
	C59.433678,82.862953 56.008183,81.909760 52.719475,82.043594 
	C49.227543,82.185699 46.774189,82.132256 46.885380,77.253777 
	C47.204105,63.269680 47.027267,49.273472 46.959854,35.282436 
	C46.951393,33.526649 46.430866,31.773331 46.147594,30.018867 
	C45.993698,29.716829 45.998161,29.417147 46.649719,28.925716 
	C48.113983,27.969891 49.089500,27.208172 50.065018,26.446451 
M75.834076,45.071674 
	C75.773384,38.251457 71.341583,36.406960 60.124432,38.759438 
	C60.124432,41.309258 59.898911,43.967613 60.227676,46.555561 
	C60.373425,47.702862 61.880604,49.730843 62.360016,49.618011 
	C66.815796,48.569309 71.182251,47.141117 75.834076,45.071674 
z"/>
<path fill="#064B7C" opacity="1.000000" stroke="none" 
	d="
M116.079758,71.830688 
	C121.230843,68.636292 121.168091,65.936417 115.770149,63.012058 
	C111.253510,60.565140 106.414154,58.628231 102.163544,55.796284 
	C95.999985,51.689846 94.134514,45.399540 95.267395,38.271740 
	C96.306442,31.734249 100.524368,27.510328 106.803909,26.830807 
	C113.475655,26.108843 120.361519,26.391336 127.050705,27.147665 
	C131.502975,27.651073 132.210297,30.120796 131.755280,38.077568 
	C126.693199,38.077568 121.566269,37.815735 116.488197,38.199905 
	C114.301643,38.365326 112.216354,39.869259 110.085060,40.765102 
	C111.678581,42.606754 112.955826,44.963326 114.934166,46.178448 
	C118.588936,48.423248 122.799713,49.749329 126.516953,51.908939 
	C132.916702,55.627003 135.958786,62.605370 134.743042,69.763153 
	C133.478027,77.211205 129.256805,82.054573 121.241974,83.028755 
	C114.746857,83.818214 108.027458,83.384102 101.477425,82.759575 
	C99.214081,82.543785 97.161201,80.120499 95.314743,78.073395 
	C95.590919,73.543198 97.777962,72.886459 101.253586,72.897568 
	C106.194458,72.913361 111.137589,72.220673 116.079758,71.830688 
z"/>
<path fill="#084C7D" opacity="1.000000" stroke="none" 
	d="
M6.000954,82.961731 
	C5.028320,81.276161 3.228637,79.598579 3.212249,77.903763 
	C3.064392,62.613106 3.267345,47.319450 3.277244,32.026619 
	C3.279984,27.793427 5.256633,26.078365 9.398622,26.119444 
	C19.200006,26.216646 29.003010,26.150675 39.661373,26.150675 
	C39.661373,28.376839 39.668732,30.447777 39.659782,32.518642 
	C39.643082,36.381954 37.924152,38.291119 33.835426,38.140945 
	C28.706804,37.952576 23.566008,38.095608 17.816599,38.095608 
	C17.816599,41.504066 17.816599,44.736172 18.180843,48.745926 
	C22.344128,49.685585 26.148247,50.046349 29.940672,49.949440 
	C33.231247,49.865360 35.182846,50.218979 35.139339,54.405949 
	C35.098824,58.305439 33.702320,59.150723 30.138725,59.098068 
	C26.104177,59.038460 22.058653,59.721661 18.017902,60.081875 
	C18.017902,64.137497 18.017902,68.193123 18.017902,72.692261 
	C25.412579,72.692261 32.421200,72.692261 40.250942,72.692261 
	C39.828999,76.020103 39.471497,78.839676 38.297989,81.850967 
	C29.040922,82.026596 20.599195,81.948250 12.159288,82.039131 
	C10.103437,82.061264 8.053573,82.639297 6.000954,82.961731 
z"/>
<path fill="#084C7D" opacity="1.000000" stroke="none" 
	d="
M215.202133,34.559273 
	C215.202133,34.559273 215.308380,34.801521 214.972809,35.041782 
	C214.589355,35.634632 214.541489,35.987221 214.493622,36.339809 
	C214.493607,36.339809 214.412888,36.345829 214.105026,36.407990 
	C213.612732,36.817955 213.428314,37.165764 213.243881,37.513573 
	C206.836182,37.810890 200.428482,38.108204 193.810486,38.415276 
	C193.810486,41.701611 193.810486,44.810738 193.810486,48.519356 
	C199.966965,48.519356 206.020508,48.519356 212.326996,48.519356 
	C212.326996,52.546982 212.326996,55.980724 212.326996,60.017754 
	C206.307861,60.017754 200.264069,60.017754 194.564575,60.017754 
	C194.064285,60.882656 193.784607,61.148872 193.763214,61.434441 
	C192.881195,73.206879 195.761871,75.386330 208.281937,72.583824 
	C210.616348,72.061287 213.026276,71.876099 216.216171,71.418274 
	C215.880478,75.265678 215.613312,78.327721 214.575775,81.684921 
	C202.797882,82.042862 191.790344,82.105629 180.782822,82.168404 
	C180.782822,82.168404 180.916519,82.117790 180.925262,81.688263 
	C180.956375,65.203072 181.004868,49.147320 180.954605,33.091877 
	C180.950302,31.715750 180.290268,30.341677 179.934845,28.966644 
	C181.978210,28.027290 183.997574,26.344149 186.069092,26.277313 
	C195.048248,25.987608 204.042618,26.169821 213.579742,26.645977 
	C214.486069,29.594101 214.844101,32.076687 215.202133,34.559273 
z"/>
<path fill="#0F5080" opacity="1.000000" stroke="none" 
	d="
M142.395676,26.131601 
	C153.307983,26.129051 163.763916,26.129051 174.135727,26.129051 
	C175.883316,36.452244 175.333771,37.042717 162.571121,38.563850 
	C162.571121,53.370537 162.571121,68.257469 162.571121,83.409866 
	C157.613724,83.409866 153.212341,83.409866 148.374802,83.409866 
	C148.374802,68.443260 148.374802,53.686134 148.374802,38.417648 
	C144.228729,38.417648 140.496475,38.417648 136.898132,38.417648 
	C134.600021,29.569046 135.683517,27.105415 142.395676,26.131601 
z"/>
<path fill="#155181" opacity="1.000000" stroke="none" 
	d="
M4.917256,95.679382 
	C8.506395,95.563332 12.095483,95.445595 15.684843,95.336823 
	C15.844550,95.331985 16.006525,95.409706 16.167789,95.447487 
	C22.244087,96.871109 24.721638,102.288971 24.044619,112.672684 
	C23.606014,119.399727 20.220209,123.579132 14.466469,123.961113 
	C11.194474,124.178352 7.882531,123.793839 4.656460,123.001816 
	C4.788647,113.442009 4.852952,104.560692 4.917256,95.679382 
M19.587591,105.339729 
	C17.563225,98.940086 16.588585,98.431770 8.156500,99.490181 
	C8.156500,106.356216 8.156500,113.241447 8.156500,120.098709 
	C17.636375,120.769386 19.838686,118.744240 19.820646,109.666672 
	C19.818333,108.502182 19.728100,107.337868 19.587591,105.339729 
z"/>
<path fill="#E5292B" opacity="1.000000" stroke="none" 
	d="
M248.819824,47.540321 
	C248.506256,46.603424 247.899628,45.269176 247.292999,43.934921 
	C248.686523,43.311459 250.075104,42.159283 251.474365,42.146168 
	C265.769897,42.012188 280.067200,42.069607 294.363983,42.059608 
	C300.036774,42.055641 301.511780,40.257687 299.782501,34.838024 
	C298.469727,30.723822 295.601166,27.983301 291.014465,27.964981 
	C274.723022,27.899914 258.427002,27.753218 242.143478,28.117924 
	C239.350922,28.180471 236.610992,30.592106 233.500916,31.970993 
	C235.112396,27.614645 238.937790,26.164444 243.294846,26.133751 
	C258.793945,26.024565 274.296356,25.938822 289.793365,26.149038 
	C299.057190,26.274702 303.194153,32.920967 300.958252,43.806759 
	C288.079224,43.806759 275.121307,43.813301 262.163422,43.802429 
	C258.664032,43.799492 255.162018,43.816742 251.666245,43.687885 
	C249.126678,43.594280 247.748520,44.330307 248.819824,47.540321 
z"/>
<path fill="#194F80" opacity="1.000000" stroke="none" 
	d="
M81.970230,118.861755 
	C82.452774,110.403297 89.312691,111.919846 94.476410,110.265541 
	C95.379341,106.608063 94.026375,104.920876 90.061806,105.011711 
	C87.741699,105.064873 85.413574,104.768204 83.102882,103.882904 
	C86.886787,101.000626 91.308777,101.258476 94.951050,102.539467 
	C96.820419,103.196915 98.209045,107.172188 98.543533,109.809349 
	C99.119919,114.353615 98.703133,119.023842 98.703133,123.076172 
	C95.096230,123.466911 92.007668,123.838974 88.911293,124.127213 
	C85.256119,124.467476 82.839493,122.970795 81.970230,118.861755 
M93.392960,113.133736 
	C91.949066,113.375237 90.159393,113.174950 89.146790,113.967499 
	C87.811913,115.012306 87.087143,116.836632 86.100067,118.325821 
	C87.806580,119.191681 89.635689,120.964363 91.196617,120.753334 
	C95.877533,120.120514 95.423645,116.748215 93.392960,113.133736 
z"/>
<path fill="#195382" opacity="1.000000" stroke="none" 
	d="
M74.796593,116.676331 
	C75.938889,118.789680 77.080635,120.442978 78.819633,122.961128 
	C78.038322,123.174797 76.063866,124.402176 74.789185,123.889542 
	C73.191147,123.246872 71.262100,121.286354 71.070190,119.701576 
	C70.555618,115.452126 70.937576,111.098839 70.851433,106.789032 
	C70.832909,105.862183 70.342743,104.944763 69.725471,102.859863 
	C70.491890,101.552925 71.930023,99.100563 73.269318,96.816727 
	C74.925430,99.021614 76.375542,100.952240 78.007278,103.124672 
	C72.048019,105.720932 75.623161,111.546043 74.796593,116.676331 
z"/>
<path fill="#1D5382" opacity="1.000000" stroke="none" 
	d="
M50.676758,118.481812 
	C50.774410,119.441605 50.872063,120.401398 50.918755,121.843094 
	C50.256767,122.226921 49.567680,121.893341 49.046429,122.066116 
	C41.226475,124.658188 37.496273,122.191063 37.009922,114.038239 
	C36.494480,105.397766 38.608608,102.046486 45.620651,101.487152 
	C46.014854,102.694366 46.016064,103.426056 45.676163,104.254715 
	C41.186794,106.768806 39.456398,112.993263 41.899967,117.547249 
	C44.268188,121.960808 47.523701,120.257317 50.676758,118.481812 
z"/>
<path fill="#1C5382" opacity="1.000000" stroke="none" 
	d="
M108.215225,113.972595 
	C108.215195,117.431190 108.215195,120.395775 108.215195,123.454399 
	C105.344383,124.744064 104.134796,124.117798 104.168510,121.007156 
	C104.252747,113.233917 104.091499,105.456268 104.304108,97.687935 
	C104.338264,96.439774 105.790253,95.230408 106.586823,94.003113 
	C107.129631,94.252174 107.672447,94.501236 108.215256,94.750298 
	C108.215256,100.993057 108.215256,107.235825 108.215225,113.972595 
z"/>
<path fill="#1A5583" opacity="1.000000" stroke="none" 
	d="
M64.437233,110.174042 
	C64.437080,114.939117 64.437080,119.231430 64.437080,123.532448 
	C61.608398,124.629311 60.177479,124.296051 60.241875,121.042900 
	C60.365936,114.775688 60.278042,108.504280 61.421783,101.211494 
	C62.424591,102.385368 63.852737,103.414238 64.315674,104.772163 
	C64.821709,106.256516 64.434990,108.045227 64.437233,110.174042 
z"/>
<path fill="#E10000" opacity="1.000000" stroke="none" 
	d="
M283.522278,66.106613 
	C282.477570,66.788902 280.975800,67.906693 279.462799,67.922096 
	C265.976410,68.059433 252.488022,68.002106 239.000214,68.002129 
	C237.215240,68.002136 235.430283,68.002136 233.487473,68.002136 
	C233.157852,70.511368 232.903595,72.446869 232.384415,74.674194 
	C231.978409,72.595360 231.837326,70.224709 232.045929,67.360420 
	C232.675583,66.725281 232.873688,66.508842 232.989899,66.217468 
	C249.679947,66.155273 266.369995,66.093086 283.522278,66.106613 
z"/>
<path fill="#104178" opacity="1.000000" stroke="none" 
	d="
M46.066986,30.480156 
	C46.430866,31.773331 46.951393,33.526649 46.959854,35.282436 
	C47.027267,49.273472 47.204105,63.269680 46.885380,77.253777 
	C46.774189,82.132256 49.227543,82.185699 52.719475,82.043594 
	C56.008183,81.909760 59.433678,82.862953 59.120857,77.314247 
	C58.806396,71.736572 59.451263,66.104813 60.057915,60.303104 
	C60.440086,67.730484 60.440086,75.351524 60.440086,83.315956 
	C55.404289,83.315956 50.881039,83.315956 45.986378,83.315956 
	C45.986378,65.739075 45.986378,48.340263 46.066986,30.480156 
z"/>
<path fill="#004478" opacity="1.000000" stroke="none" 
	d="
M31.997910,113.970253 
	C31.997910,117.433235 31.997910,120.406487 31.997910,123.828987 
	C30.812323,123.895256 29.768166,123.953613 28.770716,124.009369 
	C28.574585,123.607437 28.364195,123.374397 28.359154,123.137001 
	C28.230064,117.056389 28.203260,110.972321 27.977156,104.895599 
	C27.863142,101.831444 29.038162,101.052185 31.997910,102.188393 
	C31.997910,105.944054 31.997910,109.712288 31.997910,113.970253 
z"/>
<path fill="#E10000" opacity="1.000000" stroke="none" 
	d="
M301.054199,74.530624 
	C300.611481,68.426384 299.912262,61.858200 300.126404,55.319927 
	C300.286652,50.427654 299.145782,48.755726 293.874115,48.856129 
	C279.117828,49.137177 264.348328,48.725636 249.293106,48.286888 
	C266.344299,47.986385 283.686432,47.986385 301.189911,47.986385 
	C301.189911,56.943031 301.189911,65.511269 301.054199,74.530624 
z"/>
<path fill="#E10000" opacity="1.000000" stroke="none" 
	d="
M231.958633,35.470657 
	C232.406982,41.409977 232.826660,47.792614 232.968719,54.181423 
	C233.120163,60.990425 233.005722,60.961823 239.599640,61.004223 
	C254.184677,61.098003 268.769501,61.226322 283.663574,61.614861 
	C266.717377,61.889172 249.462021,61.889172 231.807800,61.889172 
	C231.807800,53.067039 231.807800,44.491863 231.958633,35.470657 
z"/>
<path fill="#073B74" opacity="1.000000" stroke="none" 
	d="
M179.738525,29.316294 
	C180.290268,30.341677 180.950302,31.715750 180.954605,33.091877 
	C181.004868,49.147320 180.956375,65.203072 180.879883,81.743500 
	C180.352875,81.300507 179.879959,80.372765 179.659271,78.772842 
	C179.789093,73.453377 179.666718,68.806091 179.544342,64.158798 
	C179.466568,62.341576 179.388779,60.524357 179.603134,57.913467 
	C179.777100,50.466511 179.658905,43.813225 179.540726,37.159935 
	C179.541214,34.661938 179.541718,32.163937 179.738525,29.316294 
z"/>
<path fill="#073B74" opacity="1.000000" stroke="none" 
	d="
M180.993774,82.503448 
	C191.790344,82.105629 202.797882,82.042862 214.254089,81.954208 
	C213.904617,82.449074 213.101471,83.429573 212.309082,83.420975 
	C201.940079,83.308334 191.572601,83.055840 180.993774,82.503448 
z"/>
<path fill="#E10000" opacity="1.000000" stroke="none" 
	d="
M240.480499,82.994965 
	C240.612000,82.585533 241.193985,82.070702 241.774368,82.072510 
	C258.628571,82.125046 275.482605,82.229195 292.649475,82.592957 
	C275.618286,82.950684 258.274261,83.040520 240.480499,82.994965 
z"/>
<path fill="#00336F" opacity="1.000000" stroke="none" 
	d="
M18.485031,60.094486 
	C22.058653,59.721661 26.104177,59.038460 30.138725,59.098068 
	C33.702320,59.150723 35.098824,58.305439 35.139339,54.405949 
	C35.182846,50.218979 33.231247,49.865360 29.940672,49.949440 
	C26.148247,50.046349 22.344128,49.685585 18.284683,49.192680 
	C23.954226,48.861790 29.884169,48.861790 36.054604,48.861790 
	C36.054604,52.607006 36.054604,56.028454 36.054604,60.107098 
	C30.427547,60.107098 24.689854,60.107098 18.485031,60.094486 
z"/>
<path fill="#043772" opacity="1.000000" stroke="none" 
	d="
M6.451334,83.104767 
	C8.053573,82.639297 10.103437,82.061264 12.159288,82.039131 
	C20.599195,81.948250 29.040922,82.026596 37.985191,82.072189 
	C37.333504,82.550751 36.180271,83.383240 35.023434,83.388275 
	C25.649908,83.429153 16.275709,83.314819 6.451334,83.104767 
z"/>
<path fill="#002D6C" opacity="1.000000" stroke="none" 
	d="
M4.525968,95.916679 
	C4.852952,104.560692 4.788647,113.442009 4.456369,122.635353 
	C4.170491,114.016251 4.152586,105.085114 4.525968,95.916679 
z"/>
<path fill="#00326F" opacity="1.000000" stroke="none" 
	d="
M115.605347,71.796288 
	C111.137589,72.220673 106.194458,72.913361 101.253586,72.897568 
	C97.777962,72.886459 95.590919,73.543198 95.343216,77.713615 
	C94.977386,76.168991 94.885620,74.351990 94.754807,71.761887 
	C101.675064,71.761887 108.403000,71.761887 115.605347,71.796288 
z"/>
<path fill="#084C7D" opacity="1.000000" stroke="none" 
	d="
M179.403229,37.596626 
	C179.658905,43.813225 179.777100,50.466511 179.719406,57.471535 
	C179.450928,51.226620 179.358322,44.629971 179.403229,37.596626 
z"/>
<path fill="#084C7D" opacity="1.000000" stroke="none" 
	d="
M179.405487,64.592598 
	C179.666718,68.806091 179.789093,73.453377 179.748718,78.454102 
	C179.479507,74.213829 179.373062,69.620110 179.405487,64.592598 
z"/>
<path fill="#345F8B" opacity="1.000000" stroke="none" 
	d="
M46.017269,104.157761 
	C46.016064,103.426056 46.014854,102.694366 45.995514,101.596909 
	C47.442574,101.688797 48.907768,102.146439 50.731007,102.417145 
	C50.741665,103.061699 50.394283,103.893204 49.593750,104.981522 
	C48.099483,104.878143 47.058376,104.517952 46.017269,104.157761 
z"/>
<path fill="#2A5B87" opacity="1.000000" stroke="none" 
	d="
M215.402008,34.184631 
	C214.844101,32.076687 214.486069,29.594101 214.037781,26.730350 
	C214.498993,28.836121 215.050446,31.323057 215.402008,34.184631 
z"/>
<path fill="#285986" opacity="1.000000" stroke="none" 
	d="
M74.754044,26.739323 
	C74.067230,26.959097 73.096786,27.018917 72.027802,26.799652 
	C72.776314,26.540169 73.623360,26.559769 74.754044,26.739323 
z"/>
<path fill="#285986" opacity="1.000000" stroke="none" 
	d="
M49.737427,26.393490 
	C49.089500,27.208172 48.113983,27.969891 46.809265,28.756590 
	C47.456654,27.967888 48.433247,27.154207 49.737427,26.393490 
z"/>
<path fill="#345F8B" opacity="1.000000" stroke="none" 
	d="
M54.566120,102.785614 
	C53.978680,102.657524 53.503994,102.232628 52.985817,101.561279 
	C53.521179,101.706161 54.100025,102.097473 54.566120,102.785614 
z"/>
<path fill="#345F8B" opacity="1.000000" stroke="none" 
	d="
M53.363708,126.949318 
	C53.261803,126.275024 53.429501,125.371170 53.855732,124.230728 
	C53.953949,124.902679 53.793633,125.811218 53.363708,126.949318 
z"/>
<path fill="#2A5B87" opacity="1.000000" stroke="none" 
	d="
M214.710159,36.178188 
	C214.541489,35.987221 214.589355,35.634632 214.882492,35.138409 
	C215.060730,35.335373 214.993713,35.675968 214.710159,36.178188 
z"/>
<path fill="#2A5B87" opacity="1.000000" stroke="none" 
	d="
M213.509857,37.416958 
	C213.428314,37.165764 213.612732,36.817955 214.109375,36.448227 
	C214.206345,36.724319 213.991089,37.022331 213.509857,37.416958 
z"/>
<path fill="#E30915" opacity="1.000000" stroke="none" 
	d="
M232.703339,66.136337 
	C232.873688,66.508842 232.675583,66.725281 232.181488,66.932800 
	C232.117157,66.684288 232.266968,66.369743 232.703339,66.136337 
z"/>
<path fill="#1D5382" opacity="1.000000" stroke="none" 
	d="
M50.633942,123.667793 
	C50.775486,123.828812 50.735100,124.199860 50.490288,124.767685 
	C50.341240,124.602249 50.396626,124.240036 50.633942,123.667793 
z"/>
<path fill="#ECEFF3" opacity="1.000000" stroke="none" 
	d="
M45.676159,104.254715 
	C47.058376,104.517952 48.099483,104.878143 49.465305,105.301361 
	C50.086647,109.453964 50.383278,113.543549 50.678337,118.057472 
	C47.523701,120.257317 44.268188,121.960808 41.899967,117.547249 
	C39.456398,112.993263 41.186794,106.768806 45.676159,104.254715 
z"/>
<path fill="#EFF2F5" opacity="1.000000" stroke="none" 
	d="
M75.704346,45.447334 
	C71.182251,47.141117 66.815796,48.569309 62.360016,49.618011 
	C61.880604,49.730843 60.373425,47.702862 60.227676,46.555561 
	C59.898911,43.967613 60.124432,41.309258 60.124432,38.759438 
	C71.341583,36.406960 75.773384,38.251457 75.704346,45.447334 
z"/>
<path fill="#F9FAFB" opacity="1.000000" stroke="none" 
	d="
M19.633091,105.756607 
	C19.728100,107.337868 19.818333,108.502182 19.820646,109.666672 
	C19.838686,118.744240 17.636375,120.769386 8.156500,120.098709 
	C8.156500,113.241447 8.156500,106.356216 8.156500,99.490181 
	C16.588585,98.431770 17.563225,98.940086 19.633091,105.756607 
z"/>
<path fill="#E9EDF2" opacity="1.000000" stroke="none" 
	d="
M93.784805,113.243149 
	C95.423645,116.748215 95.877533,120.120514 91.196617,120.753334 
	C89.635689,120.964363 87.806580,119.191681 86.100067,118.325821 
	C87.087143,116.836632 87.811913,115.012306 89.146790,113.967499 
	C90.159393,113.174950 91.949066,113.375237 93.784805,113.243149 
z"/>
</svg>