<?xml version="1.0" standalone="no"?>
<!DOCTYPE svg PUBLIC "-//W3C//DTD SVG 20010904//EN"
 "http://www.w3.org/TR/2001/REC-SVG-20010904/DTD/svg10.dtd">
<svg version="1.0" xmlns="http://www.w3.org/2000/svg"
 width="303.000000pt" height="130.000000pt" viewBox="0 0 303.000000 130.000000"
 preserveAspectRatio="xMidYMid meet">

<g transform="translate(0.000000,130.000000) scale(0.100000,-0.100000)"
fill="#000000" stroke="none">
<path d="M2604 1281 c-36 -22 -59 -78 -49 -113 4 -13 19 -35 33 -50 52 -56
150 -26 167 52 9 40 -17 96 -54 114 -39 21 -59 20 -97 -3z"/>
<path d="M44 1036 c-18 -13 -19 -30 -22 -264 -2 -171 0 -257 8 -271 10 -20 19
-21 173 -21 114 0 167 4 175 12 7 7 12 31 12 55 l0 42 -112 3 -113 3 0 55 0
55 93 3 92 3 0 54 0 54 -92 3 -93 3 0 50 0 50 94 3 c52 1 101 8 108 14 7 6 13
31 13 59 l0 49 -158 0 c-121 0 -163 -3 -178 -14z"/>
<path d="M480 1043 c-8 -3 -18 -11 -22 -17 -4 -6 -8 -131 -8 -278 l0 -266 70
-4 70 -3 0 118 0 117 25 0 c22 0 32 -13 80 -115 l55 -115 80 0 80 0 -60 120
-60 120 30 15 c64 33 88 139 50 223 -30 66 -81 85 -245 89 -71 1 -137 0 -145
-4z m254 -129 c9 -8 16 -26 16 -39 0 -36 -36 -55 -102 -55 l-58 0 0 55 0 55
64 0 c45 0 69 -5 80 -16z"/>
<path d="M1045 1037 c-57 -23 -73 -37 -90 -81 -38 -100 5 -181 129 -243 83
-41 106 -59 106 -84 0 -30 -33 -39 -144 -39 l-106 0 0 -32 c0 -46 10 -57 65
-73 62 -19 148 -19 212 0 92 27 138 111 114 203 -17 62 -46 89 -147 137 -80
38 -94 49 -94 69 0 32 15 36 126 36 l94 0 0 31 c0 45 -16 67 -58 79 -49 13
-169 12 -207 -3z"/>
<path d="M1380 1043 c-23 -9 -30 -24 -30 -70 l0 -43 60 0 60 0 0 -225 0 -225
70 0 70 0 0 225 0 225 48 0 c65 0 76 9 76 67 l1 48 -170 2 c-93 1 -177 -1
-185 -4z"/>
<path d="M1805 1036 c-18 -13 -20 -31 -23 -258 -3 -157 0 -253 7 -270 l11 -28
163 0 c113 0 167 4 175 12 7 7 12 31 12 55 l0 42 -112 3 -113 3 0 55 0 55 93
3 92 3 0 54 0 54 -92 3 -93 3 -3 53 -3 52 98 0 c64 0 103 4 111 12 7 7 12 34
12 60 l0 48 -158 0 c-120 0 -163 -3 -177 -14z"/>
<path d="M2384 1039 c-62 -18 -69 -35 -72 -200 l-3 -149 265 0 c259 0 266 -1
266 -20 0 -19 -7 -20 -265 -20 l-265 0 0 -45 c0 -56 20 -97 55 -113 41 -19
547 -17 584 2 43 23 51 54 51 201 l0 135 -266 0 -265 0 3 23 3 22 263 -2 262
-2 0 53 c0 65 -24 101 -78 116 -45 12 -494 12 -538 -1z"/>
<path d="M38 354 c-5 -4 -8 -70 -8 -146 l0 -138 58 0 c71 0 102 15 124 60 32
62 18 173 -25 209 -19 15 -138 27 -149 15z m126 -50 c22 -22 29 -57 24 -115
-6 -61 -22 -79 -77 -86 l-41 -6 0 112 0 111 39 0 c23 0 46 -7 55 -16z"/>
<path d="M280 340 c0 -11 7 -20 15 -20 8 0 15 9 15 20 0 11 -7 20 -15 20 -8 0
-15 -9 -15 -20z"/>
<path d="M597 353 c-14 -13 -6 -33 13 -33 13 0 20 7 20 20 0 19 -20 27 -33 13z"/>
<path d="M1037 353 c-4 -3 -7 -69 -7 -145 0 -131 1 -138 20 -138 19 0 20 7 20
145 0 114 -3 145 -13 145 -8 0 -17 -3 -20 -7z"/>
<path d="M708 315 c-6 -14 -17 -25 -25 -25 -7 0 -13 -4 -13 -10 0 -5 7 -10 15
-10 12 0 15 -16 15 -88 0 -55 4 -92 12 -100 18 -18 68 -15 68 3 0 8 -9 15 -20
15 -18 0 -20 7 -20 75 0 41 -1 78 -2 83 -2 4 7 8 20 10 27 4 29 22 2 22 -15 0
-20 7 -20 25 0 14 -5 25 -10 25 -6 0 -16 -11 -22 -25z"/>
<path d="M404 290 c-45 -18 -58 -147 -19 -190 19 -21 79 -28 90 -10 10 16 25
11 25 -8 0 -32 -33 -52 -86 -52 -46 -1 -48 -2 -29 -16 26 -20 98 -13 125 11
18 16 20 32 20 147 0 70 -4 128 -8 128 -4 0 -13 -5 -19 -11 -8 -8 -17 -8 -31
0 -24 13 -39 13 -68 1z m77 -30 c16 -9 19 -22 19 -74 0 -62 -1 -64 -30 -75
-44 -15 -70 13 -70 76 0 69 33 98 81 73z"/>
<path d="M855 293 c-41 -10 -39 -23 4 -23 55 0 81 -14 81 -45 0 -20 -5 -25
-24 -25 -84 0 -137 -69 -88 -113 22 -20 73 -22 90 -5 9 9 15 9 24 0 24 -24 28
-11 28 82 0 95 -11 126 -43 126 -7 0 -21 2 -32 4 -11 2 -29 2 -40 -1z m85
-148 c0 -28 -4 -36 -24 -41 -39 -9 -61 -1 -64 26 -5 29 21 50 60 50 25 0 28
-3 28 -35z"/>
<path d="M280 180 c0 -91 3 -110 15 -110 12 0 15 19 15 110 0 91 -3 110 -15
110 -12 0 -15 -19 -15 -110z"/>
<path d="M591 180 c3 -98 5 -110 21 -110 16 0 18 11 18 110 0 105 -1 110 -21
110 -20 0 -20 -4 -18 -110z"/>
</g>
</svg>
