<?xml version="1.0" encoding="UTF-8"?>
<svg id="FEI" xmlns="http://www.w3.org/2000/svg" viewBox="0 0 861.02 276.38">
  <defs>
    <style>
      .cls-1 {
        fill: none;
      }

      .cls-2 {
        fill: #1d1d1b;
      }
    </style>
  </defs>
  <rect class="cls-1" x="0" width="861.02" height="276.38"/>
  <g>
    <path class="cls-2" d="M205.51,70.87H70.86v88.58c0,25.4,20.66,46.06,46.06,46.06h42.52c25.4,0,46.06-20.66,46.06-46.06V70.87Zm-127.56,7.09h120.47v35.43h-42.52v42.52h-35.43v-42.52h-42.52v-35.43Zm120.47,81.5c0,21.49-17.48,38.98-38.98,38.98h-42.52c-21.49,0-38.98-17.48-38.98-38.98v-38.98h35.43v42.52h49.61v-42.52h35.43v38.98Z"/>
    <g>
      <path class="cls-2" d="M267.42,112.68h-16.5v14.88h-5.87v-35.44h23.49v5.11h-17.62v10.38h16.5v5.06Z"/>
      <path class="cls-2" d="M289.44,127.56l-.25-2.94c-1.38,2.33-4.17,3.49-8.35,3.49-3.17,0-5.48-.73-6.91-2.2-1.44-1.47-2.15-3.43-2.15-5.9,0-5.43,3.24-8.15,9.72-8.15h7.34v-2.03c0-3.58-1.82-5.37-5.47-5.37-1.79,0-3.16,.35-4.13,1.04-.96,.69-1.44,1.59-1.44,2.71v.41h-5.26v-.41c0-2.36,.92-4.31,2.76-5.85,1.84-1.54,4.58-2.3,8.23-2.3,7.26,0,10.88,3.32,10.88,9.97v17.52h-4.96Zm-7.09-3.8c2.19,0,3.82-.52,4.89-1.57,1.06-1.05,1.59-2.46,1.59-4.25v-1.97h-6.48c-3.27,0-4.91,1.28-4.91,3.85s1.64,3.95,4.91,3.95Z"/>
      <path class="cls-2" d="M306.81,119.86v7.7h-5.57v-36.96h5.57v22.01l10.78-11.99h6.63l-10.24,11.32,10.9,15.62h-6.58l-8-11.55-3.49,3.86Z"/>
      <path class="cls-2" d="M346.35,127.56l-.3-3.54c-1.65,2.73-4.4,4.1-8.25,4.1-2.94,0-5.25-.89-6.94-2.66-1.69-1.77-2.53-4.09-2.53-6.96v-17.87h5.57v16.55c0,3.98,1.87,5.97,5.62,5.97,4.12,0,6.18-2.38,6.18-7.14v-15.39h5.62v26.93h-4.96Z"/>
      <path class="cls-2" d="M364.06,127.56h-5.62v-36.96h5.62v36.96Z"/>
      <path class="cls-2" d="M385.78,122.9v4.66h-3.49c-3.71,0-6.27-.75-7.67-2.25-1.4-1.5-2.1-3.64-2.1-6.4v-13.87h-3.7v-4.3h3.7v-6.88h5.62v6.88h6.94v4.3h-6.94v13.52c0,1.52,.36,2.62,1.09,3.32,.73,.69,2.03,1.04,3.92,1.04h2.63Z"/>
      <path class="cls-2" d="M406.74,127.56l-.25-2.94c-1.38,2.33-4.17,3.49-8.35,3.49-3.17,0-5.48-.73-6.91-2.2-1.44-1.47-2.15-3.43-2.15-5.9,0-5.43,3.24-8.15,9.72-8.15h7.34v-2.03c0-3.58-1.82-5.37-5.47-5.37-1.79,0-3.16,.35-4.13,1.04-.96,.69-1.44,1.59-1.44,2.71v.41h-5.26v-.41c0-2.36,.92-4.31,2.76-5.85,1.84-1.54,4.58-2.3,8.23-2.3,7.26,0,10.88,3.32,10.88,9.97v17.52h-4.96Zm-7.09-3.8c2.19,0,3.82-.52,4.89-1.57,1.06-1.05,1.59-2.46,1.59-4.25v-1.97h-6.48c-3.27,0-4.91,1.28-4.91,3.85s1.64,3.95,4.91,3.95Z"/>
      <path class="cls-2" d="M451.34,119.76c0,1.01-.16,1.97-.48,2.86-.32,.89-.86,1.77-1.62,2.63-.76,.86-1.91,1.55-3.44,2.08-1.54,.52-3.38,.78-5.54,.78s-4.08-.3-5.67-.91c-1.59-.61-2.79-1.44-3.62-2.51-.83-1.06-1.43-2.18-1.8-3.37-.37-1.18-.56-2.46-.56-3.85v-6.63c0-2.97,.92-5.51,2.76-7.62,1.84-2.11,4.78-3.16,8.83-3.16,2.06,0,3.86,.31,5.39,.94,1.54,.62,2.72,1.48,3.54,2.56,.83,1.08,1.43,2.23,1.82,3.44,.39,1.21,.58,2.5,.58,3.85v4.81h-17.41v2.38c0,1.65,.48,3.03,1.44,4.13,.96,1.1,2.52,1.65,4.68,1.65s3.59-.41,4.51-1.24c.91-.83,1.37-1.81,1.37-2.96v-.41h5.21v.56Zm-17.21-9.72v1.52h12.05v-1.52c0-1.59-.48-2.94-1.44-4.05-.96-1.11-2.49-1.67-4.58-1.67s-3.66,.56-4.61,1.67c-.95,1.11-1.42,2.46-1.42,4.05Z"/>
      <path class="cls-2" d="M463.18,127.56h-5.62v-36.96h5.62v36.96Z"/>
      <path class="cls-2" d="M492.14,119.76c0,1.01-.16,1.97-.48,2.86-.32,.89-.86,1.77-1.62,2.63-.76,.86-1.91,1.55-3.44,2.08-1.54,.52-3.38,.78-5.54,.78s-4.08-.3-5.67-.91c-1.59-.61-2.79-1.44-3.62-2.51-.83-1.06-1.43-2.18-1.8-3.37-.37-1.18-.56-2.46-.56-3.85v-6.63c0-2.97,.92-5.51,2.76-7.62,1.84-2.11,4.78-3.16,8.83-3.16,2.06,0,3.86,.31,5.39,.94,1.54,.62,2.72,1.48,3.54,2.56,.83,1.08,1.43,2.23,1.82,3.44,.39,1.21,.58,2.5,.58,3.85v4.81h-17.42v2.38c0,1.65,.48,3.03,1.44,4.13,.96,1.1,2.52,1.65,4.68,1.65s3.59-.41,4.51-1.24c.91-.83,1.37-1.81,1.37-2.96v-.41h5.21v.56Zm-17.21-9.72v1.52h12.05v-1.52c0-1.59-.48-2.94-1.44-4.05-.96-1.11-2.49-1.67-4.58-1.67s-3.66,.56-4.61,1.67c-.95,1.11-1.42,2.46-1.42,4.05Z"/>
      <path class="cls-2" d="M503.89,119.86v7.7h-5.57v-36.96h5.57v22.01l10.78-11.99h6.63l-10.24,11.32,10.9,15.62h-6.58l-8-11.55-3.49,3.86Z"/>
      <path class="cls-2" d="M540.23,122.9v4.66h-3.49c-3.71,0-6.27-.75-7.67-2.25-1.4-1.5-2.1-3.64-2.1-6.4v-13.87h-3.7v-4.3h3.7v-6.88h5.62v6.88h6.94v4.3h-6.94v13.52c0,1.52,.36,2.62,1.09,3.32,.73,.69,2.03,1.04,3.92,1.04h2.63Z"/>
      <path class="cls-2" d="M550.56,127.56h-5.57v-26.93h4.96l.35,4.35c1.69-3.21,4.86-4.81,9.52-4.81v5.37h-1.06c-2.83,0-4.91,.71-6.23,2.13-1.32,1.42-1.97,3.36-1.97,5.82v14.07Z"/>
      <path class="cls-2" d="M562.86,117.33v-6.48c0-2.97,.93-5.51,2.78-7.62,1.86-2.11,4.84-3.16,8.96-3.16,2.19,0,4.08,.31,5.67,.94,1.59,.62,2.81,1.48,3.67,2.56,.86,1.08,1.48,2.22,1.87,3.42,.39,1.2,.58,2.49,.58,3.87v6.48c0,1.38-.19,2.68-.58,3.9-.39,1.21-1.01,2.35-1.87,3.42-.86,1.06-2.08,1.91-3.67,2.53-1.59,.62-3.48,.94-5.67,.94s-4.03-.31-5.62-.94c-1.59-.62-2.81-1.47-3.67-2.53-.86-1.06-1.49-2.2-1.87-3.42-.39-1.21-.58-2.51-.58-3.9Zm17.97,.05v-6.58c0-1.69-.49-3.13-1.47-4.33-.98-1.2-2.57-1.8-4.76-1.8s-3.73,.6-4.71,1.8c-.98,1.2-1.47,2.64-1.47,4.33v6.58c0,1.72,.49,3.18,1.47,4.38,.98,1.2,2.55,1.8,4.71,1.8s3.78-.6,4.76-1.8c.98-1.2,1.47-2.66,1.47-4.38Z"/>
      <path class="cls-2" d="M606.91,122.9v4.66h-3.49c-3.71,0-6.27-.75-7.67-2.25-1.4-1.5-2.1-3.64-2.1-6.4v-13.87h-3.7v-4.3h3.7v-6.88h5.62v6.88h6.94v4.3h-6.94v13.52c0,1.52,.36,2.62,1.09,3.32,.73,.69,2.03,1.04,3.92,1.04h2.63Z"/>
      <path class="cls-2" d="M633.28,119.76c0,1.01-.16,1.97-.48,2.86-.32,.89-.86,1.77-1.62,2.63-.76,.86-1.91,1.55-3.44,2.08-1.54,.52-3.38,.78-5.54,.78s-4.08-.3-5.67-.91c-1.59-.61-2.79-1.44-3.62-2.51-.83-1.06-1.43-2.18-1.8-3.37-.37-1.18-.56-2.46-.56-3.85v-6.63c0-2.97,.92-5.51,2.76-7.62,1.84-2.11,4.78-3.16,8.83-3.16,2.06,0,3.86,.31,5.39,.94,1.54,.62,2.72,1.48,3.54,2.56,.83,1.08,1.43,2.23,1.82,3.44,.39,1.21,.58,2.5,.58,3.85v4.81h-17.41v2.38c0,1.65,.48,3.03,1.44,4.13,.96,1.1,2.52,1.65,4.68,1.65s3.59-.41,4.51-1.24c.91-.83,1.37-1.81,1.37-2.96v-.41h5.21v.56Zm-17.21-9.72v1.52h12.05v-1.52c0-1.59-.48-2.94-1.44-4.05-.96-1.11-2.49-1.67-4.58-1.67s-3.66,.56-4.61,1.67c-.95,1.11-1.42,2.46-1.42,4.05Z"/>
      <path class="cls-2" d="M655.91,117.84h5.52v.51c0,2.67-.92,4.96-2.76,6.88-1.84,1.92-4.65,2.89-8.43,2.89-2.13,0-3.98-.31-5.57-.94-1.59-.62-2.81-1.47-3.67-2.53-.86-1.06-1.49-2.2-1.87-3.42-.39-1.21-.58-2.51-.58-3.9v-6.48c0-1.38,.19-2.67,.58-3.87,.39-1.2,1.01-2.34,1.87-3.42,.86-1.08,2.08-1.93,3.67-2.56,1.59-.62,3.44-.94,5.57-.94,3.88,0,6.71,.96,8.48,2.89,1.77,1.92,2.66,4.22,2.66,6.88v.51h-5.47v-.56c0-1.42-.46-2.62-1.37-3.62-.91-1-2.35-1.49-4.3-1.49-2.13,0-3.68,.6-4.66,1.8-.98,1.2-1.47,2.64-1.47,4.33v6.53c0,1.69,.49,3.13,1.47,4.33,.98,1.2,2.53,1.8,4.66,1.8,1.96,0,3.39-.5,4.3-1.49,.91-1,1.37-2.2,1.37-3.62v-.51Z"/>
      <path class="cls-2" d="M672.66,127.56h-5.57v-36.96h5.57v13.16c1.69-2.46,4.39-3.7,8.1-3.7,3.04,0,5.41,.95,7.11,2.83,1.7,1.89,2.56,4.37,2.56,7.44v17.21h-5.62v-15.9c0-4.42-1.92-6.63-5.77-6.63-2.26,0-3.89,.66-4.89,1.97-1,1.32-1.49,3.04-1.49,5.16v15.39Z"/>
      <path class="cls-2" d="M702.84,127.56h-5.57v-26.93h4.96l.3,3.65c1.62-2.8,4.42-4.2,8.4-4.2,3.04,0,5.41,.95,7.11,2.83,1.7,1.89,2.56,4.37,2.56,7.44v17.21h-5.62v-15.9c0-4.42-1.92-6.63-5.77-6.63-2.26,0-3.89,.66-4.89,1.97-1,1.32-1.49,3.04-1.49,5.16v15.39Z"/>
      <path class="cls-2" d="M733.16,96.02h-5.72v-5.42h5.72v5.42Zm-.05,31.54h-5.62v-26.93h5.62v26.93Z"/>
      <path class="cls-2" d="M745.82,119.86v7.7h-5.57v-36.96h5.57v22.01l10.78-11.99h6.63l-10.24,11.32,10.9,15.62h-6.58l-8-11.55-3.49,3.86Z"/>
      <path class="cls-2" d="M776.7,136.67l-5.32,.05,3.37-9.27-9.7-26.82h5.92l6.47,19.39,7.04-19.39h5.57l-13.37,36.04Z"/>
      <path class="cls-2" d="M260.69,184.26l-.25-2.94c-1.38,2.33-4.17,3.49-8.35,3.49-3.17,0-5.48-.73-6.91-2.2-1.44-1.47-2.15-3.43-2.15-5.9,0-5.43,3.24-8.15,9.72-8.15h7.34v-2.03c0-3.58-1.82-5.37-5.47-5.37-1.79,0-3.16,.35-4.13,1.04-.96,.69-1.44,1.59-1.44,2.71v.41h-5.26v-.41c0-2.36,.92-4.31,2.76-5.85,1.84-1.54,4.58-2.3,8.23-2.3,7.26,0,10.88,3.32,10.88,9.97v17.52h-4.96Zm-7.09-3.8c2.19,0,3.82-.52,4.89-1.57,1.06-1.05,1.59-2.46,1.59-4.25v-1.97h-6.48c-3.27,0-4.91,1.28-4.91,3.85s1.64,3.95,4.91,3.95Z"/>
      <path class="cls-2" d="M289.19,152.72h-5.72v-5.42h5.72v5.42Zm-.05,31.54h-5.62v-26.93h5.62v26.93Z"/>
      <path class="cls-2" d="M301.84,184.26h-5.57v-26.93h4.96l.3,3.65c1.62-2.8,4.42-4.2,8.4-4.2,3.04,0,5.41,.95,7.11,2.83,1.7,1.89,2.56,4.37,2.56,7.44v17.21h-5.62v-15.9c0-4.42-1.92-6.63-5.77-6.63-2.26,0-3.89,.66-4.89,1.97s-1.49,3.04-1.49,5.16v15.39Z"/>
      <path class="cls-2" d="M340.12,161.73h-6.83v22.53h-5.62v-22.53h-3.59v-4.3h3.59v-.81c0-6.21,3.65-9.31,10.94-9.31h2.18v4.4h-2.43c-3.37,0-5.06,1.55-5.06,4.66v1.06h6.83v4.3Z"/>
      <path class="cls-2" d="M343.1,174.03v-6.48c0-2.97,.93-5.51,2.78-7.62,1.86-2.11,4.84-3.16,8.96-3.16,2.19,0,4.08,.31,5.67,.94,1.59,.62,2.81,1.48,3.67,2.56,.86,1.08,1.48,2.22,1.87,3.42,.39,1.2,.58,2.49,.58,3.87v6.48c0,1.38-.19,2.68-.58,3.9-.39,1.21-1.01,2.35-1.87,3.42-.86,1.06-2.08,1.91-3.67,2.53-1.59,.62-3.48,.94-5.67,.94s-4.03-.31-5.62-.94c-1.59-.62-2.81-1.47-3.67-2.53-.86-1.06-1.49-2.2-1.87-3.42-.39-1.21-.58-2.51-.58-3.9Zm17.97,.05v-6.58c0-1.69-.49-3.13-1.47-4.33-.98-1.2-2.57-1.8-4.76-1.8s-3.73,.6-4.71,1.8c-.98,1.2-1.47,2.64-1.47,4.33v6.58c0,1.72,.49,3.18,1.47,4.38,.98,1.2,2.55,1.8,4.71,1.8s3.78-.6,4.76-1.8c.98-1.2,1.47-2.66,1.47-4.38Z"/>
      <path class="cls-2" d="M378.39,184.26h-5.57v-26.93h4.96l.35,4.35c1.69-3.21,4.86-4.81,9.52-4.81v5.37h-1.06c-2.83,0-4.91,.71-6.23,2.13-1.32,1.42-1.97,3.36-1.97,5.82v14.07Z"/>
      <path class="cls-2" d="M397.73,184.26h-5.57v-26.93h4.96l.3,3.59c1.59-2.77,4.32-4.15,8.2-4.15,4.12,0,6.94,1.69,8.46,5.06,.67-1.59,1.8-2.83,3.37-3.72,1.57-.89,3.45-1.34,5.64-1.34,3,0,5.33,.94,6.99,2.81,1.65,1.87,2.48,4.36,2.48,7.47v17.21h-5.57v-15.9c0-4.42-1.87-6.63-5.62-6.63-4.15,0-6.23,2.38-6.23,7.14v15.39h-5.57v-15.9c0-4.42-1.87-6.63-5.62-6.63-4.15,0-6.23,2.38-6.23,7.14v15.39Z"/>
      <path class="cls-2" d="M455.59,184.26l-.25-2.94c-1.38,2.33-4.17,3.49-8.35,3.49-3.17,0-5.48-.73-6.91-2.2-1.44-1.47-2.15-3.43-2.15-5.9,0-5.43,3.24-8.15,9.72-8.15h7.34v-2.03c0-3.58-1.82-5.37-5.47-5.37-1.79,0-3.16,.35-4.13,1.04s-1.44,1.59-1.44,2.71v.41h-5.26v-.41c0-2.36,.92-4.31,2.76-5.85,1.84-1.54,4.58-2.3,8.23-2.3,7.26,0,10.88,3.32,10.88,9.97v17.52h-4.96Zm-7.09-3.8c2.19,0,3.82-.52,4.89-1.57,1.06-1.05,1.59-2.46,1.59-4.25v-1.97h-6.48c-3.27,0-4.91,1.28-4.91,3.85s1.64,3.95,4.91,3.95Z"/>
      <path class="cls-2" d="M481.81,179.6v4.66h-3.49c-3.71,0-6.27-.75-7.67-2.25-1.4-1.5-2.1-3.64-2.1-6.4v-13.87h-3.7v-4.3h3.7v-6.88h5.62v6.88h6.94v4.3h-6.94v13.52c0,1.52,.36,2.62,1.09,3.32,.73,.69,2.03,1.04,3.92,1.04h2.63Z"/>
      <path class="cls-2" d="M492.29,152.72h-5.72v-5.42h5.72v5.42Zm-.05,31.54h-5.62v-26.93h5.62v26.93Z"/>
      <path class="cls-2" d="M504.95,176.56v7.7h-5.57v-36.96h5.57v22.01l10.78-11.99h6.63l-10.24,11.32,10.9,15.62h-6.58l-8-11.55-3.49,3.86Z"/>
      <path class="cls-2" d="M535.83,193.37l-5.32,.05,3.37-9.27-9.7-26.82h5.92l6.47,19.39,7.04-19.39h5.57l-13.37,36.04Z"/>
    </g>
  </g>
</svg>