<?xml version="1.0" encoding="UTF-8"?>
<svg id="Layer_2" data-name="Layer 2" xmlns="http://www.w3.org/2000/svg" viewBox="0 0 575.64 719.09">
  <defs>
    <style>
      .cls-1, .cls-2, .cls-3, .cls-4, .cls-5, .cls-6, .cls-7, .cls-8, .cls-9 {
        stroke: #231f20;
      }

      .cls-1, .cls-2, .cls-6, .cls-10, .cls-11, .cls-9 {
        fill: none;
      }

      .cls-1, .cls-4, .cls-5, .cls-6, .cls-7, .cls-8, .cls-11 {
        stroke-miterlimit: 10;
      }

      .cls-12 {
        letter-spacing: -.01em;
      }

      .cls-2, .cls-3, .cls-6 {
        stroke-linecap: round;
      }

      .cls-2, .cls-3, .cls-9 {
        stroke-linejoin: round;
      }

      .cls-13 {
        fill: #fff;
      }

      .cls-14, .cls-15, .cls-7 {
        fill: #0b4a7b;
      }

      .cls-15 {
        opacity: .8;
      }

      .cls-16 {
        letter-spacing: 0em;
      }

      .cls-17 {
        letter-spacing: 0em;
      }

      .cls-3, .cls-8 {
        fill: #fedf8d;
      }

      .cls-4 {
        fill: #2d291f;
      }

      .cls-5 {
        fill: #f7941d;
      }

      .cls-5, .cls-7 {
        stroke-width: .75px;
      }

      .cls-18 {
        letter-spacing: 0em;
      }

      .cls-19 {
        letter-spacing: -.02em;
      }

      .cls-20 {
        letter-spacing: -.02em;
      }

      .cls-21 {
        letter-spacing: 0em;
      }

      .cls-22 {
        font-size: 21px;
      }

      .cls-22, .cls-23 {
        font-family: MontserratAlternates-Medium, 'Montserrat Alternates';
      }

      .cls-22, .cls-24 {
        fill: #231f20;
      }

      .cls-11 {
        opacity: .7;
        stroke: #fff;
        stroke-width: .5px;
      }

      .cls-25 {
        letter-spacing: 0em;
      }

      .cls-23 {
        fill: #f47820;
        font-size: 39px;
      }
    </style>
  </defs>
  <g id="Layer_1-2" data-name="Layer 1">
    <circle class="cls-15" cx="62.33" cy="565.11" r="31.02"/>
    <circle class="cls-15" cx="87.76" cy="669.65" r="12.43"/>
    <circle class="cls-15" cx="526.53" cy="522.51" r="20.1"/>
    <circle class="cls-15" cx="343.39" cy="667.95" r="39.23"/>
    <circle class="cls-15" cx="332.08" cy="322.03" r="17.7"/>
    <circle class="cls-15" cx="67.7" cy="374.74" r="14.56"/>
    <circle class="cls-15" cx="280.25" cy="535.6" r="14.56"/>
    <circle class="cls-15" cx="402.67" cy="177.99" r="14.94"/>
    <circle class="cls-15" cx="522.99" cy="264.15" r="23.22"/>
    <circle class="cls-15" cx="486.09" cy="68.71" r="8.5"/>
    <ellipse class="cls-14" cx="181.49" cy="202.81" rx="6.48" ry="7.01"/>
    <circle class="cls-15" cx="39.44" cy="39.56" r="25.06"/>
    <circle class="cls-15" cx="155.69" cy="99.35" r="36.66"/>
    <circle class="cls-15" cx="40.41" cy="256.22" r="18.84"/>
    <g>
      <ellipse class="cls-8" cx="400.98" cy="347.61" rx="21.49" ry="29.92"/>
      <ellipse class="cls-8" cx="275.06" cy="348.4" rx="21.49" ry="29.92"/>
      <ellipse class="cls-1" cx="391.35" cy="340.58" rx="1.74" ry="4.65"/>
      <ellipse class="cls-1" cx="289.83" cy="340.4" rx="1.74" ry="4.65"/>
      <ellipse class="cls-1" cx="281.09" cy="340.4" rx="1.74" ry="4.65"/>
      <ellipse class="cls-1" cx="409.55" cy="340.58" rx="1.74" ry="4.65"/>
      <path class="cls-1" d="M389.61,357.43s8.91,12.39,21.69,0"/>
      <path class="cls-8" d="M460.67,458.7h-109.99s-3.48-79,47.25-76.29c50.74,2.71,51.13,34.09,62.74,76.29Z"/>
      <path class="cls-8" d="M337.85,459.49h-109.99s-3.48-79,47.25-76.29c50.74,2.71,51.13,34.09,62.74,76.29Z"/>
      <path class="cls-1" d="M379.49,411.07c-7.63,3.55-12.32,36.69-13.68,47.63"/>
      <path class="cls-1" d="M446.54,459.38c-7.17-16.56-18.16-49.82-18.16-49.82"/>
      <path class="cls-8" d="M217.7,458.96H107.71s-3.48-79,47.25-76.29c50.74,2.71,51.13,34.09,62.74,76.29Z"/>
      <path class="cls-1" d="M136.51,411.33c-7.63,3.55-12.32,36.69-13.68,47.63"/>
      <path class="cls-1" d="M203.56,459.64c-7.17-16.56-18.16-49.82-18.16-49.82"/>
      <line class="cls-8" x1="80.18" y1="459.85" x2="490.52" y2="459.85"/>
      <path class="cls-4" d="M373,435.12s-5.12,32.82-1.63,36.31c3.49,3.49,75.52,1.45,75.52,1.45,0,0,4.65-36.31,0-37.76-4.65-1.45-73.89,0-73.89,0Z"/>
      <circle class="cls-13" cx="410.02" cy="455.83" r="4.37"/>
      <path class="cls-11" d="M376.01,440.3c.06,3.18-.28,6.37-1.02,9.47"/>
      <path class="cls-11" d="M374.31,461.22c-.09,2.59,.04,5.18,.39,7.75"/>
      <path class="cls-11" d="M381.47,440.89c0,9.42,0,18.85,0,28.27"/>
      <path class="cls-10" d="M437.39,443.72c.66,1.34,1,2.84,.97,4.33"/>
      <path class="cls-10" d="M438.99,458.51c.68,1.87,1.13,3.83,1.35,5.81"/>
      <path class="cls-10" d="M445.48,444.95l.16,17.62"/>
      <line class="cls-11" x1="442.86" y1="440.3" x2="442.86" y2="453.77"/>
      <line class="cls-11" x1="442.86" y1="457.74" x2="442.86" y2="467.42"/>
      <path class="cls-1" d="M314.42,459.98c-7.17-16.56-18.16-49.82-18.16-49.82"/>
      <path class="cls-3" d="M249.55,391.91s-17.58-77.17-16.26-83.46c2.32-11.01-14.67-19.45-16.82-3.31,0,.01,0,.03,0,.04l.76,7.68c.01,.12-.14,.18-.21,.09-1.16-1.56-5.93-7.77-5.76-3.34,.2,5.03,6.21,9.22,6.21,10.61s18.87,90.13,18.87,90.13"/>
      <path class="cls-3" d="M219.34,297.22s2.42,7.5,2.37,10.4"/>
      <path class="cls-3" d="M223.17,295.56s4,9.98,2.88,12.06"/>
      <path class="cls-1" d="M290.6,363.72s-9.4,5.62-15.54-2.75"/>
      <ellipse class="cls-8" cx="157.57" cy="348.21" rx="21.49" ry="29.92"/>
      <ellipse class="cls-1" cx="172.34" cy="340.21" rx="1.74" ry="4.65"/>
      <ellipse class="cls-1" cx="163.59" cy="340.21" rx="1.74" ry="4.65"/>
      <path class="cls-1" d="M173.11,363.54s-9.4,5.62-15.54-2.75"/>
      <polygon class="cls-14" points="338.29 423.39 322.9 468.02 284.07 474.07 234.59 471.9 234.59 465.7 285.33 463.4 285.5 462.79 296.26 423.39 338.29 423.39"/>
      <polyline class="cls-7" points="250.67 469.28 285.04 470.34 320.38 463.76"/>
      <line class="cls-5" x1="285.33" y1="463.4" x2="285.04" y2="470.34"/>
      <g>
        <polygon class="cls-4" points="114.54 426.47 131.67 470.46 170.71 474.99 220.06 470.88 219.82 464.68 169.03 464.37 168.84 463.78 156.54 424.82 114.54 426.47"/>
        <polyline class="cls-4" points="203.9 468.89 169.6 471.3 134.02 466.11"/>
        <line class="cls-4" x1="169.03" y1="464.37" x2="169.6" y2="471.3"/>
      </g>
      <circle class="cls-13" cx="141.68" cy="448.75" r="4.37"/>
    </g>
    <text class="cls-23" transform="translate(124.31 261.26)"><tspan x="0" y="0">&lt;HAC</tspan><tspan class="cls-17" x="113.76" y="0">KA</tspan><tspan x="172.22" y="0">THON/&gt;</tspan></text>
    <text class="cls-22" transform="translate(368.9 102.12)"><tspan class="cls-12" x="0" y="0">C</tspan><tspan x="14.87" y="0">ODE</tspan></text>
    <text class="cls-22" transform="translate(24.83 360.18) rotate(-25.99)"><tspan x="0" y="0">ID</tspan><tspan class="cls-19" x="26.92" y="0">E</tspan><tspan class="cls-16" x="39.92" y="0">AS</tspan></text>
    <text class="cls-22" transform="translate(484.71 603.03) rotate(-17.29)"><tspan x="0" y="0">CR</tspan><tspan class="cls-20" x="30.45" y="0">E</tspan><tspan class="cls-25" x="43.45" y="0">AT</tspan><tspan x="72.39" y="0">E</tspan></text>
    <text class="cls-22" transform="translate(114.54 688.97)"><tspan class="cls-25" x="0" y="0">P</tspan><tspan class="cls-21" x="14.95" y="0">ROGRESS</tspan></text>
    <text class="cls-22" transform="translate(482.4 310.6) rotate(43.85)"><tspan class="cls-18" x="0" y="0">T</tspan><tspan class="cls-20" x="12.35" y="0">E</tspan><tspan x="25.35" y="0">AM</tspan></text>
    <path class="cls-2" d="M177.08,89.52c1.78,3.15,2.84,6.87,2.11,10.42-.74,3.54-3.59,6.78-7.18,7.2,1.05,3.19,.64,6.83-1.1,9.71-1.73,2.88-4.76,4.95-8.07,5.51-1.66,4.31-5.59,7.67-10.11,8.64-4.52,.96-9.48-.51-12.75-3.77-5.19-5.17-5.51-13.33-5.5-20.65,.02-22.32-.23-43.46-.32-66.91v-.06c1.71-3.17,5.46-5.04,9.1-5.02,3.88,0,5.52,.57,10.46,4.45,1.03,.81,1.9,1.84,3.07,2.44,.79,.4,1.65,.61,2.47,.94,4.76,1.93,7,8.39,4.48,12.86,4.07-.66,8.45,1.2,10.8,4.6,2.35,3.39,2.55,8.15,.5,11.73,5.17,4.19,6.14,12.66,2.04,17.91Z"/>
    <path class="cls-2" d="M134.16,39.61v-.03c-.04-1.38-1.03-2.63-2.09-3.51-1.78-1.51-4.42-1.25-6.7-.77-6.66,1.41-13.23,4.11-18.06,8.9-1.64,1.63-3.1,3.57-3.57,5.84s.27,4.9,2.23,6.13c-4.01-.52-8.23,1.26-10.66,4.5-2.42,3.23-2.96,7.79-1.34,11.49-3.32,.78-5.3,4.51-5.09,7.92,.21,3.4,2.12,6.47,4.3,9.1-3.06,1.43-4.63,5.15-4.17,8.5s2.63,6.27,5.31,8.33c.85,.65,1.81,1.29,2.15,2.3,.18,.51,.18,1.07,.2,1.61,.23,5.19,3.37,10.16,7.95,12.6,.72,.38,1.47,.7,2.13,1.16,.92,.63,1.65,1.5,2.43,2.3,3.55,3.67,8.87,6.21,13.78,4.79,3.44-.99,6.11-3.74,8.08-6.73,2.73-4.15,4.35-9.8,1.65-13.97-2.01-3.1-5.8-4.46-9.32-5.61"/>
    <path class="cls-2" d="M145.05,39.1c-.15,.32-.3,.65-.45,.97"/>
    <path class="cls-2" d="M151.02,67.62c-.06-3.33,1.62-6.54,4.08-8.78s5.39-2.84,8.64-3.55"/>
    <path class="cls-2" d="M165.12,93.37c1.42,.15,2.84-.29,4.19-.77,2.14-.75,4.27-1.62,6.11-2.94s3.38-3.17,3.98-5.35"/>
    <path class="cls-2" d="M125.93,62.87c.88,.04,1.76,.15,2.62,.34,.78,.17,1.56,.4,2.2,.87,.34,.25,.63,.55,.89,.88,1.48,1.79,2.68,4.1,2.7,6.42,.11-.12,.02-.48-.03-.64"/>
    <path class="cls-2" d="M142.53,55.13c-1.9,.32-3.88,.69-5.4,1.86-1.84,1.42-2.1,3.93-2.84,6.13"/>
    <path class="cls-2" d="M105.97,56.17s7.07-3.05,11.92,10.95"/>
    <path class="cls-2" d="M110.36,41.61s9.44-1.59,11.48,6.2"/>
    <path class="cls-2" d="M105.25,67.12s2.68,20.12,22.09,9.27"/>
    <path class="cls-2" d="M108.57,88.85s10.47-3.48,10.47-9.24"/>
    <path class="cls-2" d="M91.98,89.92s6.11,3.89,9.43,3.48"/>
    <path class="cls-2" d="M121.84,95.04s-12.38,.13-12.64,14.17"/>
    <path class="cls-2" d="M105.25,109.21s7.91-2.94,13.79,12.64"/>
    <path class="cls-2" d="M156.79,41.48s-10.05,1.21-9.16,6.32"/>
    <path class="cls-2" d="M168.31,65.29s-5.74,22.09-21.83,9.19"/>
    <path class="cls-2" d="M163.74,86.74s-9.47-2.03-9.85-8.42"/>
    <path class="cls-2" d="M142.01,92.59c.07,.25,11.96-.53,13.28,12.17"/>
    <path class="cls-2" d="M158.81,104.99s-9.78-2.94-13.86,12.13"/>
    <path class="cls-2" d="M22.44,17.26s56.3-2.03,57.19,.57,0,41.68,0,41.68l-41.68,.51-15.51-.38-.32-42.38"/>
    <circle class="cls-24" cx="27.64" cy="21.7" r="1.47"/>
    <circle class="cls-24" cx="33" cy="21.7" r="1.47"/>
    <circle class="cls-24" cx="38.04" cy="21.7" r="1.47"/>
    <line class="cls-1" x1="22.19" y1="26.84" x2="80" y2="26.84"/>
    <path class="cls-1" d="M32.11,34.18c.14,3.3,.05,6.6-.28,9.89-.1,.95-.23,1.95-.8,2.72-.51,.69-1.37,1.12-2.23,1.13s-1.72-.43-2.23-1.12"/>
    <g>
      <polyline class="cls-2" points="37.18 47.91 42.41 34.75 47.78 47.91"/>
      <line class="cls-2" x1="37.18" y1="44.14" x2="47.78" y2="44.58"/>
    </g>
    <polyline class="cls-2" points="50.27 34.18 54.93 47.65 60.22 34.18"/>
    <g>
      <polyline class="cls-2" points="62.71 47.91 67.94 34.75 73.3 47.91"/>
      <line class="cls-2" x1="62.71" y1="44.14" x2="73.3" y2="44.58"/>
    </g>
    <path class="cls-2" d="M68.67,165.01c-2.03,2.1-4.6,3.7-7.62,4.64"/>
    <path class="cls-2" d="M43.05,167.91c-6.89-3.34-9.95-9.67-9.95-17.84,0-11.38,9.22-20.6,20.6-20.6s20.6,9.22,20.6,20.6c0,4.72-1.26,9.04-3.62,12.48"/>
    <path class="cls-2" d="M60.33,178.16s-29.88,.85-31.07,0c-1.19-.85,0-10.21,0-10.21h31.07c.93,0,0,10.21,0,10.21Z"/>
    <polygon class="cls-2" points="79.22 171.1 73.26 170.67 68.67 175.27 68.67 160.54 70.68 162.55 79.22 171.1"/>
    <path class="cls-2" d="M63.09,150.8c0,7.1-1.54,13.37-3.89,17.15h-10.46c-2.35-3.78-3.89-10.05-3.89-17.15,0-11.55,4.08-20.93,9.12-20.93s9.12,9.38,9.12,20.93Z"/>
    <line class="cls-2" x1="34.21" y1="143.38" x2="73.19" y2="143.38"/>
    <line class="cls-2" x1="34.11" y1="157.44" x2="73.44" y2="157.44"/>
    <polyline class="cls-2" points="31.95 170.67 33.67 175.27 35.46 171.67 37.44 174.99 39.16 170.67"/>
    <polyline class="cls-2" points="41.25 170.94 42.97 175.54 44.76 171.94 46.74 175.26 48.46 170.94"/>
    <polyline class="cls-2" points="50.37 170.67 52.09 175.27 53.88 171.67 55.86 174.99 57.58 170.67"/>
    <circle class="cls-24" cx="194.3" cy="37.62" r="3.05"/>
    <path class="cls-2" d="M187.33,31.06s6.13-7.68,13.96,0"/>
    <path class="cls-2" d="M181.88,24.79s12.77-12.94,24.85,0"/>
    <path class="cls-2" d="M176.77,18.32s17.36-17.97,35.74,.72"/>
    <circle class="cls-2" cx="182.39" cy="164.39" r="2.49"/>
    <circle class="cls-2" cx="170.65" cy="190.18" r="2.49"/>
    <circle class="cls-2" cx="180.62" cy="202.95" r="2.49"/>
    <circle class="cls-2" cx="209.09" cy="172.43" r="2.49"/>
    <circle class="cls-2" cx="191.06" cy="178.9" r="3.34"/>
    <circle class="cls-2" cx="196.31" cy="197.03" r="1.55"/>
    <circle class="cls-2" cx="208.69" cy="187.9" r="1.55"/>
    <circle class="cls-2" cx="215.97" cy="163.96" r="1.55"/>
    <circle class="cls-2" cx="194.65" cy="158.28" r="1.55"/>
    <circle class="cls-2" cx="167.9" cy="157.38" r="1.55"/>
    <line class="cls-2" x1="169.31" y1="158.03" x2="180.16" y2="163.31"/>
    <line class="cls-2" x1="184.63" y1="163.31" x2="193.25" y2="158.95"/>
    <line class="cls-2" x1="183.63" y1="166.54" x2="189.23" y2="176.11"/>
    <line class="cls-2" x1="194.65" y1="177.65" x2="206.76" y2="173.29"/>
    <line class="cls-2" x1="210.56" y1="170.43" x2="215.32" y2="165.36"/>
    <line class="cls-2" x1="209.09" y1="174.92" x2="208.69" y2="186.36"/>
    <line class="cls-2" x1="172.73" y1="188.81" x2="188.26" y2="180.73"/>
    <line class="cls-2" x1="172.01" y1="192.26" x2="178.79" y2="201.27"/>
    <line class="cls-2" x1="183" y1="202.26" x2="194.65" y2="197.9"/>
    <ellipse class="cls-2" cx="280.25" cy="134.36" rx="25.07" ry="6.64"/>
    <path class="cls-2" d="M305.32,149.68c0,3.67-11.22,6.64-25.07,6.64s-25.07-2.97-25.07-6.64"/>
    <path class="cls-2" d="M305.32,165c0,3.67-11.22,6.64-25.07,6.64s-25.07-2.97-25.07-6.64"/>
    <path class="cls-2" d="M256.02,134.36v47.15s24.22,12.68,50.14,0l-.14-46.45"/>
    <circle class="cls-24" cx="300.6" cy="145.34" r="1.47"/>
    <circle class="cls-24" cx="300.6" cy="160.76" r="1.47"/>
    <circle class="cls-24" cx="300.6" cy="176.3" r="1.47"/>
    <path class="cls-1" d="M321.17,69.61c.03,1.54-.22,3.03-.73,4.45-2.64,7.39-12.12,12.95-24.18,14.42-2.07,.25-4.21,.38-6.41,.38-17.48,0-29.27-8.62-29.27-19.25s11.79-19.24,29.27-19.24c8.98,0,16.93,2.12,22.58,5.7,1.63,3.23,4.18,5.92,7.32,7.72,.89,1.81,1.38,3.76,1.42,5.82Z"/>
    <path class="cls-1" d="M324.24,110.54c-17.49,0-28.77-6.79-28.77-17.42,0-1.6,.27-3.16,.79-4.64,12.06-1.47,21.54-7.03,24.18-14.42,1.39-.13,2.83-.19,4.31-.19,17.48,0,21.9,8.05,22.13,19.25,.21,10.91-5.16,17.42-22.64,17.42Z"/>
    <path class="cls-1" d="M347.39,47.76c0,10.2-8.27,18.46-18.47,18.46-3.34,0-6.47-.88-9.17-2.43-3.14-1.8-5.69-4.49-7.32-7.72-1.27-2.5-1.98-5.32-1.98-8.31,0-10.2,8.27-18.47,18.47-18.47s18.47,8.27,18.47,18.47Z"/>
    <path class="cls-2" d="M323.22,41.63s3.78,13.48-4.34,11.49"/>
    <path class="cls-2" d="M336.84,43.16s-7.74-2.81-7.15,1.11c.6,3.91,6.98,3.23,7.15,5.28s-1.61,5.96-7.91,2.98"/>
    <path class="cls-2" d="M274.63,75.24v-11.23s6.64-.78,6.89,2.21c.26,2.98-4.17,5.03-6.38,4.09"/>
    <line class="cls-2" x1="285.86" y1="63.16" x2="285.86" y2="75.24"/>
    <line class="cls-2" x1="286.45" y1="69.2" x2="294.03" y2="69.2"/>
    <line class="cls-2" x1="294.45" y1="63.16" x2="294.45" y2="75.92"/>
    <path class="cls-2" d="M300.11,74.86v-11.23s6.64-.78,6.89,2.21c.26,2.98-4.17,5.03-6.38,4.09"/>
    <path class="cls-2" d="M317.77,88.18s-7.66-5.57-9.79,4.02,10.89,5.08,10.89,5.08"/>
    <line class="cls-2" x1="330.37" y1="81.63" x2="325.09" y2="103.75"/>
    <line class="cls-2" x1="335.48" y1="82.05" x2="330.8" y2="103.75"/>
    <line class="cls-2" x1="324.1" y1="88.86" x2="338.03" y2="89.45"/>
    <line class="cls-2" x1="322.71" y1="96.43" x2="336.24" y2="96.43"/>
    <rect class="cls-2" x="461.58" y="7.15" width="41.62" height="64.88" rx="3.57" ry="3.57"/>
    <rect class="cls-2" x="468.21" y="15.23" width="28.36" height="44.21" rx="1.97" ry="1.97"/>
    <circle class="cls-2" cx="482.39" cy="65.04" r="3.15"/>
    <line class="cls-2" x1="479.25" y1="11.7" x2="488.51" y2="11.7"/>
    <ellipse class="cls-24" cx="476.32" cy="11.96" rx="1.18" ry=".79"/>
    <path class="cls-1" d="M522.8,114.27c0,18.85-5.01,34.13-11.19,34.13s-11.19-15.28-11.19-34.13,5.01-34.13,11.19-34.13c2.13,0,4.12,1.81,5.81,4.95-1.49,.47-2.58,1.86-2.58,3.51,0,2.02,1.65,3.67,3.67,3.67,.56,0,1.08-.12,1.55-.35,1.71,5.98,2.74,13.79,2.74,22.35Z"/>
    <path class="cls-1" d="M517.21,123.96c-8.53,4.93-16.91,8.18-23.39,9.4-.14-1.89-1.72-3.37-3.65-3.37s-3.67,1.64-3.67,3.67c0,.03,0,.07,.01,.1-2.15-.3-3.69-1.09-4.46-2.42-3.09-5.36,7.64-17.34,23.96-26.76,16.33-9.43,32.07-12.73,35.16-7.38,3.09,5.36-7.64,17.34-23.96,26.76Z"/>
    <path class="cls-1" d="M541.17,131.34c-3.09,5.35-18.83,2.05-35.16-7.38-16.32-9.42-27.05-21.4-23.96-26.76,3.09-5.35,18.83-2.05,35.16,7.38,8.61,4.97,15.67,10.66,19.96,15.71-.7,.66-1.13,1.61-1.13,2.65,0,2.02,1.64,3.67,3.67,3.67,.48,0,.94-.09,1.36-.26,.78,1.97,.86,3.68,.1,4.99Z"/>
    <path class="cls-1" d="M522.18,88.6c0,1.47-.87,2.74-2.12,3.32-.47,.23-.99,.35-1.55,.35-2.02,0-3.67-1.65-3.67-3.67,0-1.65,1.09-3.04,2.58-3.51,.35-.1,.71-.16,1.09-.16,2.03,0,3.67,1.64,3.67,3.67Z"/>
    <path class="cls-1" d="M543.38,122.94c0,1.54-.96,2.87-2.31,3.41-.42,.17-.88,.26-1.36,.26-2.03,0-3.67-1.65-3.67-3.67,0-1.04,.43-1.99,1.13-2.65,.66-.63,1.55-1.02,2.54-1.02,2.02,0,3.67,1.64,3.67,3.67Z"/>
    <path class="cls-1" d="M493.84,133.66c0,2.03-1.64,3.67-3.67,3.67s-3.62-1.59-3.66-3.57c-.01-.03-.01-.07-.01-.1,0-2.03,1.65-3.67,3.67-3.67s3.51,1.48,3.65,3.37c.02,.1,.02,.2,.02,.3Z"/>
    <circle class="cls-1" cx="511.73" cy="114.48" r="4.24"/>
    <ellipse class="cls-2" cx="354.33" cy="135.99" rx="4.98" ry="6.26"/>
    <ellipse class="cls-2" cx="382.76" cy="135.99" rx="4.98" ry="6.26"/>
    <ellipse class="cls-2" cx="382.76" cy="154.88" rx="4.98" ry="6.26"/>
    <ellipse class="cls-2" cx="354.33" cy="174.03" rx="4.98" ry="6.26"/>
    <ellipse class="cls-2" cx="382.76" cy="174.03" rx="4.98" ry="6.26"/>
    <ellipse class="cls-2" cx="410.07" cy="154.88" rx="4.98" ry="6.26"/>
    <polyline class="cls-2" points="364.84 130.58 368.67 130.58 368.67 141.05 365.18 141.05 371.99 141.05"/>
    <polyline class="cls-2" points="393.52 130.58 397.35 130.58 397.35 141.05 393.86 141.05 400.67 141.05"/>
    <polyline class="cls-2" points="406.12 130.58 409.95 130.58 409.95 141.05 406.46 141.05 413.27 141.05"/>
    <polyline class="cls-2" points="350.76 149.78 354.59 149.78 354.59 160.24 351.1 160.24 357.9 160.24"/>
    <polyline class="cls-2" points="364.84 149.78 368.67 149.78 368.67 160.24 365.18 160.24 371.99 160.24"/>
    <polyline class="cls-2" points="393.52 149.65 397.35 149.65 397.35 160.12 393.86 160.12 400.67 160.12"/>
    <polyline class="cls-2" points="364.84 168.97 368.67 168.97 368.67 179.43 365.18 179.43 371.99 179.43"/>
    <polyline class="cls-2" points="393.52 168.8 397.35 168.8 397.35 179.26 393.86 179.26 400.67 179.26"/>
    <polyline class="cls-2" points="406.12 168.97 409.95 168.97 409.95 179.43 406.46 179.43 413.27 179.43"/>
    <polygon class="cls-2" points="349.35 190.84 356.24 187.69 415.05 187.69 415.05 193.9 355.65 193.9 349.35 190.84"/>
    <polygon class="cls-2" points="356.24 189.14 353.44 190.41 355.65 191.86 407.31 191.86 412.41 191.86 412.41 189.14 407.14 189.14 356.24 189.14"/>
    <rect class="cls-24" x="407.14" y="189.48" width="3.32" height="2.21"/>
    <path class="cls-1" d="M31.64,277.27s25.7-29.28,40.85-32.68,19.57-3.57,19.57-3.57l-3.67,18.5c-.05,.26-.15,.51-.3,.73-1.56,2.36-11.45,16.79-33.82,37.21l-22.64-19.34v-.85Z"/>
    <polygon class="cls-1" points="46.71 261.9 33.35 263.14 21.26 275.39 31.64 277.27 46.71 261.9"/>
    <polygon class="cls-1" points="69.67 282.44 68.75 296.67 56.66 307.22 55.22 296.59 69.67 282.44"/>
    <polyline class="cls-1" points="35.39 281.32 27.05 285.44 44.92 302.8 50.78 294.47"/>
    <line class="cls-1" x1="73.9" y1="244.27" x2="88.63" y2="258.37"/>
    <line class="cls-1" x1="27.05" y1="293.55" x2="16.84" y2="303.48"/>
    <line class="cls-1" x1="32.66" y1="298.52" x2="14.79" y2="314.71"/>
    <line class="cls-1" x1="37.09" y1="301.78" x2="26.2" y2="312.16"/>
    <circle class="cls-24" cx="40.31" cy="277.62" r="2.64"/>
    <circle class="cls-1" cx="64.6" cy="267.15" r="8.78"/>
    <circle class="cls-1" cx="64.6" cy="267.15" r="6.45"/>
    <line class="cls-1" x1="43.94" y1="281.32" x2="57.47" y2="293.55"/>
    <path class="cls-2" d="M322.77,329.25c2.3,2.17,3.06,8.43,3.06,8.43h11.08c-.39-3.12,2.99-8.44,2.99-8.44"/>
    <circle class="cls-1" cx="331.22" cy="319.4" r="13.02"/>
    <rect class="cls-2" x="325.39" y="339.29" width="11.81" height="3.13" rx="1.56" ry="1.56"/>
    <rect class="cls-2" x="326.66" y="344.65" width="9.13" height="3.13" rx="1.56" ry="1.56"/>
    <path class="cls-2" d="M330.78,309.83s9.99-1.15,11.11,10.24"/>
    <line class="cls-2" x1="307.96" y1="307.21" x2="314.38" y2="310.79"/>
    <line class="cls-2" x1="316.96" y1="297.77" x2="321.21" y2="303.83"/>
    <line class="cls-2" x1="331.42" y1="293.87" x2="331.42" y2="300.96"/>
    <line class="cls-2" x1="346.16" y1="298.09" x2="341.89" y2="303.83"/>
    <line class="cls-2" x1="354.85" y1="307.12" x2="348.3" y2="310.66"/>
    <path class="cls-2" d="M62.39,379.5s-.64,1.73-.83,3.1-3.19,3.6-3.83,4.69-1.28,5.49-1.28,5.49l-3.32,2.11s2.04,8.23,7.53,7.47c0,0,1.79-1.91,3.13-2.55s14.87-7.53,21.38-7.09c0,0,3.16-.99,2.49-2.74-.79-2.07-1.53-1.98-5.87-1.66s-13.6,3.06-13.6,3.06c0,0-3.51,1.4-3.45-3.45,0,0,3.16-7.66-2.36-8.43Z"/>
    <path class="cls-2" d="M69.38,397.18l15.07,.47s5.19-1.02-.81-4.72"/>
    <path class="cls-2" d="M73.1,361.18s.26,11.66-11.49,12.68c0,0,11.02,1.87,11.49,12.17,0,0,.38-11.19,11.7-11.87,0,0-9.49,.34-11.7-12.98Z"/>
    <line class="cls-2" x1="64.03" y1="365.22" x2="66.16" y2="367.48"/>
    <line class="cls-2" x1="79.9" y1="367.69" x2="82.37" y2="365.22"/>
    <line class="cls-2" x1="79.69" y1="380.76" x2="82.37" y2="382.88"/>
    <rect class="cls-2" x="536.93" y="371.9" width="17.36" height="16" rx="2.34" ry="2.34"/>
    <path class="cls-2" d="M554.29,385.56v3.92c0,1.29-1.05,2.34-2.34,2.34h-12.68c-1.29,0-2.34-1.05-2.34-2.34v-3.92c0,1.29,1.05,2.34,2.34,2.34h12.68c1.29,0,2.34-1.05,2.34-2.34Z"/>
    <polyline class="cls-2" points="539.99 375.65 542.54 383.22 545.61 375.99 548.42 383.22 550.88 375.65"/>
    <rect class="cls-2" x="515.65" y="394.03" width="17.36" height="16" rx="2.34" ry="2.34"/>
    <path class="cls-2" d="M533.01,407.69v3.92c0,1.29-1.05,2.34-2.34,2.34h-12.68c-1.29,0-2.34-1.05-2.34-2.34v-3.92c0,1.29,1.05,2.34,2.34,2.34h12.68c1.29,0,2.34-1.05,2.34-2.34Z"/>
    <rect class="cls-2" x="536.93" y="394.03" width="17.36" height="16" rx="2.34" ry="2.34"/>
    <path class="cls-2" d="M554.29,409.22v2.96c0,.97-1.05,1.77-2.34,1.77h-12.68c-1.29,0-2.34-.79-2.34-1.77v-2.96c0,.97,1.05,1.77,2.34,1.77h12.68c1.29,0,2.34-.79,2.34-1.77Z"/>
    <rect class="cls-2" x="557.78" y="394.03" width="17.36" height="16" rx="2.34" ry="2.34"/>
    <path class="cls-2" d="M575.14,407.69v3.92c0,1.29-1.05,2.34-2.34,2.34h-12.68c-1.29,0-2.34-1.05-2.34-2.34v-3.92c0,1.29,1.05,2.34,2.34,2.34h12.68c1.29,0,2.34-1.05,2.34-2.34Z"/>
    <path class="cls-2" d="M547.9,399.39s-4.6-2.64-4.43,1.36c0,0,4.34,1.45,4.43,2.98s-1.19,2.63-4.94,1.61"/>
    <path class="cls-2" d="M563.9,399.05v7.23s6.04,.3,5.45-4.15c-.6-4.45-5.45-3.09-5.45-3.09Z"/>
    <polyline class="cls-2" points="521.27 406.29 522.22 403.88 524.33 398.54 526.56 403.84 527.59 406.29"/>
    <line class="cls-2" x1="521.84" y1="403.67" x2="526.82" y2="403.67"/>
    <circle class="cls-2" cx="27.66" cy="445.31" r="23.24"/>
    <line class="cls-2" x1="27.66" y1="418.84" x2="27.66" y2="424.97"/>
    <line class="cls-2" x1="47.31" y1="444.46" x2="54.03" y2="444.46"/>
    <line class="cls-2" x1="27.66" y1="463.86" x2="27.66" y2="470.67"/>
    <line class="cls-2" x1=".5" y1="444.46" x2="7.65" y2="444.46"/>
    <path class="cls-2" d="M32.33,437.46c0-3.53-2.21-6.38-4.95-6.38s-4.95,2.86-4.95,6.38"/>
    <path class="cls-2" d="M30.61,436.73c0-1.94-1.44-3.52-3.22-3.52s-3.22,1.58-3.22,3.52"/>
    <rect class="cls-2" x="20.62" y="437.07" width="13.72" height="20.43" rx="4.88" ry="4.88"/>
    <line class="cls-2" x1="31.18" y1="432.6" x2="33.99" y2="430.63"/>
    <line class="cls-2" x1="24.17" y1="432.6" x2="21.35" y2="430.12"/>
    <path class="cls-2" d="M34.63,442.31s4.4-.45,4.09-2.87"/>
    <path class="cls-2" d="M34.63,447.86s5.3-1.34,6.13,2.04"/>
    <path class="cls-2" d="M33.99,454.43s4.47,1.41,3.7,3.39"/>
    <path class="cls-2" d="M19.98,442.11s-4.4-.45-4.09-2.87"/>
    <path class="cls-2" d="M19.98,447.67s-5.3-1.34-6.13,2.04"/>
    <path class="cls-2" d="M20.62,454.24s-4.47,1.41-3.7,3.39"/>
    <line class="cls-2" x1="27.38" y1="437.07" x2="27.48" y2="457.05"/>
    <path class="cls-2" d="M57.83,532.92s-.83-5.43,5.23-4.72,6.13,6.32,.32,9l-.13,5.43"/>
    <circle class="cls-24" cx="62.33" cy="547.32" r="1.28"/>
    <circle class="cls-24" cx="50.29" cy="569.85" r="1.28"/>
    <path class="cls-1" d="M81.88,537.41c0,5.63-2.59,10.69-6.7,14.18v9.99l-6.18-6.39c-2.28,.84-4.77,1.3-7.36,1.3-.34,0-.68,0-1.02-.02-8.57-.41-15.73-5.83-18.24-13.23-.63-1.84-.97-3.8-.97-5.83,0-10.54,9.06-19.09,20.23-19.09s20.24,8.55,20.24,19.09Z"/>
    <path class="cls-1" d="M60.62,556.47v15.11c0,4.61-3.73,8.34-8.34,8.34h-16.76l-.34,7.06-6.64-7.06h-9.19c-4.6,0-8.34-3.73-8.34-8.34v-20c0-4.61,3.74-8.34,8.34-8.34h23.03c2.51,7.4,9.67,12.82,18.24,13.23Z"/>
    <line class="cls-2" x1="18" y1="553.99" x2="41.41" y2="553.99"/>
    <line class="cls-2" x1="18" y1="562.16" x2="51.57" y2="561.9"/>
    <line class="cls-2" x1="18" y1="570.13" x2="45.63" y2="570.13"/>
    <path class="cls-2" d="M233.41,524.72c-.2,10.72-8.95,19.34-19.72,19.34-7.46,0-13.96-4.15-17.31-10.26l8.84,1.26"/>
    <path class="cls-2" d="M193.97,524.33c0-10.89,8.83-19.72,19.72-19.72,7.64,0,14.27,4.34,17.54,10.7l.2-9.95"/>
    <line class="cls-2" x1="222.2" y1="514.47" x2="231.24" y2="515.31"/>
    <line class="cls-2" x1="196.12" y1="533.78" x2="195.27" y2="543.06"/>
    <polyline class="cls-2" points="213.69 512.2 213.69 524.72 226.5 524.72"/>
    <circle class="cls-24" cx="202.42" cy="524.72" r="1.66"/>
    <circle class="cls-24" cx="213.69" cy="535.4" r="1.66"/>
    <polygon class="cls-1" points="545.27 523.32 554.01 522.24 537.72 530.79 530.01 517.59 545.27 523.32"/>
    <polygon class="cls-1" points="571.14 513.27 554.01 522.24 546.96 516.39 524.39 507.98 515.26 492.38 512.31 487.32 545 469.46 548.01 474.49 571.14 513.27"/>
    <line class="cls-1" x1="515.26" y1="492.38" x2="547.77" y2="474.1"/>
    <polygon class="cls-1" points="554.01 522.24 545.27 523.32 530.01 517.59 511.04 510.48 506.88 508.92 509.46 502.43 513.15 503.8 524.39 507.98 546.96 516.39 554.01 522.24"/>
    <line class="cls-1" x1="511.04" y1="510.48" x2="513.76" y2="504.03"/>
    <polyline class="cls-1" points="545.81 516.92 546.96 516.39 543.76 517.54 545.36 520.03 542.07 521.63"/>
    <line class="cls-1" x1="549.72" y1="519.01" x2="548.51" y2="522.92"/>
    <ellipse class="cls-1" cx="516.95" cy="484.78" rx="1.85" ry="3.65" transform="translate(-159.54 273.56) rotate(-25.82)"/>
    <ellipse class="cls-1" cx="523.15" cy="481.78" rx="1.85" ry="3.65" transform="translate(-157.61 275.96) rotate(-25.82)"/>
    <ellipse class="cls-1" cx="529" cy="478.58" rx="1.85" ry="3.65" transform="translate(-155.63 278.19) rotate(-25.82)"/>
    <ellipse class="cls-1" cx="534.74" cy="475.19" rx="1.85" ry="3.65" transform="translate(-153.58 280.35) rotate(-25.82)"/>
    <ellipse class="cls-1" cx="540.85" cy="471.8" rx="1.85" ry="3.65" transform="translate(-151.5 282.67) rotate(-25.82)"/>
    <path class="cls-2" d="M528.5,505.59c.07-1.16,.39-2.3,.71-3.42,.64-2.26,1.27-4.52,1.91-6.77,.52-1.86,1.21-3.93,2.94-4.8,.72-.36,1.54-.47,2.34-.57,.25-.03,.52-.06,.76,.01,.28,.08,.5,.29,.71,.5,.42,.41,.85,.82,1.16,1.31,.48,.75,.67,1.64,.86,2.51,.56,2.61,1.12,5.23,1.68,7.84,.13,.62,.26,1.25,.19,1.87s-.39,1.26-.95,1.54c-.74,.38-1.7,.02-2.23-.63s-.69-1.52-.74-2.35c-.25-4.44,2.66-8.71,6.62-10.74,.93-.47,1.96-.85,2.99-.69,1.41,.21,2.51,1.41,3.01,2.74s.49,2.8,.44,4.22c-.06,1.63-.17,3.26-.34,4.89-.1,1-.23,2.02-.64,2.95-.17,.37-.53,.79-.91,.63-.17-.07-.27-.23-.36-.39-1.51-2.56-2.76-5.28-3.72-8.09,4.64,3.01,8.95,6.53,12.83,10.48-.24-.12-.42-.35-.5-.61"/>
    <line class="cls-2" x1="498.93" y1="489.32" x2="501.19" y2="493.02"/>
    <line class="cls-2" x1="496.88" y1="496.79" x2="500.7" y2="494.75"/>
    <line class="cls-2" x1="502.17" y1="494.75" x2="504.48" y2="498.66"/>
    <line class="cls-2" x1="502.53" y1="493.46" x2="506.88" y2="491.55"/>
    <circle class="cls-24" cx="511.32" cy="497.4" r="1.08"/>
    <circle class="cls-24" cx="512.4" cy="518.24" r="1.08"/>
    <circle class="cls-24" cx="526.31" cy="522.51" r="1.08"/>
    <ellipse class="cls-1" cx="523.46" cy="531.97" rx="3.07" ry="2.82"/>
    <path class="cls-2" d="M259.06,602.24c-.72-.54-1.15-1.38-1.45-2.23-.59-1.62-.67-3.38-.74-5.1-.22-5.23-.44-10.46-.66-15.69-.16-3.79-.32-7.59,.16-11.35,.11-.89,.29-1.83,.88-2.51,.82-.93,2.18-1.09,3.41-1.19,2.87-.24,5.73-.48,8.6-.71,.78-.06,1.63-.16,2.18-.72,.62-.63,.63-1.66,.33-2.49s-.86-1.54-1.28-2.32c-1.74-3.21-.89-7.53,1.76-10.04,2.65-2.51,6.81-3.18,10.22-1.89,1.14,.43,2.23,1.08,2.98,2.04,1.16,1.49,1.36,3.5,1.33,5.39-.03,2.06-.28,4.12-.74,6.13-.3,1.33-.56,3.05,.6,3.77,.5,.32,1.13,.32,1.72,.32,3.09,0,6.17-.02,9.26-.03,.29,2.92,.33,5.86,.11,8.78-.15,2.04-.57,4.33-2.25,5.5-1.45,1-3.39,.86-5.1,.42s-3.39-1.12-5.15-1.07c-1.82,.05-3.61,.96-4.73,2.4s-1.56,3.39-1.17,5.17c.19,.87,.59,1.72,1.24,2.33,1.06,1,2.61,1.24,4.06,1.35,2.08,.16,4.18,.15,6.25-.04,.91-.08,1.83-.19,2.72,.01,1.62,.37,2.86,1.76,3.47,3.31s.71,3.24,.77,4.9c.03,.87,.05,1.76-.26,2.57-.82,2.1-3.42,2.77-5.67,3.03-10.96,1.25-22.04-.43-33.07-.29"/>
    <path class="cls-1" d="M295.8,526.04c-.31-1.61-.61-3.24-.42-4.86s.95-3.26,2.35-4.11c1.26-.76,2.81-.78,4.29-.78,7.69,0,15.37,.02,23.06,.02,1.45,0,2.93,0,4.33,.38s2.76,1.17,3.49,2.43c.79,1.35,.76,3.01,.71,4.57-.27,8.62-.54,17.24-.81,25.86-.02,.66-.05,1.35-.43,1.9-.51,.75-1.51,.97-2.41,1.05-3.01,.26-6.3-.4-8.89,1.17-.51,.31-.99,.72-1.25,1.26-.72,1.51,.5,3.16,1.14,4.71,1.49,3.6-.61,8.15-4.2,9.65s-8.08,.01-10.36-3.15c-.42-.58-.78-1.23-.85-1.95-.09-.92,.32-1.8,.71-2.63,1.26-2.66,5.32-7.72,.21-8.89-1.62-.37-3.3,.09-4.93,.41s-3.44,.47-4.85-.41c-1.65-1.04-2.21-3.18-2.29-5.13-.07-1.86,.32-3.96,1.85-5.02,1.37-.95,3.19-.76,4.86-.72,1.2,.03,2.41-.04,3.6-.2,2.49-.34,5.01-1.14,6.83-2.87s2.76-4.54,1.77-6.85c-1.01-2.36-3.69-3.59-6.24-3.88s-5.13,.15-7.7,.05c-1.09-.04-2.23-.2-3.12-.84s-.12-1.48-.77-2.91"/>
    <path class="cls-1" d="M297.55,563.62c.36,.24,.83,.24,1.27,.24,2.32-.03,4.65-.06,6.97-.1-.16,.03-.33,0-.48-.06"/>
    <path class="cls-1" d="M309.99,568.57c-1.01,1.71-1.26,3.85-.67,5.74,.48,1.53,1.48,2.88,2.76,3.86,.67,.5,1.42,.92,2.23,1.12,.8,.2,1.65,.21,2.47,.09,2.94-.42,5.62-2.49,6.61-5.26,.99-2.77,.45-6.27-1.8-8.35"/>
    <path class="cls-1" d="M321.14,565.56c3.67-1.08,7.56-1.38,11.35-.88,1.15,.15,2.38,.42,3.16,1.29,1.06,1.18,.9,2.98,.72,4.57-1.03,9.17-.18,18.45-.75,27.66-.05,.87-.14,1.8-.68,2.49-.61,.79-1.65,1.08-2.64,1.24-3.49,.57-7.05,.04-10.57-.32-6.23-.63-12.51-.7-18.77-.78-1.97-.02-3.94-.05-5.91-.07-.1-.21-.03-.49,.17-.63"/>
    <line class="cls-2" x1="308.07" y1="589.15" x2="308.07" y2="592.68"/>
    <line class="cls-2" x1="326.2" y1="588.93" x2="326.2" y2="593.1"/>
    <path class="cls-2" d="M313.69,591.27s3.4,3.57,6.77,0"/>
    <path class="cls-2" d="M274.91,525.14c-.25-1.89-.39-4.11,1.04-5.37,.84-.73,2.03-.93,3.14-.82,.65,.07,1.31,.23,1.84,.62,.87,.64,1.25,1.77,1.36,2.84s-.02,2.17,.11,3.25c1.2-.8,2.83-.57,4.16,0,.72,.3,1.42,.7,1.94,1.28s.83,1.39,.69,2.16c-.17,.92-.93,1.62-1.76,2.03-1.87,.92-4.07,.66-6.13,.38,.65,1.69,.73,3.68-.21,5.23s-3.06,2.4-4.66,1.57c-1.1-.57-1.76-1.79-1.97-3.01s-.03-2.48,.16-3.71c-1.55,.45-3.3,.63-4.72-.14s-2.22-2.78-1.26-4.08c.53-.71,1.43-1.04,2.3-1.27,1.33-.35,2.7-.57,4.08-.65"/>
    <path class="cls-2" d="M409.42,562.34v-22.14l-22.53-.23c0-12.45,10.09-22.54,22.53-22.54s22.54,10.09,22.54,22.54c0,1.76-.2,3.47-.59,5.11"/>
    <path class="cls-2" d="M423.91,557.23c-3.92,3.29-8.97,5.27-14.49,5.27"/>
    <polyline class="cls-2" points="423.18 534.92 430.63 522.88 445.61 522.88"/>
    <line class="cls-2" x1="433.99" y1="519.05" x2="446.03" y2="519.05"/>
    <path class="cls-2" d="M381.39,544.37h23.49l.26,22.3s-22.6,.13-23.74-22.3Z"/>
    <polyline class="cls-2" points="400.76 561.73 394.84 573.31 382.33 573.31"/>
    <line class="cls-2" x1="382.07" y1="569.09" x2="392.24" y2="569.09"/>
    <line class="cls-2" x1="439.37" y1="539.96" x2="448.12" y2="539.96"/>
    <line class="cls-2" x1="439.37" y1="544.37" x2="448.12" y2="544.37"/>
    <line class="cls-2" x1="439.37" y1="548.58" x2="448.12" y2="548.58"/>
    <rect class="cls-2" x="409.43" y="570.73" width="10.67" height="12.32" rx="1.98" ry="1.98"/>
    <rect class="cls-2" x="438.41" y="559.75" width="10.67" height="23.3" rx="1.98" ry="1.98"/>
    <path class="cls-2" d="M434.58,547.06v33.56c0,1.1-.89,1.99-1.98,1.99h-6.7c-1.1,0-1.99-.89-1.99-1.99v-33.56c0-1.1,.89-1.98,1.99-1.98h6.7c1.09,0,1.98,.88,1.98,1.98Z"/>
    <rect class="cls-1" x="123.89" y="604.21" width="9.53" height="8.51" rx="3.19" ry="3.19" transform="translate(467.93 87.25) rotate(45)"/>
    <rect class="cls-1" x="126.44" y="597.8" width="13.5" height="7.61" rx="3.19" ry="3.19" transform="translate(464.41 82.03) rotate(45)"/>
    <rect class="cls-1" x="128.82" y="591.73" width="17" height="7.61" rx="3.19" ry="3.19" transform="translate(461.33 77.32) rotate(45)"/>
    <rect class="cls-1" x="133.69" y="585.83" width="17" height="7.61" rx="3.19" ry="3.19" transform="translate(458.59 72.15) rotate(45)"/>
    <polyline class="cls-2" points="141.13 583.19 155.16 584.23 148.69 590.08"/>
    <path class="cls-2" d="M154.97,584.4s7.34,.15,4.61,5.42l-1.43,1.42-2.82,2.79"/>
    <path class="cls-2" d="M159.33,590.61c.24,0-.77-.08-.36-.04,2.12,.21,4.09,.41,4.98,1.72,.7,1.03,.39,2.32,.32,3.03-.12,1.06-.63,2.03-1.41,2.75-1.08,1-2.16,1.99-3.24,2.99"/>
    <path class="cls-2" d="M163.91,597.29c.19,0-.62-.07-.3-.03,1.72,.18,3.32,.35,4.05,1.47,.57,.88,.32,1.98,.26,2.59-.1,.9-.51,1.74-1.15,2.35-.88,.85-1.76,1.7-2.64,2.56"/>
    <path class="cls-2" d="M167.85,603.13c.11,0-.36-.05-.17-.02,.99,.14,1.91,.28,2.33,1.16,.33,.69,.18,1.56,.15,2.03-.05,.71-.29,1.36-.66,1.85-.51,.67-3.8,3.86-4.31,4.53"/>
    <path class="cls-2" d="M126.02,611.86l-5.67,5.5,15.91,16.34,7.57-7.23s7.74-.09,9.36-.09,3.83-2.98,3.83-2.98"/>
    <polyline class="cls-2" points="168.03 610.21 174.39 617.1 160.19 631.48 154.97 626.55"/>
    <rect class="cls-2" x="121.89" y="613.84" width="7.23" height="28.72" rx="2.97" ry="2.97" transform="translate(-407.44 272.75) rotate(-45)"/>
    <rect class="cls-2" x="165.85" y="613.32" width="7.23" height="28.72" rx="2.97" ry="2.97" transform="translate(493.47 64.01) rotate(45)"/>
    <circle class="cls-24" cx="161.14" cy="619.34" r="1.76"/>
    <line class="cls-2" x1="122.22" y1="570.21" x2="129.37" y2="577.53"/>
    <line class="cls-2" x1="148.14" y1="569.44" x2="148.14" y2="578.46"/>
    <line class="cls-2" x1="173.8" y1="570.21" x2="166.56" y2="577.02"/>
    <ellipse class="cls-2" cx="77.77" cy="636.64" rx="6.89" ry="5.02" transform="translate(-307.9 124.18) rotate(-30)"/>
    <path class="cls-2" d="M74.92,642.1c-.76-.13-1.53-.18-2.3-.15-.66,.03-1.33,.12-1.93,.4s-1.11,.79-1.29,1.42c-.15,.55-.04,1.14,.19,1.66,.48,1.08,1.51,1.9,2.68,2.13,.52,.1,1.05,.09,1.57,.07,5.54-.22,11.08-1.74,15.7-4.8,1.25-.83,2.44-1.77,3.34-2.97s1.49-2.67,1.43-4.16c-.02-.42-.09-.85-.33-1.2-.32-.45-.9-.67-1.45-.66s-1.09,.2-1.58,.45c-2.52,1.25-4.27,3.67-6.72,5.06-.7,.39-1.44,.7-2.18,1-2.63,1.07-5.38,2.17-8.21,1.92"/>
    <path class="cls-2" d="M71.14,639.36c-2.5,.24-5.09,.58-7.19,1.97-.92,.61-1.7,1.4-2.48,2.18-1.67,1.69-3.34,3.38-5.02,5.07-2.58,2.6-5.25,5.36-6.26,8.89-.18,.63-.31,1.31-.13,1.95,.24,.84,.96,1.44,1.65,1.99,1.85,1.46,3.73,2.89,5.64,4.28,.86,.62,1.82,1.44,1.73,2.49-.06,.73-.61,1.31-1.13,1.82-1.44,1.41-2.89,2.81-4.36,4.19-1.28,1.2-2.62,2.46-3.23,4.11s-.22,3.82,1.33,4.65c1.08,.58,2.45,.37,3.53-.23s1.91-1.53,2.73-2.45c2.1-2.36,4.2-4.71,6.3-7.07,1.57-1.76,3.23-3.77,3.18-6.12-.05-2.09-1.44-3.87-2.8-5.46-3.21-3.75-6.62-7.35-10.19-10.76"/>
    <path class="cls-2" d="M64.1,660.23c4.29-3.53,7.61-8.07,10.89-12.56"/>
    <path class="cls-2" d="M50.17,657.2l-8.12,11.27c-.89,1.24-1.79,2.49-2.88,3.57-3.45,3.42-8.45,4.83-12.1,8.03-1,.88-1.94,2.05-1.81,3.38,.09,.87,.65,1.63,1.3,2.21,.36,.31,.77,.6,1.25,.66,.5,.07,1-.12,1.46-.32,4.39-1.84,8.39-4.53,12.11-7.5,1.48-1.19,2.93-2.42,4.24-3.8,1.8-1.89,3.33-4.01,4.85-6.12,.94-1.3,1.87-2.6,2.81-3.9,.39-.55,.81-1.18,.67-1.84"/>
    <path class="cls-2" d="M69.52,639.8c-2.48-.9-5.19-.99-7.82-.85-4.26,.23-8.5,1.05-12.54,2.41-2.97,1-5.83,2.3-8.82,3.23-4.99,1.55-10.23,2.06-15.43,2.55,1.29,9.59,7.4,18.42,15.92,22.99-.31-.1-.5-.47-.41-.78"/>
    <line class="cls-2" x1="24.9" y1="701.82" x2="38.29" y2="688.97"/>
    <line class="cls-2" x1="39.61" y1="697.56" x2="49.52" y2="688.97"/>
    <polyline class="cls-2" points="45.86 705.48 84.24 668.8 81.83 666.33 96.41 663.24 93.44 676.8 90.63 674.33 63.22 702.24"/>
    <circle class="cls-24" cx="21.1" cy="705.48" r="2.04"/>
    <circle class="cls-24" cx="59.48" cy="705.48" r="2.04"/>
    <path class="cls-1" d="M329.61,683.35c2.72,20.85-16.73,34.98-37.36,34.98s-40.94-14.47-37.36-34.98c1.54-8.83,4.9-17.04,9.9-23.5,6.51-8.41,15.79-13.86,27.46-13.86,20.63,0,34.69,16.9,37.36,37.36Z"/>
    <line class="cls-1" x1="262.76" y1="651.09" x2="262.62" y2="662.91"/>
    <line class="cls-1" x1="323.27" y1="650.33" x2="323.27" y2="664.48"/>
    <circle class="cls-1" cx="262.76" cy="647.71" r="3.77"/>
    <circle class="cls-1" cx="274.09" cy="685.64" r="5.27"/>
    <circle class="cls-1" cx="310.47" cy="685.64" r="5.27"/>
    <circle class="cls-1" cx="323.27" cy="647.07" r="3.77"/>
    <rect class="cls-1" x="260.46" y="672.16" width="65.04" height="34.72" rx="17.11" ry="17.11"/>
    <line class="cls-2" x1="290.84" y1="662.91" x2="294.67" y2="662.91"/>
    <line class="cls-2" x1="287.52" y1="666.16" x2="297.22" y2="666.16"/>
    <path class="cls-2" d="M285.93,692.97h12.38s.7,7.34-5.33,7.72-7.05-7.72-7.05-7.72Z"/>
    <polygon class="cls-2" points="414.16 632.2 395.62 649.88 388.44 656.73 375.35 669.22 362.71 674.59 367.69 661.82 380.71 649.36 387.93 642.44 406.75 624.42 414.16 632.2"/>
    <polygon class="cls-2" points="368.2 665.01 371.78 668.46 366.03 670.88 368.2 665.01"/>
    <line class="cls-2" x1="399.13" y1="631.71" x2="406.84" y2="639.18"/>
    <path class="cls-2" d="M382.88,637.56l5.05,4.88-7.22,6.92-5.06-4.82s-4.85,1.79-9.03-2.29c-4.17-4.09-4.76-6.9-3.14-12.26l6.97,6.81,5.11-4.51-7.49-6.9s6.47-3.23,11.15,1.28,3.66,10.89,3.66,10.89Z"/>
    <path class="cls-2" d="M406.11,661.65l-4.42,4.77,6.64,6.46s-4,3.92-10.47-.42c-6.47-4.34-4.17-10.73-4.17-10.73l-5.25-5,7.18-6.85,5.13,4.96s4.68-2.13,8.94,1.36c4.25,3.49,4.08,7.92,3.57,11.75l-7.15-6.3Z"/>
    <path class="cls-2" d="M496.75,718.59s1.45-19.41-3.06-20.77c-3.36-1.01-4.08,3.59-4.22,6v.05c-.01,.43-.02,.87-.04,1.35,0,0-.02-.55,.04-1.35v-.05c.07-9.02-3.16-8.62-5.91-8.13-2.11,.37-2.09,5.28-1.93,7.9,0,.04,0,.08,0,.11,.04,.63,.08,1.11,.11,1.35"/>
    <path class="cls-2" d="M481.77,705.22s0-.06-.02-.17c0-.24-.04-.72-.11-1.35,0-.03,0-.07,0-.11-.32-2.86-1.27-8.45-3.94-8.07-1.85,.27-2.56,3.01-2.81,5.6v.02c-.04,2.79-.08,4.68-.08,4.68,0,0-.16-2.27,.08-4.68v-.02c.02-1.42,.05-3.08,.07-4.83,.09-7.03,.14-15.6-.15-17.02-.13-.62-.29-1.14-.49-1.56"/>
    <path class="cls-2" d="M467.83,677.87c-.46,.77-.68,1.68-.67,2.6l.33,17.45"/>
    <path class="cls-2" d="M461.61,717.73s-10.36-12.19-3.66-15.06c0,0,3.91-2.94,8.68,7.32l.54,1.11,.32-13.53"/>
    <circle class="cls-2" cx="455.39" cy="690.09" r="4.34"/>
    <circle class="cls-2" cx="486.73" cy="656.33" r="4.34"/>
    <path class="cls-2" d="M467.83,677.87c.14-.27,.42-.66,.85-1.05,.61-.55,1.38-.77,2.29-.79,1.78-.02,2.75,.42,3.34,1.68"/>
    <path class="cls-2" d="M476.52,673.29c0,1.81-.87,3.41-2.21,4.42-.59-1.26-1.56-1.7-3.34-1.68-.91,.02-1.68,.24-2.29,.79-.34,.31-.63,.66-.85,1.05-1.46-1-2.42-2.68-2.42-4.58,0-3.07,2.49-5.56,5.56-5.56s5.55,2.49,5.55,5.56Z"/>
    <path class="cls-2" d="M470.46,650.46s-13.4,.38-19.4,10.6c-6,10.21-2.42,22.93,1.09,26.18"/>
    <path class="cls-2" d="M489.86,659.33s6.66,10.71,3.06,22.02c-3.65,11.49-17.49,13.09-17.49,13.09"/>
    <path class="cls-2" d="M467.38,685.33c-5.16-1.58-8.92-6.38-8.92-12.06,0-6.96,5.64-12.61,12.61-12.61s12.61,5.64,12.61,12.61c0,5.53-3.56,10.23-8.52,11.93"/>
    <circle class="cls-24" cx="476.14" cy="651.35" r="1.4"/>
    <circle class="cls-1" cx="546.03" cy="637.54" r="20.49"/>
    <circle class="cls-1" cx="546.03" cy="637.54" r="13.81"/>
    <polygon class="cls-2" points="543.16 634.05 545.65 629.14 548.71 634.37 554.65 635.39 550.24 639.35 551.07 644.58 546.03 642.29 540.48 644.84 541.5 639.54 536.71 635.14 543.16 634.05"/>
    <polyline class="cls-2" points="531.36 651.83 522.48 666.75 530.52 665.09 532.99 672.46 541.63 657.78"/>
    <polyline class="cls-2" points="550.08 657.62 558.48 672.46 561.2 665.04 569.2 666.58 560.22 652.32"/>
    <circle class="cls-6" cx="498.95" cy="243.46" r="11.27"/>
    <path class="cls-6" d="M473.92,237.91l1.63-5.68c.17-.59,.35-1.19,.73-1.67,1.12-1.41,3.29-1.08,5.06-.74s4.08,.27,4.76-1.39c.84-2.03-1.67-4.64-.29-6.34,.36-.45,.91-.68,1.44-.91,1.16-.49,2.33-.96,3.49-1.43,.45-.18,.92-.36,1.41-.36,.98,0,1.79,.75,2.35,1.55s.98,1.71,1.69,2.38c1.6,1.5,4.31,1.25,6.03-.1,1.05-.82,1.87-2.01,3.13-2.44,1.01-.34,2.11-.13,3.16,.09,1.82,.38,4,1.12,4.31,2.95,.22,1.3-.66,2.51-.82,3.82-.24,1.93,1.49,3.91,3.43,3.79,.93-.06,1.77-.53,2.66-.8s1.97-.32,2.63,.34c.42,.41,.57,1.01,.71,1.58,.48,1.95,.96,3.89,1.45,5.84,.08,.3,.15,.63,.04,.92-.11,.3-.37,.5-.64,.67-1.45,.93-3.43,1.45-4.01,3.08-.64,1.79,.94,3.65,2.66,4.48,.84,.41,1.85,.81,2.13,1.7,.17,.56,0,1.15-.17,1.71-.7,2.28-1.72,4.85-3.98,5.62-1.31,.44-2.73,.16-4.11,.16s-2.96,.43-3.52,1.68c-.75,1.66,.74,3.59,.35,5.37-.39,1.79-2.42,2.62-4.16,3.16-1.93,.6-4.35,1.09-5.72-.4-1.02-1.1-1.16-3.07-2.58-3.56-.57-.2-1.21-.07-1.76,.19-1.86,.9-2.71,3.24-4.59,4.11-1.29,.6-2.84,.38-4.12-.25s-2.33-1.62-3.37-2.59c-.26-.25-.53-.5-.69-.82-.2-.41-.2-.88-.16-1.33,.11-1.07,.46-2.11,.55-3.18s-.17-2.27-1.02-2.93c-1.35-1.04-3.27-.21-4.98-.26-1.56-.04-3.08-.91-3.9-2.24s-.91-3.08-.24-4.49c.7-1.48,2.11-2.48,3.16-3.74s1.73-3.18,.75-4.5c-.63-.85-1.72-1.16-2.68-1.61-1.32-.62-1.38-.33-2.23-1.51"/>
    <path class="cls-2" d="M522.85,237.33c3.87,.35,7.6,2.21,10.13,5.16s3.81,6.96,3.35,10.82c-.15,1.27-.48,2.52-.86,3.74-.48,1.54-1.06,3.07-1.93,4.42-1.1,1.71-2.66,3.13-4.49,4.01-1.04,.5-2.15,.83-3.27,1.1-2.4,.57-4.88,.86-7.33,.6s-4.87-1.06-6.85-2.53c.1-.2,.2-.39,.3-.59"/>
    <path class="cls-2" d="M522.3,233.79c1.07-2.6,2.14-5.19,3.21-7.79,.15-.37,.32-.77,.66-1,.39-.27,.9-.26,1.37-.2,3.08,.37,5.83,2.06,8.47,3.7,.62,.38,1.26,.8,1.6,1.44,.54,1.05,.09,2.33-.48,3.36s-1.3,2.07-1.3,3.25c0,1.61,1.55,3,3.16,2.96,1.78-.04,3.18-1.44,4.74-2.28,1.01-.55,2.15-.88,3.3-.96,1.1-.08,2.31,.12,3.08,.93,.44,.47,.69,1.09,.9,1.69,.52,1.47,.94,2.98,1.25,4.51,.12,.6,.23,1.22,.09,1.81-.25,1.07-1.22,1.8-2.21,2.28s-2.06,.81-2.91,1.51c-1.89,1.56-2.01,4.48-1.24,6.82,.21,.64,.49,1.28,.94,1.79,1.25,1.37,3.43,1.36,4.96,2.41,.57,.39,1.05,.96,1.15,1.64,.1,.68-.19,1.35-.5,1.95-.51,.98-1.11,1.91-1.79,2.78-.98,1.26-2.29,2.54-3.85,2.2-1.13-.24-2.07-1.06-3.2-1.28-1.09-.21-2.22,.18-3.13,.82s-1.6,1.52-2.27,2.41c-.83,1.11-1.63,2.3-1.91,3.66-.24,1.15-.08,2.34,.15,3.49,.24,1.17,.53,2.53-.23,3.46-.4,.49-1,.74-1.58,.97-.76,.31-1.52,.61-2.28,.92-1.17,.47-2.61,.92-3.62,.17-.76-.56-.97-1.59-1.02-2.53s.01-1.92-.39-2.78c-.78-1.65-2.89-2.09-4.7-2.26-1.43-.13-2.88-.23-4.28,.06s-2.78,.98-3.6,2.16c-.86,1.22-1.1,2.91-2.3,3.79-1.38,1.02-3.36,.48-4.82-.43-.94-.59-1.83-1.37-2.16-2.42-.48-1.5,.29-3.09,.96-4.51,1.14-2.43,2.08-4.96,2.78-7.56"/>
    <polygon class="cls-2" points="205.47 97.51 223.09 71.07 250.15 97.51 205.47 97.51"/>
    <line class="cls-2" x1="226.41" y1="74.32" x2="211.21" y2="96.85"/>
    <line class="cls-2" x1="231.57" y1="79.36" x2="218.94" y2="97.51"/>
    <line class="cls-2" x1="235.76" y1="84.29" x2="227.81" y2="96.85"/>
    <line class="cls-2" x1="240.06" y1="88.44" x2="234.06" y2="97.51"/>
    <line class="cls-2" x1="244.23" y1="91.73" x2="241.21" y2="96.85"/>
    <polygon class="cls-2" points="447.16 495.07 478.18 488.21 479.38 526.02 447.16 495.07"/>
    <line class="cls-2" x1="478.33" y1="492.85" x2="451.76" y2="498.57"/>
    <line class="cls-2" x1="478.56" y1="500.06" x2="456.87" y2="504.4"/>
    <line class="cls-2" x1="478.16" y1="506.52" x2="463.73" y2="510.07"/>
    <line class="cls-2" x1="478.4" y1="512.49" x2="467.78" y2="514.88"/>
    <line class="cls-2" x1="479.12" y1="517.75" x2="473.4" y2="519.36"/>
    <rect class="cls-2" x="368.38" y="18.21" width="35.13" height="35.13"/>
    <rect class="cls-2" x="380.98" y="7.21" width="35.13" height="35.13"/>
    <g>
      <rect class="cls-2" x="2.97" y="386.4" width="19.01" height="19.01"/>
      <rect class="cls-2" x="9.78" y="380.44" width="19.01" height="19.01"/>
    </g>
    <g>
      <rect class="cls-2" x="539.41" y="302.36" width="19.01" height="19.01"/>
      <rect class="cls-2" x="546.23" y="296.41" width="19.01" height="19.01"/>
    </g>
    <g>
      <rect class="cls-2" x="94.74" y="530.97" width="19.01" height="19.01"/>
      <rect class="cls-2" x="101.56" y="525.02" width="19.01" height="19.01"/>
    </g>
    <polygon class="cls-2" points="145.46 523.88 156.78 554.69 172.27 527.46 145.46 523.88"/>
    <g>
      <line class="cls-2" x1="465.96" y1="187.01" x2="465.96" y2="195.1"/>
      <line class="cls-2" x1="454.61" y1="196.87" x2="464.22" y2="196.87"/>
      <line class="cls-2" x1="465.96" y1="198.36" x2="465.96" y2="207.09"/>
      <line class="cls-2" x1="467.98" y1="196.87" x2="477.01" y2="196.87"/>
    </g>
    <g>
      <line class="cls-2" x1="136.66" y1=".5" x2="136.66" y2="8.59"/>
      <line class="cls-2" x1="125.31" y1="10.36" x2="134.92" y2="10.36"/>
      <line class="cls-2" x1="136.66" y1="11.85" x2="136.66" y2="20.59"/>
      <line class="cls-2" x1="138.68" y1="10.36" x2="147.71" y2="10.36"/>
    </g>
    <g>
      <line class="cls-2" x1="450.47" y1="71.58" x2="450.47" y2="79.67"/>
      <line class="cls-2" x1="439.12" y1="81.44" x2="448.73" y2="81.44"/>
      <line class="cls-2" x1="450.47" y1="82.94" x2="450.47" y2="91.67"/>
      <line class="cls-2" x1="452.49" y1="81.44" x2="461.52" y2="81.44"/>
    </g>
    <g>
      <line class="cls-2" x1="245.01" y1="26.01" x2="245.01" y2="34.54"/>
      <line class="cls-2" x1="233.03" y1="36.41" x2="243.17" y2="36.41"/>
      <line class="cls-2" x1="245.01" y1="37.99" x2="245.01" y2="47.21"/>
      <line class="cls-2" x1="247.15" y1="36.41" x2="256.67" y2="36.41"/>
    </g>
    <g>
      <line class="cls-2" x1="29.36" y1="87.45" x2="29.36" y2="101.25"/>
      <line class="cls-2" x1="9.99" y1="104.27" x2="26.4" y2="104.27"/>
      <line class="cls-2" x1="29.36" y1="106.82" x2="29.36" y2="121.72"/>
      <line class="cls-2" x1="32.82" y1="104.27" x2="48.22" y2="104.27"/>
    </g>
    <g>
      <line class="cls-2" x1="58.28" y1="478.26" x2="58.28" y2="487.07"/>
      <line class="cls-2" x1="45.91" y1="489" x2="56.39" y2="489"/>
      <line class="cls-2" x1="58.28" y1="490.63" x2="58.28" y2="500.14"/>
      <line class="cls-2" x1="60.49" y1="489" x2="70.32" y2="489"/>
    </g>
    <g>
      <line class="cls-2" x1="362.94" y1="493.77" x2="362.94" y2="504.52"/>
      <line class="cls-2" x1="347.86" y1="506.87" x2="360.64" y2="506.87"/>
      <line class="cls-2" x1="362.94" y1="508.86" x2="362.94" y2="520.46"/>
      <line class="cls-2" x1="365.63" y1="506.87" x2="377.62" y2="506.87"/>
    </g>
    <g>
      <line class="cls-2" x1="342.19" y1="385.58" x2="342.19" y2="392.49"/>
      <line class="cls-2" x1="332.49" y1="394" x2="340.71" y2="394"/>
      <line class="cls-2" x1="342.19" y1="395.28" x2="342.19" y2="402.74"/>
      <line class="cls-2" x1="343.92" y1="394" x2="351.64" y2="394"/>
    </g>
    <g>
      <line class="cls-2" x1="192.7" y1="315.06" x2="192.7" y2="321.97"/>
      <line class="cls-2" x1="183" y1="323.48" x2="191.22" y2="323.48"/>
      <line class="cls-2" x1="192.7" y1="324.76" x2="192.7" y2="332.22"/>
      <line class="cls-2" x1="194.43" y1="323.48" x2="202.15" y2="323.48"/>
    </g>
    <g>
      <line class="cls-2" x1="215.87" y1="573.8" x2="215.87" y2="580.89"/>
      <line class="cls-2" x1="205.92" y1="582.45" x2="214.34" y2="582.45"/>
      <line class="cls-2" x1="215.87" y1="583.76" x2="215.87" y2="591.41"/>
      <line class="cls-2" x1="217.64" y1="582.45" x2="225.55" y2="582.45"/>
    </g>
    <g>
      <line class="cls-2" x1="439.85" y1="613.85" x2="439.85" y2="623.86"/>
      <line class="cls-2" x1="425.79" y1="626.05" x2="437.7" y2="626.05"/>
      <line class="cls-2" x1="439.85" y1="627.9" x2="439.85" y2="638.71"/>
      <line class="cls-2" x1="442.35" y1="626.05" x2="453.53" y2="626.05"/>
    </g>
    <g>
      <line class="cls-2" x1="557.95" y1="439.54" x2="557.95" y2="449.55"/>
      <line class="cls-2" x1="543.9" y1="451.75" x2="555.8" y2="451.75"/>
      <line class="cls-2" x1="557.95" y1="453.6" x2="557.95" y2="464.41"/>
      <line class="cls-2" x1="560.46" y1="451.75" x2="571.63" y2="451.75"/>
    </g>
    <g>
      <line class="cls-2" x1="475.51" y1="352.2" x2="475.51" y2="363.44"/>
      <line class="cls-2" x1="459.73" y1="365.91" x2="473.1" y2="365.91"/>
      <line class="cls-2" x1="475.51" y1="367.98" x2="475.51" y2="380.12"/>
      <line class="cls-2" x1="478.33" y1="365.91" x2="490.88" y2="365.91"/>
    </g>
    <rect class="cls-1" x="354.75" y="588.56" width="25.24" height="19.78"/>
    <polyline class="cls-2" points="92.49 303.21 105 316.36 105 279.72 120.13 308.14 125.43 293.08 145.85 308.91 162.47 275.97 174.96 296.27 196.66 275.97"/>
    <circle class="cls-14" cx="145.31" cy="308.25" r="3.63"/>
    <circle class="cls-14" cx="93.48" cy="304.62" r="3.63"/>
    <circle class="cls-14" cx="105.81" cy="281.05" r="3.63"/>
    <circle class="cls-14" cx="105.81" cy="316.36" r="3.63"/>
    <circle class="cls-14" cx="126.04" cy="293.97" r="3.63"/>
    <circle class="cls-14" cx="120.68" cy="308.25" r="3.63"/>
    <circle class="cls-14" cx="161.85" cy="277.42" r="3.63"/>
    <circle class="cls-14" cx="175.4" cy="295.56" r="3.63"/>
    <circle class="cls-14" cx="196.76" cy="276.63" r="3.63"/>
    <g>
      <path class="cls-9" d="M103.11,497.36l11.96,.13s4.3,.07,7.19-2.09c3.9-2.91,4.3-16.35,4.3-16.35h-29.32s.21,9.54,.94,10.35"/>
      <ellipse class="cls-9" cx="100.76" cy="493.53" rx="5.87" ry="4.25" transform="translate(-367.39 307.62) rotate(-56.8)"/>
      <path class="cls-9" d="M96.4,497.12h-3.17s-.6,3.65,2.6,4.16,4.93,.21,4.93,.21c0,0-.21,3.06,3.07,3.32s16.6,0,16.6,0c0,0,2.21-1.19,2.81-3.62l4.21,.09s3.4-.99,3.28-4.16l-27.36,.24"/>
      <path class="cls-9" d="M126.26,479.05s7.6-.76,8.11,5.56-7.6,7.17-9.26,6.59"/>
      <path class="cls-9" d="M126.34,482.25s4.06-.03,4,2-.45,3.87-4.73,3.33"/>
      <path class="cls-9" d="M103.24,488.27s-.41,4.72-2.48,5.26-2.81,5.13-2.81,5.13"/>
      <path class="cls-2" d="M105.45,466.42s-2.55,1.91-1.15,3.64,1.94,3.45,.36,5.36"/>
      <path class="cls-2" d="M111.96,463.42s-2.04,2.04-1.34,3.96,2.43,3.05,2.43,4.53-1.66,3.52-1.66,3.52"/>
      <path class="cls-2" d="M118.79,466.42s-1.65-.19-1.08,2.36,2.1,1.9,1.53,4.02-1.53,2.94-1.53,2.94"/>
    </g>
    <rect class="cls-2" x="227.81" y="197.9" width="18.09" height="18.09"/>
    <rect class="cls-2" x="279.04" y="7.02" width="18.09" height="18.09"/>
    <rect class="cls-2" x="480.22" y="551.45" width="18.09" height="18.09"/>
    <rect class="cls-2" x="519.96" y="36.85" width="18.09" height="18.09"/>
    <rect class="cls-2" x="4.8" y="611.8" width="18.09" height="18.09"/>
    <g>
      <circle class="cls-1" cx="251.65" cy="284.68" r="12.97"/>
      <circle class="cls-1" cx="251.65" cy="284.68" r="10"/>
      <path class="cls-2" d="M255.81,280.59s-3.89-3.84-7.37,.52,3.11,12.98,7.06,7.42"/>
      <line class="cls-2" x1="245.76" y1="282.82" x2="252.65" y2="282.82"/>
      <line class="cls-2" x1="245.76" y1="286.09" x2="252.65" y2="286.09"/>
    </g>
    <g>
      <circle class="cls-1" cx="219.34" cy="637.2" r="19.1"/>
      <circle class="cls-1" cx="219.34" cy="637.2" r="14.73"/>
      <path class="cls-2" d="M225.47,631.17s-5.74-5.66-10.86,.76c-5.12,6.42,4.59,19.12,10.4,10.94"/>
      <line class="cls-2" x1="210.66" y1="634.46" x2="220.81" y2="634.46"/>
      <line class="cls-2" x1="210.66" y1="639.27" x2="220.81" y2="639.27"/>
    </g>
    <g>
      <circle class="cls-1" cx="119.01" cy="180.73" r="19.1"/>
      <circle class="cls-1" cx="119.01" cy="180.73" r="14.73"/>
      <path class="cls-2" d="M125.14,174.7s-5.74-5.66-10.86,.76,4.59,19.12,10.4,10.94"/>
      <line class="cls-2" x1="110.33" y1="177.99" x2="120.48" y2="177.99"/>
      <line class="cls-2" x1="110.33" y1="182.81" x2="120.48" y2="182.81"/>
    </g>
    <polyline class="cls-1" points="442.88 300.96 452.2 300.96 452.2 317.69 426.67 317.69 426.67 300.96 436.37 300.96"/>
    <line class="cls-1" x1="437.01" y1="294.03" x2="437.01" y2="317.69"/>
    <line class="cls-1" x1="442.76" y1="294.03" x2="442.76" y2="317.69"/>
    <rect class="cls-1" x="424.88" y="294.03" width="30.89" height="6.93"/>
    <path class="cls-1" d="M440.33,293.58s1.58-5.96,3.06-6.83,4.28-1.79,5.3,.38,1.21,4.02-.51,5.17-7.85,1.28-7.85,1.28Z"/>
    <path class="cls-1" d="M439.48,293.33s-6.17-.13-7.36-1.37-2.75-3.73-.88-5.24,3.62-2.13,5.14-.72,3.09,7.33,3.09,7.33Z"/>
    <g>
      <line class="cls-2" x1="420.63" y1="273.44" x2="420.63" y2="277.31"/>
      <line class="cls-2" x1="415.2" y1="278.15" x2="419.79" y2="278.15"/>
      <line class="cls-2" x1="420.63" y1="278.87" x2="420.63" y2="283.04"/>
      <line class="cls-2" x1="421.59" y1="278.15" x2="425.91" y2="278.15"/>
    </g>
    <g>
      <line class="cls-2" x1="444.18" y1="271.68" x2="444.18" y2="275.54"/>
      <line class="cls-2" x1="438.76" y1="276.39" x2="443.35" y2="276.39"/>
      <line class="cls-2" x1="444.18" y1="277.11" x2="444.18" y2="281.28"/>
      <line class="cls-2" x1="445.15" y1="276.39" x2="449.47" y2="276.39"/>
    </g>
    <g>
      <line class="cls-2" x1="458.95" y1="283.54" x2="458.95" y2="286.56"/>
      <line class="cls-2" x1="454.71" y1="287.23" x2="458.3" y2="287.23"/>
      <line class="cls-2" x1="458.95" y1="287.79" x2="458.95" y2="291.05"/>
      <line class="cls-2" x1="459.71" y1="287.23" x2="463.09" y2="287.23"/>
    </g>
    <rect class="cls-24" x="419.79" y="287.79" width="1.8" height="1.8"/>
    <rect class="cls-24" x="431.22" y="278.87" width="3.7" height="2.41"/>
    <rect class="cls-24" x="460.67" y="303.01" width="2.41" height="3.37"/>
    <circle class="cls-1" cx="419.81" cy="307.93" r="2.67"/>
    <circle class="cls-1" cx="458.3" cy="277.11" r="2.67"/>
    <circle class="cls-1" cx="220.53" cy="131.78" r="10.4"/>
    <circle class="cls-1" cx="320.16" cy="202.95" r="10.4"/>
    <circle class="cls-1" cx="377.62" cy="287.79" r="10.4"/>
    <circle class="cls-1" cx="515.65" cy="443.72" r="10.4"/>
    <circle class="cls-1" cx="22.17" cy="240.13" r="7.97"/>
    <g>
      <rect class="cls-2" x="481.08" y="620.22" width="19.01" height="19.01"/>
      <rect class="cls-2" x="487.89" y="614.27" width="19.01" height="19.01"/>
    </g>
    <g>
      <polyline class="cls-2" points="471.49 425.52 501.98 402.37 483.64 405.68"/>
      <line class="cls-2" x1="499.05" y1="417.4" x2="501.98" y2="402.93"/>
    </g>
    <g>
      <polyline class="cls-2" points="261.15 517.64 242.15 484.4 243.06 503.02"/>
      <line class="cls-2" x1="256.67" y1="489.26" x2="242.71" y2="484.47"/>
    </g>
    <g>
      <circle class="cls-1" cx="450.47" cy="148.04" r="19.1"/>
      <circle class="cls-1" cx="450.47" cy="148.04" r="14.73"/>
      <path class="cls-2" d="M456.6,142.01s-5.74-5.66-10.86,.76c-5.12,6.42,4.59,19.12,10.4,10.94"/>
      <line class="cls-2" x1="441.79" y1="145.3" x2="451.93" y2="145.3"/>
      <line class="cls-2" x1="441.79" y1="150.11" x2="451.93" y2="150.11"/>
    </g>
    <path class="cls-2" d="M32.6,201.11s4.81-9.57,10.53-1.59-8.58,15.81-8.58,15.81l13.67,2.08"/>
    <path class="cls-2" d="M70.88,206.05s6.69-8.36,10.63,.63-11.68,13.67-11.68,13.67l12.94,4.88"/>
    <line class="cls-2" x1="53.27" y1="206.32" x2="67.06" y2="209.71"/>
    <line class="cls-2" x1="61.48" y1="201.09" x2="57.32" y2="213.88"/>
    <line class="cls-2" x1="87.82" y1="213.11" x2="98.29" y2="218.22"/>
    <line class="cls-2" x1="86.29" y1="218.22" x2="94.8" y2="222.98"/>
    <polyline class="cls-2" points="104.2 213.11 102.67 221.79 112.16 223.83"/>
    <line class="cls-2" x1="113.79" y1="214.98" x2="111.22" y2="232.48"/>
    <path class="cls-2" d="M515.09,175.07v-7.82c0-2.61,2.11-4.72,4.72-4.72h6.47"/>
    <path class="cls-2" d="M526.62,203.08h-6.81c-2.61,0-4.72-2.11-4.72-4.72v-7.43"/>
    <path class="cls-2" d="M555.64,191.16v7.2c0,2.61-2.11,4.72-4.72,4.72h-7.11"/>
    <line class="cls-2" x1="555.64" y1="174.18" x2="555.64" y2="174.34"/>
    <path class="cls-2" d="M543,162.53h7.93c2.61,0,4.72,2.11,4.72,4.72v6.93"/>
    <polygon class="cls-2" points="523.13 175.51 535.39 168.62 547.22 175.51 535.57 182.4 523.5 175.71 523.13 175.51"/>
    <polyline class="cls-2" points="523.13 175.51 522.88 189.89 534.96 196.79 535.13 182.4"/>
    <polyline class="cls-2" points="534.96 196.79 547.64 189.38 547.18 175.34"/>
  </g>
</svg>