<?xml version="1.0" encoding="UTF-8"?>
<svg id="Layer_2" data-name="Layer 2" xmlns="http://www.w3.org/2000/svg" viewBox="0 0 800.06 50.47">
  <defs>
    <style>
      .cls-1 {
        fill: #e21f26;
      }

      .cls-2 {
        fill: #0a4a7b;
      }

      .cls-3 {
        fill: #231f20;
      }
    </style>
  </defs>
  <g id="Layer_1-2" data-name="Layer 1">
    <g>
      <g>
        <path class="cls-3" d="M406.85,12.05h-36.85v24.24c0,6.95,5.66,12.61,12.61,12.61h11.64c6.95,0,12.61-5.66,12.61-12.61V12.05Zm-34.91,1.94h32.97v9.7h-11.64v11.64h-9.7v-11.64h-11.64V13.99Zm32.97,22.3c0,5.88-4.79,10.67-10.67,10.67h-11.64c-5.88,0-10.67-4.79-10.67-10.67v-10.67h9.7v11.64h13.58v-11.64h9.7v10.67Z"/>
        <g>
          <path class="cls-3" d="M423.8,23.49h-4.52v4.07h-1.61v-9.7h6.43v1.4h-4.82v2.84h4.52v1.39Z"/>
          <path class="cls-3" d="M429.82,27.56l-.07-.8c-.38,.64-1.14,.96-2.29,.96-.87,0-1.5-.2-1.89-.6-.39-.4-.59-.94-.59-1.61,0-1.49,.89-2.23,2.66-2.23h2.01v-.55c0-.98-.5-1.47-1.5-1.47-.49,0-.87,.09-1.13,.28-.26,.19-.4,.44-.4,.74v.11h-1.44v-.11c0-.65,.25-1.18,.76-1.6,.5-.42,1.25-.63,2.25-.63,1.99,0,2.98,.91,2.98,2.73v4.79h-1.36Zm-1.94-1.04c.6,0,1.05-.14,1.34-.43,.29-.29,.44-.67,.44-1.16v-.54h-1.77c-.9,0-1.34,.35-1.34,1.05s.45,1.08,1.34,1.08Z"/>
          <path class="cls-3" d="M434.57,25.46v2.11h-1.52v-10.11h1.52v6.02l2.95-3.28h1.82l-2.8,3.1,2.98,4.27h-1.8l-2.19-3.16-.96,1.06Z"/>
          <path class="cls-3" d="M445.4,27.56l-.08-.97c-.45,.75-1.21,1.12-2.26,1.12-.8,0-1.44-.24-1.9-.73-.46-.49-.69-1.12-.69-1.91v-4.89h1.52v4.53c0,1.09,.51,1.63,1.54,1.63,1.13,0,1.69-.65,1.69-1.95v-4.21h1.54v7.37h-1.36Z"/>
          <path class="cls-3" d="M450.25,27.56h-1.54v-10.11h1.54v10.11Z"/>
          <path class="cls-3" d="M456.19,26.29v1.27h-.96c-1.02,0-1.72-.21-2.1-.62-.38-.41-.57-1-.57-1.75v-3.8h-1.01v-1.18h1.01v-1.88h1.54v1.88h1.9v1.18h-1.9v3.7c0,.42,.1,.72,.3,.91,.2,.19,.56,.28,1.07,.28h.72Z"/>
          <path class="cls-3" d="M461.92,27.56l-.07-.8c-.38,.64-1.14,.96-2.29,.96-.87,0-1.5-.2-1.89-.6-.39-.4-.59-.94-.59-1.61,0-1.49,.89-2.23,2.66-2.23h2.01v-.55c0-.98-.5-1.47-1.5-1.47-.49,0-.87,.09-1.13,.28-.26,.19-.4,.44-.4,.74v.11h-1.44v-.11c0-.65,.25-1.18,.76-1.6,.5-.42,1.25-.63,2.25-.63,1.99,0,2.98,.91,2.98,2.73v4.79h-1.36Zm-1.94-1.04c.6,0,1.05-.14,1.34-.43,.29-.29,.44-.67,.44-1.16v-.54h-1.77c-.9,0-1.34,.35-1.34,1.05s.45,1.08,1.34,1.08Z"/>
          <path class="cls-3" d="M474.13,25.43c0,.28-.04,.54-.13,.78-.09,.24-.24,.48-.44,.72-.21,.24-.52,.42-.94,.57-.42,.14-.93,.21-1.52,.21s-1.12-.08-1.55-.25c-.43-.17-.76-.39-.99-.69-.23-.29-.39-.6-.49-.92-.1-.32-.15-.67-.15-1.05v-1.82c0-.81,.25-1.51,.76-2.09,.5-.58,1.31-.87,2.42-.87,.56,0,1.06,.09,1.48,.26,.42,.17,.74,.4,.97,.7,.23,.3,.39,.61,.5,.94,.11,.33,.16,.68,.16,1.05v1.32h-4.77v.65c0,.45,.13,.83,.4,1.13,.26,.3,.69,.45,1.28,.45s.98-.11,1.23-.34c.25-.23,.37-.5,.37-.81v-.11h1.43v.15Zm-4.71-2.66v.42h3.3v-.42c0-.43-.13-.8-.39-1.11-.26-.3-.68-.46-1.25-.46s-1,.15-1.26,.46c-.26,.3-.39,.67-.39,1.11Z"/>
          <path class="cls-3" d="M477.37,27.56h-1.54v-10.11h1.54v10.11Z"/>
          <path class="cls-3" d="M485.3,25.43c0,.28-.04,.54-.13,.78-.09,.24-.24,.48-.44,.72-.21,.24-.52,.42-.94,.57-.42,.14-.93,.21-1.52,.21s-1.12-.08-1.55-.25c-.43-.17-.76-.39-.99-.69-.23-.29-.39-.6-.49-.92-.1-.32-.15-.67-.15-1.05v-1.82c0-.81,.25-1.51,.76-2.09,.5-.58,1.31-.87,2.42-.87,.56,0,1.06,.09,1.48,.26,.42,.17,.74,.4,.97,.7,.23,.3,.39,.61,.5,.94,.11,.33,.16,.68,.16,1.05v1.32h-4.77v.65c0,.45,.13,.83,.4,1.13,.26,.3,.69,.45,1.28,.45s.98-.11,1.23-.34c.25-.23,.37-.5,.37-.81v-.11h1.43v.15Zm-4.71-2.66v.42h3.3v-.42c0-.43-.13-.8-.39-1.11-.26-.3-.68-.46-1.25-.46s-1,.15-1.26,.46c-.26,.3-.39,.67-.39,1.11Z"/>
          <path class="cls-3" d="M488.51,25.46v2.11h-1.52v-10.11h1.52v6.02l2.95-3.28h1.82l-2.8,3.1,2.98,4.27h-1.8l-2.19-3.16-.96,1.06Z"/>
          <path class="cls-3" d="M498.46,26.29v1.27h-.96c-1.02,0-1.72-.21-2.1-.62-.38-.41-.57-1-.57-1.75v-3.8h-1.01v-1.18h1.01v-1.88h1.54v1.88h1.9v1.18h-1.9v3.7c0,.42,.1,.72,.3,.91,.2,.19,.56,.28,1.07,.28h.72Z"/>
          <path class="cls-3" d="M501.29,27.56h-1.52v-7.37h1.36l.1,1.19c.46-.88,1.33-1.32,2.6-1.32v1.47h-.29c-.78,0-1.34,.19-1.7,.58-.36,.39-.54,.92-.54,1.59v3.85Z"/>
          <path class="cls-3" d="M504.65,24.76v-1.77c0-.81,.25-1.51,.76-2.09,.51-.58,1.33-.87,2.45-.87,.6,0,1.12,.09,1.55,.26,.43,.17,.77,.4,1,.7,.24,.3,.41,.61,.51,.94,.11,.33,.16,.68,.16,1.06v1.77c0,.38-.05,.73-.16,1.07-.11,.33-.28,.64-.51,.94-.24,.29-.57,.52-1,.69-.43,.17-.95,.26-1.55,.26s-1.1-.09-1.54-.26c-.43-.17-.77-.4-1-.69-.24-.29-.41-.6-.51-.94-.11-.33-.16-.69-.16-1.07Zm4.92,.01v-1.8c0-.46-.13-.86-.4-1.18-.27-.33-.7-.49-1.3-.49s-1.02,.16-1.29,.49c-.27,.33-.4,.72-.4,1.18v1.8c0,.47,.13,.87,.4,1.2,.27,.33,.7,.49,1.29,.49s1.03-.16,1.3-.49c.27-.33,.4-.73,.4-1.2Z"/>
          <path class="cls-3" d="M516.71,26.29v1.27h-.96c-1.02,0-1.72-.21-2.1-.62-.38-.41-.57-1-.57-1.75v-3.8h-1.01v-1.18h1.01v-1.88h1.54v1.88h1.9v1.18h-1.9v3.7c0,.42,.1,.72,.3,.91,.2,.19,.56,.28,1.07,.28h.72Z"/>
          <path class="cls-3" d="M523.93,25.43c0,.28-.04,.54-.13,.78-.09,.24-.24,.48-.44,.72-.21,.24-.52,.42-.94,.57-.42,.14-.93,.21-1.52,.21s-1.12-.08-1.55-.25c-.43-.17-.76-.39-.99-.69-.23-.29-.39-.6-.49-.92-.1-.32-.15-.67-.15-1.05v-1.82c0-.81,.25-1.51,.76-2.09,.5-.58,1.31-.87,2.42-.87,.56,0,1.06,.09,1.48,.26,.42,.17,.74,.4,.97,.7,.23,.3,.39,.61,.5,.94,.11,.33,.16,.68,.16,1.05v1.32h-4.77v.65c0,.45,.13,.83,.4,1.13,.26,.3,.69,.45,1.28,.45s.98-.11,1.23-.34c.25-.23,.37-.5,.37-.81v-.11h1.43v.15Zm-4.71-2.66v.42h3.3v-.42c0-.43-.13-.8-.39-1.11-.26-.3-.68-.46-1.25-.46s-1,.15-1.26,.46c-.26,.3-.39,.67-.39,1.11Z"/>
          <path class="cls-3" d="M530.12,24.9h1.51v.14c0,.73-.25,1.36-.76,1.88-.5,.53-1.27,.79-2.31,.79-.58,0-1.09-.09-1.52-.26-.43-.17-.77-.4-1-.69-.24-.29-.41-.6-.51-.94-.11-.33-.16-.69-.16-1.07v-1.77c0-.38,.05-.73,.16-1.06,.11-.33,.28-.64,.51-.94,.24-.3,.57-.53,1-.7,.43-.17,.94-.26,1.52-.26,1.06,0,1.84,.26,2.32,.79,.48,.53,.73,1.15,.73,1.88v.14h-1.5v-.15c0-.39-.12-.72-.37-.99-.25-.27-.64-.41-1.18-.41-.58,0-1.01,.16-1.27,.49-.27,.33-.4,.72-.4,1.18v1.79c0,.46,.13,.86,.4,1.18,.27,.33,.69,.49,1.27,.49,.54,0,.93-.14,1.18-.41,.25-.27,.37-.6,.37-.99v-.14Z"/>
          <path class="cls-3" d="M534.7,27.56h-1.52v-10.11h1.52v3.6c.46-.67,1.2-1.01,2.22-1.01,.83,0,1.48,.26,1.95,.78,.47,.52,.7,1.2,.7,2.04v4.71h-1.54v-4.35c0-1.21-.53-1.82-1.58-1.82-.62,0-1.06,.18-1.34,.54-.27,.36-.41,.83-.41,1.41v4.21Z"/>
          <path class="cls-3" d="M542.96,27.56h-1.52v-7.37h1.36l.08,1c.44-.77,1.21-1.15,2.3-1.15,.83,0,1.48,.26,1.95,.78,.47,.52,.7,1.2,.7,2.04v4.71h-1.54v-4.35c0-1.21-.53-1.82-1.58-1.82-.62,0-1.06,.18-1.34,.54-.27,.36-.41,.83-.41,1.41v4.21Z"/>
          <path class="cls-3" d="M551.26,18.93h-1.57v-1.48h1.57v1.48Zm-.01,8.63h-1.54v-7.37h1.54v7.37Z"/>
          <path class="cls-3" d="M554.73,25.46v2.11h-1.52v-10.11h1.52v6.02l2.95-3.28h1.82l-2.8,3.1,2.98,4.27h-1.8l-2.19-3.16-.96,1.06Z"/>
          <path class="cls-3" d="M563.18,30.06h-1.45s.92-2.52,.92-2.52l-2.65-7.34h1.62l1.77,5.31,1.93-5.31h1.52l-3.66,9.86Z"/>
          <path class="cls-3" d="M421.95,43.08l-.07-.8c-.38,.64-1.14,.96-2.29,.96-.87,0-1.5-.2-1.89-.6-.39-.4-.59-.94-.59-1.61,0-1.49,.89-2.23,2.66-2.23h2.01v-.55c0-.98-.5-1.47-1.5-1.47-.49,0-.87,.09-1.13,.28-.26,.19-.4,.44-.4,.74v.11h-1.44v-.11c0-.65,.25-1.18,.76-1.6,.5-.42,1.25-.63,2.25-.63,1.99,0,2.98,.91,2.98,2.73v4.79h-1.36Zm-1.94-1.04c.6,0,1.05-.14,1.34-.43,.29-.29,.44-.67,.44-1.16v-.54h-1.77c-.9,0-1.34,.35-1.34,1.05s.45,1.08,1.34,1.08Z"/>
          <path class="cls-3" d="M429.75,34.45h-1.57v-1.48h1.57v1.48Zm-.01,8.63h-1.54v-7.37h1.54v7.37Z"/>
          <path class="cls-3" d="M433.22,43.08h-1.52v-7.37h1.36l.08,1c.44-.77,1.21-1.15,2.3-1.15,.83,0,1.48,.26,1.95,.78,.47,.52,.7,1.2,.7,2.04v4.71h-1.54v-4.35c0-1.21-.53-1.82-1.58-1.82-.62,0-1.06,.18-1.34,.54s-.41,.83-.41,1.41v4.21Z"/>
          <path class="cls-3" d="M443.69,36.92h-1.87v6.17h-1.54v-6.17h-.98v-1.18h.98v-.22c0-1.7,1-2.55,2.99-2.55h.6v1.21h-.67c-.92,0-1.39,.42-1.39,1.27v.29h1.87v1.18Z"/>
          <path class="cls-3" d="M444.51,40.28v-1.77c0-.81,.25-1.51,.76-2.09,.51-.58,1.33-.87,2.45-.87,.6,0,1.12,.09,1.55,.26,.43,.17,.77,.4,1,.7,.24,.3,.41,.61,.51,.94,.11,.33,.16,.68,.16,1.06v1.77c0,.38-.05,.73-.16,1.07-.11,.33-.28,.64-.51,.94-.24,.29-.57,.52-1,.69-.43,.17-.95,.26-1.55,.26s-1.1-.09-1.54-.26c-.43-.17-.77-.4-1-.69-.24-.29-.41-.6-.51-.94-.11-.33-.16-.69-.16-1.07Zm4.92,.01v-1.8c0-.46-.13-.86-.4-1.18-.27-.33-.7-.49-1.3-.49s-1.02,.16-1.29,.49c-.27,.33-.4,.72-.4,1.18v1.8c0,.47,.13,.87,.4,1.2,.27,.33,.7,.49,1.29,.49s1.03-.16,1.3-.49c.27-.33,.4-.73,.4-1.2Z"/>
          <path class="cls-3" d="M454.17,43.08h-1.52v-7.37h1.36l.1,1.19c.46-.88,1.33-1.32,2.6-1.32v1.47h-.29c-.78,0-1.34,.19-1.7,.58-.36,.39-.54,.92-.54,1.59v3.85Z"/>
          <path class="cls-3" d="M459.46,43.08h-1.52v-7.37h1.36l.08,.98c.43-.76,1.18-1.14,2.24-1.14,1.13,0,1.9,.46,2.31,1.39,.18-.43,.49-.77,.92-1.02,.43-.24,.94-.37,1.54-.37,.82,0,1.46,.26,1.91,.77,.45,.51,.68,1.19,.68,2.04v4.71h-1.52v-4.35c0-1.21-.51-1.82-1.54-1.82-1.14,0-1.7,.65-1.7,1.95v4.21h-1.52v-4.35c0-1.21-.51-1.82-1.54-1.82-1.14,0-1.7,.65-1.7,1.95v4.21Z"/>
          <path class="cls-3" d="M475.3,43.08l-.07-.8c-.38,.64-1.14,.96-2.29,.96-.87,0-1.5-.2-1.89-.6-.39-.4-.59-.94-.59-1.61,0-1.49,.89-2.23,2.66-2.23h2.01v-.55c0-.98-.5-1.47-1.5-1.47-.49,0-.87,.09-1.13,.28s-.4,.44-.4,.74v.11h-1.44v-.11c0-.65,.25-1.18,.76-1.6,.5-.42,1.25-.63,2.25-.63,1.99,0,2.98,.91,2.98,2.73v4.79h-1.36Zm-1.94-1.04c.6,0,1.05-.14,1.34-.43,.29-.29,.44-.67,.44-1.16v-.54h-1.77c-.9,0-1.34,.35-1.34,1.05s.45,1.08,1.34,1.08Z"/>
          <path class="cls-3" d="M482.47,41.81v1.27h-.96c-1.02,0-1.72-.21-2.1-.62-.38-.41-.57-1-.57-1.75v-3.8h-1.01v-1.18h1.01v-1.88h1.54v1.88h1.9v1.18h-1.9v3.7c0,.42,.1,.72,.3,.91,.2,.19,.56,.28,1.07,.28h.72Z"/>
          <path class="cls-3" d="M485.34,34.45h-1.57v-1.48h1.57v1.48Zm-.01,8.63h-1.54v-7.37h1.54v7.37Z"/>
          <path class="cls-3" d="M488.8,40.98v2.11h-1.52v-10.11h1.52v6.02l2.95-3.28h1.82l-2.8,3.1,2.98,4.27h-1.8l-2.19-3.16-.96,1.06Z"/>
          <path class="cls-3" d="M497.26,45.58h-1.45s.92-2.52,.92-2.52l-2.65-7.34h1.62l1.77,5.31,1.93-5.31h1.52l-3.66,9.86Z"/>
        </g>
      </g>
      <g>
        <path class="cls-3" d="M172.24,10.47h-40v26.32c0,7.55,6.14,13.68,13.68,13.68h12.63c7.55,0,13.68-6.14,13.68-13.68V10.47Zm-37.89,2.11h35.79v10.53h-12.63v12.63h-10.53v-12.63h-12.63V12.58Zm35.79,24.21c0,6.38-5.19,11.58-11.58,11.58h-12.63c-6.38,0-11.58-5.19-11.58-11.58v-11.58h10.53v12.63h14.74v-12.63h10.53v11.58Z"/>
        <g>
          <path class="cls-3" d="M191.23,18.32h-3.22v8.99h-1.74v-8.99h-3.22v-1.53h8.18v1.53Z"/>
          <path class="cls-3" d="M192.88,27.31v-10.53h6.87v1.47h-5.13v2.89h4.81v1.41h-4.81v3.28h5.34v1.47h-7.08Z"/>
          <path class="cls-3" d="M208.03,23.83h1.73v.42c0,.41-.07,.8-.2,1.16-.14,.36-.35,.7-.65,1.02-.3,.32-.71,.58-1.26,.77-.54,.19-1.18,.29-1.91,.29s-1.39-.11-1.93-.33c-.55-.22-.97-.52-1.27-.89-.3-.37-.52-.77-.66-1.2-.14-.43-.21-.88-.21-1.36v-3.32c0-.48,.07-.93,.21-1.35,.14-.42,.36-.82,.66-1.19,.3-.37,.72-.67,1.27-.89,.55-.22,1.19-.33,1.93-.33s1.37,.09,1.91,.28c.54,.19,.96,.44,1.26,.75,.3,.32,.51,.65,.65,1,.14,.35,.2,.73,.2,1.13v.36h-1.73v-.27c0-.47-.18-.87-.54-1.21-.36-.34-.94-.5-1.74-.5s-1.4,.22-1.77,.65c-.37,.43-.56,.96-.56,1.58v3.32c0,.63,.18,1.16,.55,1.59,.37,.43,.96,.65,1.78,.65s1.38-.17,1.74-.52,.54-.77,.54-1.27v-.33Z"/>
          <path class="cls-3" d="M218.25,27.31v-4.74h-4.72v4.74h-1.74v-10.53h1.74v4.27h4.72v-4.27h1.74v10.53h-1.74Z"/>
          <path class="cls-3" d="M229.34,27.31l-5.1-7.31v7.31h-1.65v-10.53h1.45l5.09,7.32v-7.32h1.67v10.53h-1.46Z"/>
          <path class="cls-3" d="M235.13,16.79v10.53h-1.74v-10.53h1.74Z"/>
          <path class="cls-3" d="M243.79,23.83h1.73v.42c0,.41-.07,.8-.2,1.16-.14,.36-.35,.7-.65,1.02-.3,.32-.71,.58-1.26,.77-.54,.19-1.18,.29-1.91,.29s-1.39-.11-1.93-.33c-.55-.22-.97-.52-1.27-.89-.3-.37-.52-.77-.66-1.2-.14-.43-.21-.88-.21-1.36v-3.32c0-.48,.07-.93,.21-1.35,.14-.42,.36-.82,.66-1.19,.3-.37,.72-.67,1.27-.89,.55-.22,1.19-.33,1.93-.33s1.37,.09,1.91,.28c.54,.19,.96,.44,1.26,.75,.3,.32,.51,.65,.65,1,.14,.35,.2,.73,.2,1.13v.36h-1.73v-.27c0-.47-.18-.87-.54-1.21-.36-.34-.94-.5-1.74-.5s-1.4,.22-1.77,.65c-.37,.43-.56,.96-.56,1.58v3.32c0,.63,.18,1.16,.55,1.59,.37,.43,.96,.65,1.78,.65s1.38-.17,1.74-.52c.36-.35,.54-.77,.54-1.27v-.33Z"/>
          <path class="cls-3" d="M249.3,24.41v2.9h-1.74v-10.53h1.74v5.34l4.59-5.34h2.08l-3.88,4.44,3.97,6.09h-2.09l-3.08-4.71-1.58,1.81Z"/>
          <path class="cls-3" d="M264.03,27.31l-.87-2.54h-4.03l-.86,2.54h-1.76l3.81-10.53h1.76l3.79,10.53h-1.83Zm-1.34-3.93l-1.55-4.55-1.54,4.55h3.09Zm.72-9.5l-1.55,2.15h-1.34l1.08-2.15h1.8Z"/>
          <path class="cls-3" d="M270.49,16.79h1.74v6.83c0,.65,.19,1.2,.56,1.65,.37,.45,.98,.68,1.83,.68s1.46-.23,1.83-.68c.37-.45,.56-1,.56-1.65v-6.83h1.74v6.92c0,.48-.07,.94-.21,1.36-.14,.43-.36,.82-.66,1.2-.3,.37-.73,.67-1.29,.89-.56,.22-1.22,.33-1.98,.33s-1.41-.11-1.97-.33c-.56-.22-.99-.52-1.29-.89-.3-.37-.52-.77-.66-1.2-.14-.43-.21-.88-.21-1.36v-6.92Z"/>
          <path class="cls-3" d="M288.02,27.31l-5.1-7.31v7.31h-1.65v-10.53h1.45l5.09,7.32v-7.32h1.67v10.53h-1.46Z"/>
          <path class="cls-3" d="M293.81,16.79v10.53h-1.74v-10.53h1.74Z"/>
          <path class="cls-3" d="M299.08,27.31l-3.67-10.53h1.86l2.76,8.13,2.73-8.13h1.77l-3.68,10.53h-1.77Z"/>
          <path class="cls-3" d="M306.1,27.31v-10.53h6.87v1.47h-5.13v2.89h4.81v1.41h-4.81v3.28h5.34v1.47h-7.08Z"/>
          <path class="cls-3" d="M319.25,23.51h-2.23v3.81h-1.74v-10.53h3.97c.78,0,1.45,.09,2.02,.27,.56,.18,.99,.43,1.29,.76,.3,.33,.52,.68,.65,1.06,.14,.38,.2,.8,.2,1.26,0,1.56-.69,2.58-2.08,3.05l1.91,4.12h-1.86l-1.74-3.82c-.09,0-.22,.01-.39,.01Zm0-5.25h-2.24v3.81h2.24c1.58,0,2.38-.63,2.38-1.9s-.79-1.91-2.38-1.91Z"/>
          <path class="cls-3" d="M325.08,16.79h7.51v1.4l-5.58,7.64h5.79v1.49h-7.98v-1.42l5.58-7.62h-5.32v-1.49Z"/>
          <path class="cls-3" d="M336.51,16.79v10.53h-1.74v-10.53h1.74Z"/>
          <path class="cls-3" d="M346.36,18.32h-3.22v8.99h-1.74v-8.99h-3.22v-1.53h8.18v1.53Z"/>
          <path class="cls-3" d="M353.46,27.31l-.87-2.54h-4.03l-.86,2.54h-1.76l3.81-10.53h1.76l3.79,10.53h-1.83Zm-1.34-3.93l-1.55-4.55-1.54,4.55h3.09Z"/>
          <path class="cls-3" d="M186.64,44.16l-3.67-10.53h1.86l2.76,8.13,2.73-8.13h1.77l-3.68,10.53h-1.77Z"/>
          <path class="cls-3" d="M198.57,41.26v2.9h-1.74v-10.53h1.74v5.34l4.59-5.34h2.08l-3.88,4.44,3.97,6.09h-2.09l-3.08-4.71-1.58,1.81Z"/>
          <path class="cls-3" d="M212.16,43.99c-.56,.22-1.22,.33-1.99,.33s-1.42-.11-1.98-.33c-.56-.22-.99-.52-1.29-.89-.31-.37-.53-.77-.67-1.2-.14-.43-.21-.88-.21-1.36v-3.32c0-.48,.07-.93,.21-1.35,.14-.42,.36-.82,.67-1.19,.31-.37,.74-.67,1.29-.89,.56-.22,1.22-.33,1.98-.33s1.42,.11,1.99,.33c.56,.22,.99,.52,1.3,.89,.31,.37,.53,.77,.67,1.19,.14,.42,.21,.87,.21,1.35v3.32c0,.48-.07,.94-.21,1.36-.14,.43-.36,.82-.67,1.2-.31,.37-.74,.67-1.3,.89Zm-1.99-1.2c.86,0,1.48-.22,1.86-.67,.38-.45,.56-1,.56-1.66v-3.13c0-.66-.19-1.22-.56-1.66-.38-.45-1-.67-1.86-.67s-1.47,.23-1.84,.68c-.38,.45-.56,1-.56,1.65v3.13c0,.65,.19,1.2,.56,1.65,.38,.45,.99,.68,1.84,.68Z"/>
          <path class="cls-3" d="M224.05,36.64h-1.74v-.18c0-1.03-.74-1.55-2.23-1.55-1.39,0-2.09,.49-2.09,1.47,0,.37,.11,.66,.34,.86,.22,.2,.58,.36,1.07,.47l2.23,.48c1.75,.38,2.63,1.3,2.63,2.76,0,1.03-.32,1.85-.95,2.46s-1.63,.91-3.01,.91c-.79,0-1.47-.08-2.05-.24-.57-.16-1.01-.38-1.3-.67-.3-.29-.51-.59-.64-.91-.13-.32-.2-.68-.2-1.07v-.2h1.74v.17c0,.97,.8,1.46,2.41,1.46,1.45,0,2.18-.56,2.18-1.68,0-.39-.12-.7-.35-.92-.24-.23-.6-.39-1.11-.5l-2.23-.49c-1.66-.36-2.49-1.28-2.49-2.76,0-.88,.32-1.61,.96-2.18,.64-.57,1.6-.86,2.88-.86,1.35,0,2.35,.28,2.99,.85,.64,.57,.96,1.27,.96,2.11v.21Zm-3.84-4.6h.01s.95-1.31,.95-1.31l1.31,.04-1.48,2.12h-1.54s-1.5-2.17-1.5-2.17h1.31s.95,1.31,.95,1.31Z"/>
          <path class="cls-3" d="M228.09,33.63v10.53h-1.74v-10.53h1.74Z"/>
          <path class="cls-3" d="M236.75,40.67h1.73v.42c0,.41-.07,.8-.2,1.16-.14,.36-.35,.7-.65,1.02-.3,.32-.71,.58-1.26,.77-.54,.19-1.18,.29-1.91,.29s-1.39-.11-1.93-.33c-.55-.22-.97-.52-1.27-.89-.3-.37-.52-.77-.66-1.2-.14-.43-.21-.88-.21-1.36v-3.32c0-.48,.07-.93,.21-1.35,.14-.42,.36-.82,.66-1.19,.3-.37,.72-.67,1.27-.89,.55-.22,1.19-.33,1.93-.33s1.37,.09,1.91,.28c.54,.19,.96,.44,1.26,.75,.3,.32,.51,.65,.65,1,.14,.35,.2,.73,.2,1.13v.36h-1.73v-.27c0-.47-.18-.87-.54-1.21-.36-.34-.94-.5-1.74-.5s-1.4,.22-1.77,.65c-.37,.43-.56,.96-.56,1.58v3.32c0,.63,.18,1.16,.55,1.59,.37,.43,.96,.65,1.78,.65s1.38-.17,1.74-.52c.36-.35,.54-.77,.54-1.27v-.33Z"/>
          <path class="cls-3" d="M242.27,33.63v10.53h-1.74v-10.53h1.74Z"/>
          <path class="cls-3" d="M251.36,44.16l-.87-2.54h-4.03l-.86,2.54h-1.76l3.81-10.53h1.76l3.79,10.53h-1.83Zm-1.34-3.93l-1.55-4.55-1.54,4.55h3.09Z"/>
          <path class="cls-3" d="M260.61,40.67h1.73v.42c0,.41-.07,.8-.2,1.16-.14,.36-.35,.7-.65,1.02-.3,.32-.71,.58-1.26,.77-.54,.19-1.18,.29-1.91,.29s-1.39-.11-1.93-.33c-.55-.22-.97-.52-1.27-.89-.3-.37-.52-.77-.66-1.2-.14-.43-.21-.88-.21-1.36v-3.32c0-.48,.07-.93,.21-1.35,.14-.42,.36-.82,.66-1.19,.3-.37,.72-.67,1.27-.89,.55-.22,1.19-.33,1.93-.33s1.37,.09,1.91,.28c.54,.19,.96,.44,1.26,.75,.3,.32,.51,.65,.65,1,.14,.35,.2,.73,.2,1.13v.36h-1.73v-.27c0-.47-.18-.87-.54-1.21-.36-.34-.94-.5-1.74-.5s-1.4,.22-1.77,.65c-.37,.43-.56,.96-.56,1.58v3.32c0,.63,.18,1.16,.55,1.59,.37,.43,.96,.65,1.78,.65s1.38-.17,1.74-.52c.36-.35,.54-.77,.54-1.27v-.33Z"/>
          <path class="cls-3" d="M270.83,44.16v-4.74h-4.72v4.74h-1.74v-10.53h1.74v4.27h4.72v-4.27h1.74v10.53h-1.74Z"/>
        </g>
      </g>
      <g>
        <path class="cls-3" d="M621.29,11.09h-38.77v25.5c0,7.31,5.95,13.26,13.26,13.26h12.24c7.31,0,13.26-5.95,13.26-13.26V11.09Zm-36.73,2.04h34.69v10.2h-12.24v12.24h-10.2v-12.24h-12.24V13.13Zm34.68,23.46c0,6.19-5.03,11.22-11.22,11.22h-12.24c-6.19,0-11.22-5.03-11.22-11.22v-11.22h10.2v12.24h14.28v-12.24h10.2v11.22Z"/>
        <g>
          <path class="cls-3" d="M632.59,17.21h1.69v6.62c0,.63,.18,1.17,.54,1.6,.36,.44,.95,.66,1.78,.66s1.42-.22,1.78-.66c.36-.44,.54-.97,.54-1.6v-6.62h1.69v6.7c0,.47-.07,.91-.2,1.32-.14,.41-.35,.8-.64,1.16-.29,.36-.71,.65-1.25,.86-.54,.21-1.18,.32-1.92,.32s-1.37-.11-1.91-.32c-.54-.21-.96-.5-1.25-.86-.29-.36-.51-.75-.64-1.16-.14-.41-.2-.85-.2-1.32v-6.7Z"/>
          <path class="cls-3" d="M644.34,27.41h-1.6v-7.75h1.43l.09,1.05c.47-.81,1.27-1.21,2.42-1.21,.87,0,1.56,.27,2.05,.82,.49,.54,.74,1.26,.74,2.14v4.96h-1.62v-4.58c0-1.27-.55-1.91-1.66-1.91-.65,0-1.12,.19-1.41,.57-.29,.38-.43,.87-.43,1.49v4.43Z"/>
          <path class="cls-3" d="M653.07,18.33h-1.65v-1.56h1.65v1.56Zm-.01,9.08h-1.62v-7.75h1.62v7.75Z"/>
          <path class="cls-3" d="M657.16,27.41l-2.81-7.75h1.68l1.97,5.73,1.93-5.73h1.62l-2.78,7.75h-1.6Z"/>
          <path class="cls-3" d="M668.91,25.17c0,.29-.05,.57-.14,.82-.09,.26-.25,.51-.47,.76-.22,.25-.55,.45-.99,.6-.44,.15-.97,.23-1.6,.23s-1.18-.09-1.63-.26c-.46-.17-.8-.42-1.04-.72-.24-.31-.41-.63-.52-.97-.11-.34-.16-.71-.16-1.11v-1.91c0-.86,.26-1.59,.79-2.19,.53-.61,1.38-.91,2.54-.91,.59,0,1.11,.09,1.55,.27,.44,.18,.78,.43,1.02,.74,.24,.31,.41,.64,.52,.99,.11,.35,.17,.72,.17,1.11v1.38h-5.01v.68c0,.48,.14,.87,.42,1.19,.28,.32,.73,.47,1.35,.47s1.03-.12,1.3-.36c.26-.24,.39-.52,.39-.85v-.12h1.5v.16Zm-4.96-2.8v.44h3.47v-.44c0-.46-.14-.85-.42-1.17-.28-.32-.72-.48-1.32-.48s-1.05,.16-1.33,.48c-.27,.32-.41,.71-.41,1.17Z"/>
          <path class="cls-3" d="M672.29,27.41h-1.6v-7.75h1.43l.1,1.25c.49-.92,1.4-1.38,2.74-1.38v1.54h-.31c-.82,0-1.41,.2-1.79,.61-.38,.41-.57,.97-.57,1.68v4.05Z"/>
          <path class="cls-3" d="M675.98,19.66h5.84v1.14l-4.06,5.36h4.26v1.25h-6.26v-1.17l4.06-5.33h-3.83v-1.25Z"/>
          <path class="cls-3" d="M685.23,18.33h-1.65v-1.56h1.65v1.56Zm-.01,9.08h-1.62v-7.75h1.62v7.75Z"/>
          <path class="cls-3" d="M691.47,26.07v1.34h-1.01c-1.07,0-1.81-.22-2.21-.65-.4-.43-.6-1.05-.6-1.84v-3.99h-1.06v-1.24h1.06v-1.98h1.62v1.98h2v1.24h-2v3.89c0,.44,.1,.76,.31,.95,.21,.2,.59,.3,1.13,.3h.76Z"/>
          <path class="cls-3" d="M694.45,27.41h-1.6v-7.75h1.43l.09,1.05c.47-.81,1.27-1.21,2.42-1.21,.87,0,1.56,.27,2.05,.82,.49,.54,.74,1.26,.74,2.14v4.96h-1.62v-4.58c0-1.27-.55-1.91-1.66-1.91-.65,0-1.12,.19-1.41,.57s-.43,.87-.43,1.49v4.43Z"/>
          <path class="cls-3" d="M703.96,30.04h-1.53s.97-2.66,.97-2.66l-2.79-7.72h1.71l1.86,5.58,2.03-5.58h1.6l-3.85,10.38Zm2.45-13.45l-1.5,2.1h-1.31l1.03-2.1h1.78Z"/>
          <path class="cls-3" d="M714.27,27.41l-2.81-7.75h1.68l1.97,5.73,1.93-5.73h1.62l-2.78,7.75h-1.6Z"/>
          <path class="cls-3" d="M726.02,25.17c0,.29-.05,.57-.14,.82-.09,.26-.25,.51-.47,.76-.22,.25-.55,.45-.99,.6-.44,.15-.97,.23-1.6,.23s-1.18-.09-1.63-.26c-.46-.17-.8-.42-1.04-.72-.24-.31-.41-.63-.52-.97-.11-.34-.16-.71-.16-1.11v-1.91c0-.86,.26-1.59,.79-2.19,.53-.61,1.38-.91,2.54-.91,.59,0,1.11,.09,1.55,.27,.44,.18,.78,.43,1.02,.74,.24,.31,.41,.64,.52,.99,.11,.35,.17,.72,.17,1.11v1.38h-5.01v.68c0,.48,.14,.87,.42,1.19,.28,.32,.73,.47,1.35,.47s1.03-.12,1.3-.36c.26-.24,.39-.52,.39-.85v-.12h1.5v.16Zm-4.96-2.8v.44h3.47v-.44c0-.46-.14-.85-.42-1.17-.28-.32-.72-.48-1.32-.48s-1.05,.16-1.33,.48c-.27,.32-.41,.71-.41,1.17Z"/>
          <path class="cls-3" d="M732.87,27.41l-.1-1.02c-.45,.79-1.25,1.18-2.4,1.18-.87,0-1.56-.28-2.06-.83s-.75-1.28-.75-2.19v-2.04c0-.91,.25-1.64,.76-2.19,.51-.55,1.2-.82,2.08-.82,1.08,0,1.85,.34,2.3,1.01v-3.73h1.6v10.64h-1.43Zm-2.01-1.27c1.22,0,1.84-.69,1.84-2.06v-1.11c0-1.37-.61-2.06-1.84-2.06-1.14,0-1.71,.66-1.71,1.97v1.28c0,1.31,.57,1.97,1.71,1.97Z"/>
          <path class="cls-3" d="M742.62,25.17c0,.29-.05,.57-.14,.82-.09,.26-.25,.51-.47,.76-.22,.25-.55,.45-.99,.6-.44,.15-.97,.23-1.6,.23s-1.18-.09-1.63-.26c-.46-.17-.8-.42-1.04-.72-.24-.31-.41-.63-.52-.97-.11-.34-.16-.71-.16-1.11v-1.91c0-.86,.26-1.59,.79-2.19,.53-.61,1.38-.91,2.54-.91,.59,0,1.11,.09,1.55,.27,.44,.18,.78,.43,1.02,.74,.24,.31,.41,.64,.52,.99,.11,.35,.17,.72,.17,1.11v1.38h-5.01v.68c0,.48,.14,.87,.42,1.19,.28,.32,.73,.47,1.35,.47s1.03-.12,1.3-.36c.26-.24,.39-.52,.39-.85v-.12h1.5v.16Zm-4.96-2.8v.44h3.47v-.44c0-.46-.14-.85-.42-1.17-.28-.32-.72-.48-1.32-.48s-1.05,.16-1.33,.48c-.27,.32-.41,.71-.41,1.17Z"/>
          <path class="cls-3" d="M749.13,24.61h1.59v.15c0,.77-.26,1.43-.79,1.98-.53,.55-1.34,.83-2.43,.83-.61,0-1.15-.09-1.6-.27-.46-.18-.81-.42-1.06-.73-.25-.31-.43-.63-.54-.98-.11-.35-.17-.72-.17-1.12v-1.87c0-.4,.06-.77,.17-1.12,.11-.34,.29-.67,.54-.98,.25-.31,.6-.56,1.06-.74,.46-.18,.99-.27,1.6-.27,1.12,0,1.93,.28,2.44,.83,.51,.55,.77,1.21,.77,1.98v.15h-1.57v-.16c0-.41-.13-.76-.39-1.04-.26-.29-.68-.43-1.24-.43-.61,0-1.06,.17-1.34,.52-.28,.34-.42,.76-.42,1.25v1.88c0,.49,.14,.9,.42,1.25,.28,.34,.73,.52,1.34,.52,.56,0,.98-.14,1.24-.43,.26-.29,.39-.63,.39-1.04v-.15Z"/>
          <path class="cls-3" d="M753.96,25.2v2.22h-1.6v-10.64h1.6v6.34l3.1-3.45h1.91l-2.95,3.26,3.14,4.5h-1.89l-2.3-3.33-1.01,1.11Z"/>
          <path class="cls-3" d="M762.85,30.04h-1.53s.97-2.66,.97-2.66l-2.79-7.72h1.71l1.86,5.58,2.03-5.58h1.6l-3.85,10.38Zm2.45-13.45l-1.5,2.1h-1.31l1.03-2.1h1.78Z"/>
          <path class="cls-3" d="M775,27.57c-1.08,0-1.85-.33-2.3-.99v3.45h-1.6v-10.38h1.43l.09,1.03c.47-.8,1.27-1.2,2.42-1.2,.87,0,1.56,.28,2.06,.83,.5,.55,.75,1.28,.75,2.19v2.04c0,.91-.25,1.64-.76,2.19-.51,.55-1.2,.82-2.08,.82Zm-.47-1.43c.64,0,1.09-.17,1.33-.52,.25-.34,.37-.83,.37-1.45v-1.28c0-1.31-.57-1.97-1.71-1.97-1.22,0-1.84,.69-1.84,2.06v1.11c0,1.37,.61,2.06,1.84,2.06Z"/>
          <path class="cls-3" d="M784.29,27.41l-.07-.85c-.4,.67-1.2,1.01-2.4,1.01-.91,0-1.58-.21-1.99-.63-.41-.42-.62-.99-.62-1.7,0-1.56,.93-2.35,2.8-2.35h2.11v-.58c0-1.03-.52-1.54-1.57-1.54-.52,0-.91,.1-1.19,.3-.28,.2-.42,.46-.42,.78v.12h-1.52v-.12c0-.68,.26-1.24,.79-1.68,.53-.44,1.32-.66,2.37-.66,2.09,0,3.13,.96,3.13,2.87v5.04h-1.43Zm-2.04-1.09c.63,0,1.1-.15,1.41-.45,.31-.3,.46-.71,.46-1.22v-.57h-1.87c-.94,0-1.41,.37-1.41,1.11s.47,1.14,1.41,1.14Z"/>
          <path class="cls-3" d="M789.29,27.41h-1.6v-7.75h1.43l.1,1.25c.49-.92,1.4-1.38,2.74-1.38v1.54h-.31c-.82,0-1.41,.2-1.79,.61-.38,.41-.57,.97-.57,1.68v4.05Z"/>
          <path class="cls-3" d="M794.85,25.2v2.22h-1.6v-10.64h1.6v6.34l3.1-3.45h1.91l-2.95,3.26,3.14,4.5h-1.89l-2.3-3.33-1.01,1.11Z"/>
          <path class="cls-3" d="M639.7,35.02h-3.12v8.72h-1.69v-8.72h-3.12v-1.49h7.93v1.49Z"/>
          <path class="cls-3" d="M646.01,41.49c0,.29-.05,.57-.14,.82-.09,.26-.25,.51-.47,.76-.22,.25-.55,.45-.99,.6-.44,.15-.97,.23-1.6,.23s-1.18-.09-1.63-.26c-.46-.17-.8-.42-1.04-.72-.24-.31-.41-.63-.52-.97-.11-.34-.16-.71-.16-1.11v-1.91c0-.86,.26-1.59,.79-2.19,.53-.61,1.38-.91,2.54-.91,.59,0,1.11,.09,1.55,.27,.44,.18,.78,.43,1.02,.74,.24,.31,.41,.64,.52,.99,.11,.35,.17,.72,.17,1.11v1.38h-5.01v.68c0,.48,.14,.87,.42,1.19,.28,.32,.73,.47,1.35,.47s1.03-.12,1.3-.36c.26-.24,.39-.52,.39-.85v-.12h1.5v.16Zm-4.96-2.8v.44h3.47v-.44c0-.46-.14-.85-.42-1.17-.28-.32-.72-.48-1.32-.48s-1.05,.16-1.33,.48c-.27,.32-.41,.71-.41,1.17Z"/>
          <path class="cls-3" d="M652.53,40.94h1.59v.15c0,.77-.26,1.43-.79,1.98-.53,.55-1.34,.83-2.43,.83-.61,0-1.15-.09-1.6-.27-.46-.18-.81-.42-1.06-.73-.25-.31-.43-.63-.54-.98-.11-.35-.17-.72-.17-1.12v-1.87c0-.4,.06-.77,.17-1.12,.11-.34,.29-.67,.54-.98,.25-.31,.6-.56,1.06-.74,.46-.18,.99-.27,1.6-.27,1.12,0,1.93,.28,2.44,.83,.51,.55,.77,1.21,.77,1.98v.15h-1.57v-.16c0-.41-.13-.76-.39-1.04-.26-.29-.68-.43-1.24-.43-.61,0-1.06,.17-1.34,.52-.28,.34-.42,.76-.42,1.25v1.88c0,.49,.14,.9,.42,1.25,.28,.34,.73,.52,1.34,.52,.56,0,.98-.14,1.24-.43,.26-.29,.39-.63,.39-1.04v-.15Z"/>
          <path class="cls-3" d="M657.35,43.74h-1.6v-10.64h1.6v3.79c.49-.71,1.26-1.06,2.33-1.06,.87,0,1.56,.27,2.05,.82,.49,.54,.74,1.26,.74,2.14v4.96h-1.62v-4.58c0-1.27-.55-1.91-1.66-1.91-.65,0-1.12,.19-1.41,.57-.29,.38-.43,.87-.43,1.49v4.43Z"/>
          <path class="cls-3" d="M666.04,43.74h-1.6v-7.75h1.43l.09,1.05c.47-.81,1.27-1.21,2.42-1.21,.87,0,1.56,.27,2.05,.82,.49,.54,.74,1.26,.74,2.14v4.96h-1.62v-4.58c0-1.27-.55-1.91-1.66-1.91-.65,0-1.12,.19-1.41,.57s-.43,.87-.43,1.49v4.43Z"/>
          <path class="cls-3" d="M674.77,34.66h-1.65v-1.56h1.65v1.56Zm-.01,9.08h-1.62v-7.75h1.62v7.75Z"/>
          <path class="cls-3" d="M681.55,40.94h1.59v.15c0,.77-.26,1.43-.79,1.98-.53,.55-1.34,.83-2.43,.83-.61,0-1.15-.09-1.6-.27-.46-.18-.81-.42-1.06-.73-.25-.31-.43-.63-.54-.98-.11-.35-.17-.72-.17-1.12v-1.87c0-.4,.06-.77,.17-1.12,.11-.34,.29-.67,.54-.98,.25-.31,.6-.56,1.06-.74,.46-.18,.99-.27,1.6-.27,1.12,0,1.93,.28,2.44,.83,.51,.55,.77,1.21,.77,1.98v.15h-1.57v-.16c0-.41-.13-.76-.39-1.04-.26-.29-.68-.43-1.24-.43-.61,0-1.06,.17-1.34,.52-.28,.34-.42,.76-.42,1.25v1.88c0,.49,.14,.9,.42,1.25,.28,.34,.73,.52,1.34,.52,.56,0,.98-.14,1.24-.43,.26-.29,.39-.63,.39-1.04v-.15Z"/>
          <path class="cls-3" d="M684.51,40.79v-1.87c0-.86,.27-1.59,.8-2.19,.53-.61,1.39-.91,2.58-.91,.63,0,1.18,.09,1.63,.27,.46,.18,.81,.43,1.06,.74,.25,.31,.43,.64,.54,.98,.11,.35,.17,.72,.17,1.12v1.87c0,.4-.06,.77-.17,1.12-.11,.35-.29,.68-.54,.98-.25,.31-.6,.55-1.06,.73-.46,.18-1,.27-1.63,.27s-1.16-.09-1.62-.27c-.46-.18-.81-.42-1.06-.73-.25-.31-.43-.63-.54-.98-.11-.35-.17-.72-.17-1.12Zm5.17,.01v-1.89c0-.49-.14-.9-.42-1.25-.28-.35-.74-.52-1.37-.52s-1.07,.17-1.36,.52c-.28,.34-.42,.76-.42,1.25v1.89c0,.5,.14,.92,.42,1.26,.28,.35,.73,.52,1.36,.52s1.09-.17,1.37-.52c.28-.34,.42-.77,.42-1.26Z"/>
          <path class="cls-3" d="M694.66,43.74h-1.6v-7.75h1.43l.09,1.03c.46-.8,1.24-1.2,2.36-1.2,1.19,0,2,.49,2.43,1.46,.19-.46,.52-.81,.97-1.07,.45-.26,.99-.39,1.63-.39,.86,0,1.54,.27,2.01,.81,.48,.54,.71,1.26,.71,2.15v4.96h-1.6v-4.58c0-1.27-.54-1.91-1.62-1.91-1.19,0-1.79,.69-1.79,2.06v4.43h-1.6v-4.58c0-1.27-.54-1.91-1.62-1.91-1.2,0-1.79,.69-1.79,2.06v4.43Z"/>
        </g>
      </g>
      <g>
        <path class="cls-1" d="M97.9,7.03c-.77-.77-1.2-1.8-1.2-2.91s.43-2.14,1.2-2.91c.77-.77,1.8-1.2,2.91-1.2s2.14,.43,2.83,1.2c1.63,1.63,1.63,4.2,0,5.83-.77,.77-1.8,1.2-2.83,1.2-1.11,.09-2.14-.34-2.91-1.2Zm16.29,9.34v-2.49c0-2.4-1.89-4.29-4.29-4.29h-18.26c-2.4,0-4.29,1.89-4.29,4.29v9.43h20.4v1.46h-20.4v2.49c0,2.4,1.89,4.29,4.29,4.29h18.26c2.4,0,4.29-1.89,4.29-4.29v-9.43h-20.4v-1.46h20.4Z"/>
        <path class="cls-2" d="M.09,11.57c0-1.29,.6-1.97,1.89-1.97H14.06v2.74c.17,.94-.51,1.8-1.46,1.97H5.57v3.94h7.2v4.46H5.57v4.29H14.14v2.74c.09,.94-.51,1.8-1.46,1.89H1.89c-1.29,0-1.89-.69-1.89-1.97L.09,11.57Zm16.37,0c0-1.29,.6-1.97,1.89-1.97h7.2c5.06,0,7.89,2.31,7.89,6.6,0,3-1.11,4.89-3.86,6l4.29,8.4c.17,.26,.26,.6,.34,.94h-4.71c-1.03,0-1.37,0-1.89-1.03l-3.86-7.97h-1.71v9h-5.49l-.09-19.97Zm5.49,2.66v3.94h3.17c1.54,0,2.83-.17,2.83-1.97s-1.29-1.97-2.83-1.97h-3.17Zm20.49-4.8c4.54,0,6.94,.51,6.94,2.66v2.14h-6.26c-1.71,0-2.14,.43-2.14,1.37,0,2.66,9.6,2.14,9.6,9.52,0,3.51-2.06,6.69-8.23,6.69-4.03,0-7.29-.69-7.29-2.66v-2.14h7.37c1.54,0,2.23-.51,2.23-1.54,0-2.91-9.52-2.31-9.52-9.94,0-3.43,2.23-6.09,7.29-6.09Zm23.23,.17v2.74c0,1.29-.69,1.89-1.89,1.89h-2.83V31.63h-5.49V14.23h-4.63v-2.74c0-1.29,.69-1.89,1.89-1.89h12.94Zm1.71,1.97c0-1.29,.6-1.97,1.89-1.97h12.09v2.74c.17,.94-.51,1.8-1.46,1.97h-6.94v3.94h7.2v4.46h-7.2v4.29h8.57v2.74c.09,.94-.51,1.8-1.46,1.89h-10.8c-1.29,0-1.89-.69-1.89-1.97V11.57Z"/>
        <path class="cls-2" d="M.26,36.78c0-.51,.17-.86,.69-.86h3.09c2.66,0,4.11,1.63,4.11,5.49s-1.46,5.49-4.11,5.49H.94c-.51,0-.69-.26-.69-.86,0,0,0-9.26,0-9.26Zm1.63,.6v8.14H3.94c1.54,0,2.49-.94,2.49-4.11s-.94-4.11-2.49-4.11H1.89v.09Z"/>
        <path class="cls-2" d="M11.32,37.46h-1.54v-.94c0-.51,.17-.77,.69-.77h.86v1.71Zm-1.54,.94h.86c.51,0,.69,.26,.69,.86v7.8h-1.54v-8.66Z"/>
        <path class="cls-2" d="M19.72,46.12c0,2.06-.86,3.51-3.6,3.51-1.89,0-2.66-.17-2.66-.86v-.43h2.49c1.37,0,2.23-.43,2.23-2.4v-.26c-.6,.69-1.37,1.03-2.23,1.11-2.06,0-2.91-1.54-2.91-4.29s.94-4.29,2.91-4.29c.86,0,1.71,.43,2.23,1.11v-.26c0-.43,.26-.77,.77-.77h.77v7.8Zm-3.26-.6c.6,0,1.29-.26,1.71-.69v-4.54c-.43-.43-1.11-.69-1.71-.69-1.37,0-1.89,1.11-1.89,3s.51,2.91,1.89,2.91h0Z"/>
        <path class="cls-2" d="M23.4,37.46h-1.54v-.94c0-.51,.17-.77,.69-.77h.86v1.71Zm-1.54,.94h.86c.51,0,.77,.26,.77,.86v7.8h-1.54l-.09-8.66Z"/>
        <path class="cls-2" d="M27.43,38.4h1.89v1.2h-1.89v5.23c0,.77,.09,1.03,.69,1.03h1.2v.43c0,.69-.6,.86-1.46,.86-1.71,0-1.89-.94-1.89-2.23v-5.23h-1.11v-.86l1.11-.26,.51-1.37c.17-.34,.26-.51,.6-.51h.43v1.71h-.09Z"/>
        <path class="cls-2" d="M35.83,46.98c-.34,.09-.69-.17-.77-.51v-.43c-.6,.69-1.46,1.11-2.4,1.11-1.29,.09-2.4-.77-2.49-2.06v-.34c0-2.14,2.23-2.74,4.89-2.83v-.86c0-1.2-.77-1.46-1.8-1.46h-2.49v-.43c0-.77,.86-.77,2.66-.77,1.97,0,3.17,.86,3.17,2.66v6l-.77-.09Zm-.77-4.11c-2.4,.09-3.34,.6-3.34,1.71,0,.94,.69,1.29,1.54,1.29,.69,0,1.29-.26,1.71-.69l.09-2.31Z"/>
        <path class="cls-2" d="M40.21,46.98h-1.54v-10.54c0-.51,.17-.77,.69-.77h.86v11.32Z"/>
      </g>
    </g>
  </g>
</svg>